<?xml version="1.0" encoding="UTF-8"?>
<svg id="Capa_2" data-name="Capa 2" xmlns="http://www.w3.org/2000/svg" viewBox="0 0 2350 711.94">
  <defs>
    <style>
      .cls-1, .cls-2 {
        fill: #fff;
      }

      .cls-2 {
        stroke: #000;
        stroke-miterlimit: 10;
        stroke-width: 2px;
      }
    </style>
  </defs>
  <g id="_Ñëîé_1" data-name="Ñëîé 1">
    <g>
      <rect width="2350" height="711.94" rx="144.41" ry="144.41"/>
      <path class="cls-1" d="M682.73,247.79l41.24-107.37h15.31l43.95,107.37h-16.19l-12.52-32.52h-44.9l-11.79,32.52h-15.09ZM713.71,203.7h36.4l-11.21-29.74c-3.42-9.03-5.96-16.45-7.62-22.27-1.37,6.88-3.3,13.72-5.79,20.51l-11.79,31.49Z"/>
      <path class="cls-1" d="M814.13,247.79l-41.6-107.37h15.38l27.91,78c2.25,6.25,4.12,12.11,5.64,17.58,1.66-5.86,3.59-11.72,5.79-17.58l29-78h14.5l-42.04,107.37h-14.58Z"/>
      <path class="cls-1" d="M860.56,247.79l41.24-107.37h15.31l43.95,107.37h-16.19l-12.52-32.52h-44.9l-11.79,32.52h-15.09ZM891.54,203.7h36.4l-11.21-29.74c-3.42-9.03-5.96-16.45-7.62-22.27-1.37,6.88-3.3,13.72-5.79,20.51l-11.79,31.49Z"/>
      <path class="cls-1" d="M974.82,247.79v-107.37h14.21v107.37h-14.21Z"/>
      <path class="cls-1" d="M1013.49,247.79v-107.37h14.21v94.7h52.88v12.67h-67.09Z"/>
      <path class="cls-1" d="M1085.71,247.79l41.24-107.37h15.31l43.95,107.37h-16.19l-12.52-32.52h-44.9l-11.79,32.52h-15.09ZM1116.69,203.7h36.4l-11.21-29.74c-3.42-9.03-5.96-16.45-7.62-22.27-1.37,6.88-3.3,13.72-5.79,20.51l-11.79,31.49Z"/>
      <path class="cls-1" d="M1196.96,247.79v-107.37h40.28c8.2,0,14.78,1.09,19.74,3.26,4.96,2.17,8.84,5.52,11.65,10.03,2.81,4.52,4.21,9.24,4.21,14.17,0,4.59-1.25,8.91-3.74,12.96-2.49,4.05-6.25,7.32-11.28,9.81,6.49,1.9,11.49,5.15,14.98,9.74,3.49,4.59,5.24,10.01,5.24,16.26,0,5.03-1.06,9.7-3.19,14.03-2.12,4.32-4.75,7.65-7.87,10-3.12,2.34-7.04,4.11-11.76,5.31-4.71,1.2-10.49,1.79-17.32,1.79h-40.94ZM1211.17,185.53h23.22c6.3,0,10.81-.41,13.55-1.25,3.61-1.07,6.34-2.86,8.17-5.35,1.83-2.49,2.75-5.61,2.75-9.38,0-3.56-.85-6.7-2.56-9.41-1.71-2.71-4.15-4.57-7.32-5.57-3.17-1-8.62-1.5-16.33-1.5h-21.46v32.45ZM1211.17,235.12h26.73c4.59,0,7.81-.17,9.67-.51,3.27-.59,6.01-1.56,8.2-2.93,2.2-1.37,4-3.36,5.42-5.97,1.42-2.61,2.12-5.63,2.12-9.05,0-4-1.03-7.48-3.08-10.44-2.05-2.95-4.9-5.03-8.53-6.23-3.64-1.2-8.87-1.79-15.71-1.79h-24.83v36.91Z"/>
      <path class="cls-1" d="M1297.01,247.79v-107.37h14.21v94.7h52.88v12.67h-67.09Z"/>
      <path class="cls-1" d="M1381.31,247.79v-107.37h77.64v12.67h-63.43v32.89h59.4v12.6h-59.4v36.55h65.92v12.67h-80.13Z"/>
      <path class="cls-1" d="M1518.42,195.49c0-17.82,4.79-31.77,14.36-41.86,9.57-10.08,21.92-15.12,37.06-15.12,9.91,0,18.85,2.37,26.81,7.1,7.96,4.74,14.03,11.34,18.2,19.81,4.18,8.47,6.26,18.08,6.26,28.82s-2.2,20.63-6.59,29.22c-4.39,8.59-10.62,15.1-18.68,19.52-8.06,4.42-16.75,6.63-26.07,6.63-10.11,0-19.14-2.44-27.1-7.32-7.96-4.88-13.99-11.55-18.09-20-4.1-8.45-6.15-17.38-6.15-26.81ZM1533.07,195.71c0,12.94,3.48,23.13,10.44,30.58,6.96,7.45,15.69,11.17,26.18,11.17s19.49-3.76,26.4-11.28c6.91-7.52,10.36-18.19,10.36-32.01,0-8.74-1.48-16.37-4.43-22.89-2.95-6.52-7.28-11.57-12.96-15.16-5.69-3.59-12.07-5.38-19.15-5.38-10.06,0-18.71,3.45-25.96,10.36-7.25,6.91-10.88,18.45-10.88,34.61Z"/>
      <path class="cls-1" d="M1639.27,247.79v-107.37h14.58l56.4,84.3v-84.3h13.62v107.37h-14.58l-56.4-84.38v84.38h-13.62Z"/>
      <path class="cls-2" d="M682.54,517.79l76.97-200.43h28.57l82.03,200.43h-30.21l-23.38-60.7h-83.81l-22.01,60.7h-28.16ZM740.37,435.48h67.95l-20.92-55.51c-6.38-16.86-11.12-30.71-14.22-41.56-2.55,12.85-6.15,25.61-10.8,38.28l-22.01,58.79Z"/>
      <path class="cls-2" d="M888.16,573.43v-200.84h22.42v18.87c5.29-7.38,11.26-12.92,17.91-16.61,6.65-3.69,14.72-5.54,24.2-5.54,12.39,0,23.33,3.19,32.81,9.57,9.48,6.38,16.63,15.38,21.46,27,4.83,11.62,7.25,24.36,7.25,38.21,0,14.86-2.67,28.23-8,40.13-5.33,11.89-13.08,21.01-23.24,27.34-10.16,6.33-20.85,9.5-32.06,9.5-8.2,0-15.56-1.73-22.08-5.2-6.52-3.46-11.87-7.84-16.06-13.12v70.68h-24.61ZM910.45,446.01c0,18.69,3.78,32.49,11.35,41.43,7.56,8.93,16.72,13.4,27.48,13.4s20.3-4.62,28.1-13.88c7.79-9.25,11.69-23.58,11.69-43s-3.81-32.36-11.42-41.56c-7.61-9.2-16.7-13.81-27.28-13.81s-19.76,4.9-27.82,14.7c-8.07,9.8-12.1,24.04-12.1,42.72Z"/>
      <path class="cls-2" d="M1043.89,573.43v-200.84h22.42v18.87c5.29-7.38,11.26-12.92,17.91-16.61,6.65-3.69,14.72-5.54,24.2-5.54,12.39,0,23.33,3.19,32.81,9.57,9.48,6.38,16.63,15.38,21.46,27,4.83,11.62,7.25,24.36,7.25,38.21,0,14.86-2.67,28.23-8,40.13-5.33,11.89-13.08,21.01-23.24,27.34-10.16,6.33-20.85,9.5-32.06,9.5-8.2,0-15.56-1.73-22.08-5.2-6.52-3.46-11.87-7.84-16.06-13.12v70.68h-24.61ZM1066.17,446.01c0,18.69,3.78,32.49,11.35,41.43,7.56,8.93,16.72,13.4,27.48,13.4s20.3-4.62,28.1-13.88c7.79-9.25,11.69-23.58,11.69-43s-3.81-32.36-11.42-41.56c-7.61-9.2-16.7-13.81-27.28-13.81s-19.76,4.9-27.82,14.7c-8.07,9.8-12.1,24.04-12.1,42.72Z"/>
      <path class="cls-2" d="M1271.52,453.39l25.02-2.19c1.18,10.03,3.94,18.25,8.27,24.68,4.33,6.43,11.05,11.62,20.17,15.59,9.11,3.96,19.37,5.95,30.76,5.95,10.12,0,19.05-1.5,26.8-4.51,7.75-3.01,13.51-7.13,17.29-12.37,3.78-5.24,5.67-10.96,5.67-17.16s-1.82-11.78-5.47-16.47c-3.65-4.69-9.66-8.63-18.05-11.83-5.38-2.1-17.27-5.35-35.68-9.78-18.41-4.42-31.31-8.59-38.69-12.51-9.57-5.01-16.7-11.23-21.4-18.66-4.7-7.43-7.04-15.74-7.04-24.95,0-10.12,2.87-19.57,8.61-28.37,5.74-8.79,14.13-15.47,25.16-20.03,11.03-4.56,23.29-6.84,36.78-6.84,14.86,0,27.96,2.39,39.31,7.18,11.35,4.79,20.07,11.83,26.18,21.12,6.11,9.3,9.39,19.82,9.84,31.58l-25.43,1.91c-1.37-12.67-5.99-22.24-13.88-28.71-7.88-6.47-19.53-9.71-34.93-9.71s-27.73,2.94-35.07,8.82c-7.34,5.88-11.01,12.97-11.01,21.26,0,7.2,2.6,13.12,7.79,17.77,5.1,4.65,18.43,9.41,39.99,14.29,21.55,4.88,36.34,9.14,44.37,12.78,11.67,5.38,20.28,12.19,25.84,20.44,5.56,8.25,8.34,17.75,8.34,28.51s-3.05,20.71-9.16,30.15c-6.11,9.43-14.88,16.77-26.32,22.01-11.44,5.24-24.31,7.86-38.62,7.86-18.14,0-33.34-2.64-45.6-7.93-12.26-5.29-21.88-13.24-28.85-23.86-6.97-10.62-10.64-22.63-11.01-36.03Z"/>
      <path class="cls-2" d="M1517.89,495.78l3.55,21.74c-6.93,1.46-13.12,2.19-18.59,2.19-8.93,0-15.86-1.41-20.78-4.24-4.92-2.82-8.39-6.54-10.39-11.14-2.01-4.6-3.01-14.29-3.01-29.05v-83.54h-18.05v-19.14h18.05v-35.96l24.47-14.77v50.72h24.75v19.14h-24.75v84.9c0,7.02.43,11.53,1.3,13.54.87,2.01,2.28,3.6,4.24,4.79,1.96,1.19,4.76,1.78,8.41,1.78,2.73,0,6.33-.32,10.8-.96Z"/>
      <path class="cls-2" d="M1532.79,445.19c0-26.89,7.47-46.8,22.42-59.75,12.49-10.75,27.71-16.13,45.66-16.13,19.96,0,36.28,6.54,48.95,19.62,12.67,13.08,19,31.15,19,54.21,0,18.69-2.8,33.38-8.41,44.09-5.61,10.71-13.76,19.03-24.47,24.95-10.71,5.92-22.4,8.89-35.07,8.89-20.33,0-36.76-6.52-49.29-19.55-12.53-13.03-18.8-31.81-18.8-56.33ZM1558.09,445.19c0,18.59,4.05,32.52,12.17,41.77,8.11,9.25,18.32,13.88,30.62,13.88s22.38-4.65,30.49-13.95c8.11-9.3,12.17-23.47,12.17-42.52,0-17.96-4.08-31.56-12.24-40.81-8.16-9.25-18.3-13.88-30.42-13.88s-22.51,4.6-30.62,13.81c-8.11,9.21-12.17,23.11-12.17,41.7Z"/>
      <path class="cls-2" d="M1697.4,517.79v-145.2h22.15v22.01c5.65-10.3,10.87-17.09,15.65-20.37,4.79-3.28,10.05-4.92,15.79-4.92,8.29,0,16.72,2.64,25.29,7.93l-8.48,22.83c-6.02-3.55-12.03-5.33-18.05-5.33-5.38,0-10.21,1.62-14.49,4.85-4.29,3.24-7.34,7.72-9.16,13.47-2.73,8.75-4.1,18.32-4.1,28.71v76.02h-24.61Z"/>
      <path class="cls-2" d="M1890.31,471.03l25.43,3.14c-4.01,14.86-11.44,26.39-22.29,34.59-10.85,8.2-24.7,12.3-41.56,12.3-21.24,0-38.08-6.54-50.52-19.62-12.44-13.08-18.66-31.42-18.66-55.03s6.29-43.38,18.87-56.88c12.58-13.49,28.89-20.23,48.95-20.23s35.27,6.61,47.58,19.82c12.3,13.22,18.46,31.81,18.46,55.78,0,1.46-.05,3.65-.14,6.56h-108.28c.91,15.95,5.42,28.16,13.54,36.64,8.11,8.48,18.23,12.71,30.35,12.71,9.02,0,16.72-2.37,23.11-7.11,6.38-4.74,11.44-12.3,15.18-22.7ZM1809.51,431.24h81.07c-1.09-12.21-4.19-21.37-9.3-27.48-7.84-9.48-18-14.22-30.49-14.22-11.3,0-20.8,3.78-28.51,11.35-7.7,7.57-11.96,17.68-12.78,30.35Z"/>
      <path class="cls-1" d="M537.67,284.38s-72.67,41.36-40.34,125.89c7.59,19.85,26.03,39.42,52.1,50.75,0,0-3.99,14.18-13.39,33.75-9.27,19.29-25.57,44.3-44.97,65.12,0,0-14.31,15.3-30.45,18.85-9.96,2.19-22.24,2.27-36.83-2.98,0,0-19.32-8.83-31.87-11.62-14.02-3.12-32.3-1.42-41.64,1.84-9.35,3.26-28.75,11.05-28.75,11.05,0,0-24.93,12.18-50.28-6.23-24.05-17.47-51.56-62.75-56.52-72.67-3.83-7.65-21.53-39.66-29.15-89.35-2.24-14.64-2.79-30.9-1.87-48.48,2.55-48.87,27.91-81.84,46.24-96.18,8.5-6.65,15.23-10.06,16.94-10.91,5.38-2.69,38.53-20.68,76.21-7.65,28.77,9.95,37.39,15.01,47.03,14.87,2.11-.03,4.32-.6,6.51-1.1,8.59-1.96,16.86-5.56,16.86-5.56,6.01-2.72,12.24-5.02,18.5-7.11,5.68-1.9,11.44-3.57,17.29-4.85,2.96-.65,5.95-1.19,8.96-1.57,3.39-.43,6.91-.73,10.35-.64,6.17.13,11.88.55,17.99,1.42,5.55.79,11.07,2.05,16.43,3.68,4.91,1.49,9.71,3.31,14.42,5.35,10.87,4.71,21.82,12.42,31.9,23.69l8.36,10.62Z"/>
      <path class="cls-1" d="M455.65,130.97s-17.54,0-39.17,12.15c-24.29,13.63-56.58,47.77-51.2,91.11,0,0,10.83,2.76,27.6-3.55,1.83-.69,3.69-1.56,5.68-2.4,23.06-9.72,43.49-32.06,52.49-57.98,4.38-12.61,6.29-25.17,4.59-39.33Z"/>
    </g>
  </g>
</svg>