<?xml version="1.0" encoding="UTF-8"?>
<svg id="Capa_2" data-name="Capa 2" xmlns="http://www.w3.org/2000/svg" viewBox="0 0 99.19 104.12">
  <defs>
    <style>
      .cls-1 {
        fill: #9ba0a8;
      }

      .cls-2 {
        fill: #33527e;
      }

      .cls-3 {
        fill: #435e89;
      }

      .cls-4 {
        fill: #b4b9c1;
      }

      .cls-5 {
        fill: #015dee;
      }

      .cls-6 {
        fill: #079cff;
      }
    </style>
  </defs>
  <g id="Layer_1" data-name="Layer 1">
    <g>
      <path class="cls-2" d="M40.07,3.06c.06-1.63,1.55-3.04,3.18-3.02,4.24-.01,8.49-.04,12.73-.04,1.59.03,3,1.41,3.08,3,.03,1.35,0,2.7.03,4.06,8.08-.04,16.15-.06,24.23-.1.59-1.69,1.72-3.19,3.22-4.17,1.77-1.19,4.03-1.63,6.12-1.2,1.58.31,3.06,1.11,4.19,2.26,1.46,1.45,2.31,3.49,2.34,5.54.04,1.73-.49,3.47-1.49,4.88-1.07,1.52-2.68,2.66-4.47,3.15-1.79.5-3.75.36-5.45-.4-2.05-.89-3.68-2.67-4.42-4.78-4.41-.03-8.82,0-13.23.05,7.91,4.26,14.37,11.12,18.21,19.24,1.93,4.06,3.2,8.43,3.77,12.89,1.25,0,2.5-.02,3.75-.01,1.4,0,2.62,1.26,2.62,2.66.02,3.53.04,7.07.04,10.6.01,1.39-1.2,2.64-2.59,2.66-3.57.02-7.14.03-10.71.04-1.45,0-2.72-1.33-2.64-2.77,0-3.49-.03-6.98-.04-10.46-.01-1.03.63-2.02,1.56-2.44.84-.4,1.8-.2,2.7-.26-.74-5.13-2.56-10.1-5.32-14.48-5.01-8.04-13.17-14.06-22.35-16.41-.02.93.02,1.87,0,2.8-.05,1.29-.96,2.49-2.19,2.89-.68.25-1.42.17-2.13.18-1.56.02-3.12-.02-4.68.05.34.04.68.1,1.01.19.02,5.1.04,10.2.05,15.3-1.02-1.89-1.99-3.82-3-5.72v-.07c0-3.17-.03-6.34-.04-9.5.33-.09.66-.15,1-.19-1.98-.07-3.96,0-5.94-.02-1.56-.04-2.96-1.35-3.08-2.9-.04-.98-.01-1.95-.03-2.93-4.59,1.23-8.93,3.34-12.73,6.19-7.96,5.91-13.43,15.08-14.7,24.92.67.02,1.35-.04,2.02.03,1.26.18,2.28,1.36,2.26,2.64.01,3.53.03,7.06.04,10.59.02,1.41-1.22,2.66-2.62,2.67-3.32.02-6.63.02-9.95.04-.5,0-1.02.03-1.51-.14-1.07-.33-1.85-1.39-1.87-2.5-.03-3.36-.03-6.73-.05-10.09,0-.38-.01-.76.08-1.13.26-1.14,1.34-2.05,2.53-2.06,1.25-.02,2.5-.01,3.74-.02.58-4.8,1.96-9.51,4.12-13.85,3.83-7.75,10.05-14.31,17.64-18.46-3.76-.02-7.51.02-11.27.02-.66,0-1.33-.01-1.99.03-.57,1.67-1.69,3.15-3.16,4.13-1.71,1.18-3.9,1.64-5.94,1.28-1.85-.31-3.58-1.3-4.79-2.73C.73,13.75.02,11.89,0,10.01c-.05-2.17.83-4.35,2.37-5.87,1.1-1.12,2.54-1.9,4.08-2.22,2.18-.47,4.56,0,6.38,1.31,1.4.97,2.43,2.41,3.02,4,8.07-.04,16.14-.06,24.21-.1,0-1.35-.02-2.71,0-4.06Z"/>
      <g>
        <path class="cls-1" d="M46.42,20.73c.47-.5,1.09-.84,1.73-1.09,0,3.17.03,6.34.03,9.5-.51-.8-.89-1.68-1.34-2.51-.61-1.17-1.22-2.35-1.85-3.51l-.03-.06c.43-.81.78-1.69,1.46-2.34Z"/>
        <path class="cls-1" d="M51.12,19.63c1.14.38,2.11,1.22,2.65,2.3,5.78,11.13,11.55,22.27,17.33,33.4,1.16,2.27,1.47,4.97.83,7.44-.42,1.7-1.28,3.28-2.46,4.58-1.17,1.31-2.34,2.62-3.52,3.92-1.18,1.28-2.07,2.84-2.5,4.54-.49,1.81-.35,3.7-.32,5.55-2.53-.17-5.06,0-7.6-.06-.59-.04-1.19.12-1.77.01.02-1.77-.18-3.57.28-5.31.3-1.3.9-2.52,1.66-3.61.51-.74,1.15-1.37,1.74-2.04.95-1.07,1.91-2.13,2.86-3.19,1.35-1.57,2.24-3.53,2.49-5.58.3-2.2-.15-4.47-1.19-6.42-3.37-6.48-6.74-12.96-10.09-19.45-.11-.17-.23-.34-.34-.51,0-.06,0-.19,0-.26-.01-5.1-.04-10.2-.05-15.3Z"/>
      </g>
      <path class="cls-4" d="M44.11,24.72c.28-.54.52-1.1.88-1.6.63,1.16,1.24,2.34,1.85,3.51.45.84.83,1.71,1.34,2.51v.07c.03,6.77.06,13.54.08,20.31-.01,1.86-.8,3.66-2,5.06-.57.72-1.34,1.26-1.89,2.01-1.08,1.42-1.55,3.28-1.27,5.04.27,1.97,1.51,3.75,3.21,4.77,1.72,1.06,3.94,1.24,5.82.54,1.73-.63,3.16-2.01,3.87-3.7.85-2,.66-4.4-.52-6.23-.55-.93-1.44-1.57-2.1-2.4-1.3-1.57-2.14-3.55-2.14-5.61-.01-4.6-.04-9.21-.05-13.81.12.16.24.33.34.51,3.36,6.49,6.72,12.97,10.09,19.45,1.04,1.95,1.48,4.22,1.19,6.42-.25,2.05-1.15,4.01-2.49,5.58-.95,1.07-1.91,2.13-2.86,3.19-.59.67-1.23,1.3-1.74,2.04-.76,1.09-1.36,2.31-1.66,3.61-.46,1.73-.26,3.54-.28,5.31v.08c-2.31.08-4.62.03-6.92.05-3.43.02-6.86.02-10.29.04.09-.89.02-1.78.04-2.67.05-2.21-.66-4.43-1.94-6.23-.61-.85-1.34-1.61-2.06-2.37-.8-.88-1.58-1.78-2.41-2.63-1.64-1.77-2.69-4.09-2.86-6.5-.07-1.1,0-2.21.26-3.28.23-1.02.68-1.96,1.13-2.9,1.08-2,2.04-4.06,3.11-6.06,4.08-8.04,8.19-16.07,12.27-24.11Z"/>
      <path class="cls-3" d="M48.18,29.22c1.01,1.9,1.97,3.82,3,5.72,0,.06,0,.19,0,.26,0,4.61.03,9.21.05,13.81,0,2.05.84,4.04,2.14,5.61.66.84,1.55,1.48,2.1,2.4,1.18,1.83,1.38,4.23.52,6.23-.71,1.7-2.14,3.07-3.87,3.7-1.89.71-4.1.52-5.82-.54-1.7-1.01-2.93-2.8-3.21-4.77-.28-1.76.19-3.62,1.27-5.04.54-.75,1.31-1.29,1.89-2.01,1.2-1.4,1.99-3.2,2-5.06-.02-6.77-.05-13.54-.07-20.31Z"/>
      <path class="cls-6" d="M33.93,83.86c.19-1.27,1.33-2.34,2.63-2.38,3.43-.02,6.86-.03,10.29-.04,2.31-.03,4.62.02,6.92-.05.16-.02.33-.02.49.02.76.25,1.53.64,1.94,1.37.34.52.44,1.16.43,1.77,0,6.48.07,12.97.05,19.45-5.64.06-11.29.05-16.93.08-1.9,0-3.8.04-5.7,0-.08-2.24-.03-4.48-.05-6.72-.02-4.5-.02-8.99-.07-13.49Z"/>
      <path class="cls-5" d="M54.25,81.4c2.15-.07,4.3-.03,6.45-.05.96-.02,1.91,0,2.86.05,1.32.16,2.41,1.39,2.42,2.72.03,6.63.05,13.26.08,19.89-10.69.03-21.39.08-32.08.11-.03-6.58-.05-13.17-.08-19.75,0-.17.01-.34.02-.51.05,4.5.04,8.99.07,13.49.03,2.24-.02,4.48.05,6.72,1.9.04,3.8-.01,5.7,0,5.64-.03,11.29-.02,16.93-.08.02-6.48-.05-12.97-.05-19.45.01-.62-.09-1.25-.43-1.77-.41-.73-1.18-1.11-1.94-1.37Z"/>
    </g>
  </g>
</svg>