<?xml version="1.0" encoding="UTF-8"?>
<svg id="Capa_2" data-name="Capa 2" xmlns="http://www.w3.org/2000/svg" viewBox="0 0 155.4 131.04">
  <defs>
    <style>
      .cls-1 {
        fill: #a9a9a9;
      }
    </style>
  </defs>
  <g id="Layer_1" data-name="Layer 1">
    <path class="cls-1" d="M32.44.06c12.96.07,25.92-.19,38.88.02-8.1,11.45-16.33,22.8-24.45,34.24-.59.83-1.3,1.55-2.11,2.17C40.73,24.32,36.52,12.21,32.44.06Z"/>
    <path class="cls-1" d="M84.09.07c12.9-.06,25.79-.01,38.69,0-3.89,12.35-8.19,24.55-12.09,36.88C101.74,24.72,92.88,12.42,84.09.07Z"/>
    <path class="cls-1" d="M77.01,3.67c.33-.01.98-.03,1.31-.04,8.79,12.4,17.82,24.63,26.6,37.03-18.11.14-36.23.11-54.34.11,8.74-12.41,17.76-24.64,26.43-37.1Z"/>
    <path class="cls-1" d="M.13,40.62C9.08,28.53,17.65,16.16,26.63,4.11c4.07,12.22,8.23,24.41,12.21,36.66-12.9-.05-25.81.09-38.71-.15Z"/>
    <path class="cls-1" d="M128.84,4.1c9.06,12.01,17.58,24.44,26.56,36.52-12.89.27-25.79.07-38.69.1,3.93-12.25,8.14-24.4,12.13-36.62Z"/>
    <path class="cls-1" d="M0,48.01c13.77-.33,27.55-.01,41.32-.16,9.41,26.79,18.82,53.6,27.95,80.49-1.62-1.26-2.9-2.88-4.2-4.46C43.36,98.61,21.75,73.25,0,48.01Z"/>
    <path class="cls-1" d="M58.57,76.43c-3.12-9.55-6.86-18.9-9.71-28.52,19.27-.04,38.54-.07,57.81.01-5.14,15.81-10.93,31.41-16.22,47.17-4.41,11.93-8.06,24.17-12.8,35.95-6.48-18.16-12.68-36.42-19.08-54.61Z"/>
    <path class="cls-1" d="M86.18,128.61c9.17-26.98,18.59-53.88,28.03-80.76,13.57.09,27.14-.04,40.72.06-1.14,2.26-2.95,4.04-4.59,5.93-19.97,23.39-39.94,46.79-59.93,70.16-1.31,1.62-2.66,3.22-4.23,4.61Z"/>
  </g>
</svg>