<?xml version="1.0" encoding="utf-8"?>
<!-- Created with: Axialis IconVectors - www.axialis.com -->
<svg xmlns="http://www.w3.org/2000/svg" version="1.1" xmlns:xlink="http://www.w3.org/1999/xlink" id="Capa_2" viewBox="0 0 91 75">
  <g id="Capa_1-2">
    <path class="cls-3" fill="#636363" d="M87.6,26.8L87.6,24.7C87.6,17.8,82,12.2,75.1,12.2L41.77,12.2L39.5,5.4C38.37,2,35.18,-.3,31.59,-.3L12.6,-.3C7.99,-.3,4.27,3.43,4.27,8.03L4.27,26.8C1.29,29.04,-.43,32.82,.24,36.83L4.81,64.26C5.81,70.29,11.03,74.71,17.14,74.71L74.71,74.71C80.82,74.71,86.04,70.29,87.04,64.26L91.61,36.84C92.28,32.83,90.56,29.05,87.59,26.81z"/>
    <path class="cls-1" fill="#7D7D7D" d="M31.49,2.08c2.7,0,5.08,1.72,5.93,4.27l2.27,6.8.48,1.42h34.83c5.75,0,10.42,4.67,10.42,10.42v3.14l.83.62c2.5,1.88,3.73,4.96,3.22,8.02l-4.57,27.43c-.84,5.04-5.16,8.7-10.27,8.7H17.04c-5.11,0-9.43-3.66-10.27-8.7l-4.57-27.42c-.51-3.07.73-6.14,3.22-8.02l.83-.62V8.33c0-3.45,2.8-6.25,6.25-6.25h18.99M31.49,0H12.5C7.89,0,4.17,3.73,4.17,8.33v18.77C1.19,29.34-.53,33.12.14,37.13l4.57,27.43c1,6.03,6.22,10.45,12.33,10.45h57.57c6.11,0,11.33-4.42,12.33-10.45l4.57-27.42c.67-4.01-1.05-7.79-4.02-10.03v-2.1c0-6.9-5.6-12.5-12.5-12.5h-33.33l-2.27-6.8c-1.13-3.4-4.32-5.7-7.91-5.7h0Z"/>
    <path class="cls-2" fill="#464646" d="M10.42,25L81.25,25C83.62,25,85.77,25.79,87.5,27.1L87.5,25C87.5,18.1,81.9,12.5,75,12.5L41.67,12.5L39.4,5.7C38.27,2.3,35.08,0,31.49,0L12.5,0C7.89,0,4.17,3.73,4.17,8.33L4.17,27.1C5.9,25.79,8.05,25,10.42,25z"/>
  </g>
</svg>
