<?xml version="1.0" encoding="UTF-8"?>
<svg id="Capa_2" data-name="Capa 2" xmlns="http://www.w3.org/2000/svg" viewBox="0 0 115.2 115.12">
  <defs>
    <style>
      .cls-1 {
        fill: #113259;
      }
    </style>
  </defs>
  <g id="Layer_1" data-name="Layer 1">
    <g>
      <path class="cls-1" d="M81.27,101.49c-9.06,8.79-21.85,13.68-34.33,13.63-1.62,0-3.1-.14-4.71-.33-15.52-1.83-29.4-11.28-36.77-25.12C1.63,82.49-.11,74.53,0,66.37c.13-8.59,2.49-16.98,7.01-24.27,2.22-3.58,4.91-6.66,7.81-9.7l17.71-17.63L47.63,0l15,14.66-10.83,10.99-20.66,20.51c-1.93,1.9-3.74,3.74-5.33,5.9-5.98,8.14-6.76,19.16-2.01,28.05,4.73,8.86,14.05,14.4,24.14,14.07,7.39-.24,14.26-3.43,19.25-8.85l33.06-33.05,14.95,15.27-33.93,33.93Z"/>
      <path class="cls-1" d="M89.12,41.29l-33.87,33.78c-4.63,4.62-12.34,3.62-16.06-1.52-3.31-4.57-2.64-10.76,1.58-14.5l33.07-33.09-10.73-11.32,22.59-.1,8.65.06,5.49-.02c.46,0,.71.5.68.93l-.16,17.47-.23,18.92-11-10.63Z"/>
    </g>
  </g>
</svg>