<?xml version="1.0" encoding="utf-8"?>
<!-- Created with: Axialis IconVectors - www.axialis.com -->
<svg xmlns="http://www.w3.org/2000/svg" version="1.1" xmlns:xlink="http://www.w3.org/1999/xlink" id="Capa_2" viewBox="0 0 91 75">
  <g id="Capa_1-2"/>
  <g id="descarga">
    <path fill="currentColor" d="M15.46,26.29C6.82,22.76,2.5,20.97,2.5,18.77C2.5,16.58,6.82,14.79,15.46,11.26L27.68,6.22C36.32,2.67,40.64,.9,46,.9C51.36,.9,55.68,2.67,64.32,6.22L76.54,11.26C85.18,14.79,89.5,16.58,89.5,18.77C89.5,20.97,85.18,22.76,76.54,26.29L64.32,31.33C55.68,34.88,51.36,36.65,46,36.65C40.64,36.65,36.32,34.88,27.68,31.33z"/>
    <path fill="currentColor" fill-rule="evenodd" d="M2.1,19.19C2.1,21.38,6.42,23.17,15.06,26.71L27.28,31.74C35.92,35.29,40.24,37.06,45.6,37.06C50.96,37.06,55.28,35.29,63.92,31.74L76.14,26.71C84.78,23.17,89.1,21.38,89.1,19.19C89.1,16.99,84.78,15.2,76.14,11.67L63.92,6.63C55.28,3.08,50.96,1.31,45.6,1.31C40.24,1.31,35.92,3.08,27.28,6.63L15.06,11.67C6.42,15.2,2.1,16.99,2.1,19.19"/>
    <path opacity="0.7" fill="currentColor" d="M18.88,27.71L15.46,29.13C6.82,32.66,2.5,34.45,2.5,36.65C2.5,38.85,6.82,40.64,15.46,44.17L27.68,49.2C36.32,52.76,40.64,54.52,46,54.52C51.36,54.52,55.68,52.76,64.32,49.2L76.54,44.17C85.18,40.64,89.5,38.85,89.5,36.65C89.5,34.45,85.18,32.66,76.54,29.13L73.12,27.71L64.32,31.33C55.68,34.88,51.36,36.65,46,36.65C40.64,36.65,36.32,34.88,27.68,31.33z"/>
    <path opacity="0.4" fill="currentColor" d="M18.88,45.59L15.46,47.01C6.82,50.54,2.5,52.33,2.5,54.52C2.5,56.72,6.82,58.51,15.46,62.04L27.68,67.08C36.32,70.63,40.64,72.4,46,72.4C51.36,72.4,55.68,70.63,64.32,67.08L76.54,62.04C85.18,58.51,89.5,56.72,89.5,54.52C89.5,52.33,85.18,50.54,76.54,47.01L73.12,45.59L64.32,49.2C55.68,52.76,51.36,54.52,46,54.52C40.64,54.52,36.32,52.76,27.68,49.2z"/>
  </g>
</svg>
