<?xml version="1.0" encoding="UTF-8"?>
<svg id="Capa_2" data-name="Capa 2" xmlns="http://www.w3.org/2000/svg" xmlns:xlink="http://www.w3.org/1999/xlink" viewBox="0 0 503.93 102.97">
  <defs>
    <style>
      .cls-1 {
        opacity: .92;
      }

      .cls-2 {
        opacity: .3;
      }

      .cls-2, .cls-3 {
        fill: url(#Degradado_sin_nombre_272);
      }

      .cls-4 {
        fill: url(#Degradado_sin_nombre_272-2);
      }
    </style>
    <linearGradient id="Degradado_sin_nombre_272" data-name="Degradado sin nombre 272" x1="0" y1="51.49" x2="503.93" y2="51.49" gradientUnits="userSpaceOnUse">
      <stop offset="0" stop-color="#371225"/>
      <stop offset=".45" stop-color="#66586e"/>
      <stop offset=".58" stop-color="#62566e"/>
      <stop offset=".7" stop-color="#56536e"/>
      <stop offset=".83" stop-color="#434c6e"/>
      <stop offset=".95" stop-color="#28446f"/>
      <stop offset="1" stop-color="#1b4070"/>
    </linearGradient>
    <linearGradient id="Degradado_sin_nombre_272-2" data-name="Degradado sin nombre 272" x1=".46" x2="503.47" xlink:href="#Degradado_sin_nombre_272"/>
  </defs>
  <g id="Capa_1-2" data-name="Capa 1">
    <g>
      <g class="cls-1">
        <g>
          <rect class="cls-3" x="0" y="0" width="503.93" height="102.97" rx="36.86" ry="36.86"/>
          <rect class="cls-2" x="0" y="0" width="503.93" height="102.97" rx="36.86" ry="36.86"/>
        </g>
      </g>
      <path class="cls-4" d="M37.25.09h429.44c20.32,0,36.79,16.47,36.79,36.79v29.21c0,20.32-16.47,36.79-36.79,36.79-4.54-12.9-8.77-31.12-5.81-52.01,3.15-22.2,12.79-35.88,9.11-38.41-4.33-2.97-23.76,11.77-36.13,31.58-8.07,12.91-8.61,20.72-13.51,21.25-12.06,1.3-22.96-44.44-32.94-42.96-8.85,1.31-5.83,38.05-19.43,41.9-10.2,2.89-19.26-15.66-29.6-12.75-12.73,3.58-8.01,34.21-18.52,38.11-19.08,7.06-64.46-82.73-77.73-77.12-9.86,4.17,5.76,57.69-3.64,60.88-2.53.86-5.68-2.35-15.49-13.51-26.77-30.47-31.87-39.06-37.04-37.95-10.29,2.19-4.89,39.25-18.83,43.88-10.44,3.46-20.67-14.95-31.27-11.23-12.26,4.29-7.01,31.83-17,34.92-11.31,3.5-37.84-25.61-50.25-50.25-1.57-3.11-7.91-16.08-21.41-23.38-3.85-2.08-8.03-4.34-10.32-2.73-8.13,5.71,19.58,51.43,9.56,59.36-4.4,3.49-12.6-3.09-16.55.61-4.36,4.09.61,16.86,7.39,29.84-2.45,0-15.48-.24-26.01-10.78C4.58,85.44.46,76.25.46,66.09v-29.21C.46,16.56,16.93.09,37.25.09Z"/>
    </g>
  </g>
</svg>