<?xml version="1.0" encoding="UTF-8"?>
<svg id="Capa_2" data-name="Capa 2" xmlns="http://www.w3.org/2000/svg" viewBox="0 0 846.37 841.18">
  <defs>
    <style>
      .cls-1 {
        fill: #fff;
      }
    </style>
  </defs>
  <g id="Layer_1" data-name="Layer 1">
    <g>
      <rect class="cls-1" width="846.37" height="841.18" rx="99.95" ry="99.95"/>
      <g>
        <path d="M119.1,83.7c2.5-.47,5.04-.63,7.57-.64,36.02.02,72.04,0,108.06.02,7.8.06,15.54,2.52,22.01,6.87,11.23,7.36,18.25,20.69,17.96,34.11-.02,36.01,0,72.03-.01,108.04-.02,11.41-5.34,22.61-13.92,30.07-7.19,6.16-16.53,9.9-26.04,9.9h-109.07c-10.94-.01-21.66-4.93-29.1-12.87-7-7.55-11.04-17.79-10.88-28.1.04-36.37-.04-72.74.05-109.1.39-18.52,15.11-35.35,33.37-38.3ZM122.11,110.69c-5.57,1.78-9.7,7.4-9.42,13.29v107.17c-.39,7.12,5.79,13.85,12.94,13.9,35.36.06,70.73-.02,106.09.04,2.39-.03,4.89.11,7.15-.82,5.3-1.96,9.15-7.43,8.83-13.13-.04-36.05.03-72.11-.03-108.17-.07-7.13-6.8-13.29-13.89-12.9h-107.17c-1.52.02-3.05.13-4.5.62Z"/>
        <path d="M605.1,83.7c2.49-.47,5.03-.63,7.57-.64,36.02.02,72.04,0,108.06.02,9.97.06,19.78,4.11,27.08,10.85,7.95,7.44,12.86,18.16,12.88,29.09v109.09c0,9.51-3.74,18.85-9.9,26.05-7.68,8.84-19.34,14.18-31.09,13.92-36.01-.02-72.03,0-108.04-.01-8.56-.01-17.01-3.03-23.83-8.15-9.9-7.35-16.05-19.48-16.13-31.81-.03-35.34.01-70.69-.02-106.04-.18-5.86.6-11.79,2.8-17.25,4.96-12.93,16.97-22.78,30.62-25.12ZM608.11,110.69c-5.57,1.78-9.71,7.4-9.42,13.3v107.16c-.39,7.12,5.79,13.85,12.94,13.9,36.04.05,72.09,0,108.13.03,7.51.47,14.41-6.43,13.94-13.94-.04-36.05.03-72.11-.03-108.17-.07-7.13-6.8-13.29-13.9-12.9h-107.16c-1.53.02-3.06.13-4.5.62Z"/>
        <path d="M449.91,84.25c3.82,1.46,7.18,4.02,10.78,5.97.01,4.23.02,8.45,0,12.68-3.56,2.03-7.08,4.13-10.66,6.11-3.43-2.16-6.98-4.11-10.48-6.15-.04-4.2-.04-8.4,0-12.6,3.45-2.01,6.83-4.13,10.36-6.01Z"/>
        <path d="M341.89,111.27c3.84,1.41,7.19,4.01,10.8,5.95.02,4.23.02,8.45,0,12.67-3.56,2.04-7.08,4.14-10.66,6.12-3.43-2.16-6.98-4.11-10.48-6.15-.03-4.2-.04-8.4,0-12.6,3.44-2.01,6.82-4.13,10.34-5.99Z"/>
        <path d="M368.89,111.28c3.84,1.38,7.19,4.01,10.8,5.94.02,4.23.02,8.45,0,12.67-3.56,2.04-7.07,4.13-10.65,6.12-3.44-2.16-6.99-4.11-10.49-6.15-.04-4.2-.04-8.4,0-12.6,3.44-2,6.81-4.13,10.34-5.98Z"/>
        <path d="M395.89,111.28c3.83,1.38,7.19,4.01,10.8,5.94.02,4.23.02,8.45,0,12.67-3.56,2.04-7.07,4.13-10.65,6.12-3.43-2.16-6.99-4.11-10.49-6.15-.04-4.2-.04-8.4,0-12.61,3.44-1.99,6.81-4.12,10.34-5.97Z"/>
        <path d="M422.9,111.26c3.83,1.43,7.19,4.02,10.79,5.96.02,4.23.02,8.45,0,12.67-3.55,2.04-7.07,4.13-10.65,6.12-3.43-2.16-6.99-4.11-10.49-6.15-.04-4.2-.04-8.4,0-12.61,3.44-2,6.82-4.12,10.35-5.99Z"/>
        <path d="M449.9,111.26c3.83,1.43,7.19,4.02,10.79,5.96.02,4.23.02,8.45,0,12.67-3.55,2.04-7.07,4.13-10.65,6.12-3.43-2.16-6.99-4.11-10.49-6.15-.04-4.2-.04-8.4,0-12.6,3.44-2.01,6.83-4.13,10.35-6Z"/>
        <path d="M476.91,111.25c3.82,1.46,7.18,4.02,10.78,5.97.02,4.23.02,8.45,0,12.67-3.56,2.04-7.08,4.13-10.66,6.12-3.43-2.16-6.98-4.11-10.48-6.15-.04-4.2-.04-8.4,0-12.61,3.45-2,6.83-4.12,10.36-6Z"/>
        <path d="M503.9,111.27c3.83,1.41,7.18,4.01,10.79,5.95.02,4.23.02,8.45,0,12.67-3.56,2.04-7.07,4.13-10.65,6.12-3.43-2.16-6.99-4.11-10.49-6.15-.04-4.2-.04-8.4,0-12.6,3.44-2.01,6.82-4.13,10.35-5.99Z"/>
        <path d="M149.12,137.7c2.1-.71,4.35-.63,6.55-.65,17.37.07,34.74-.04,52.11.05,6.74.11,12.81,6.12,12.88,12.88.07,18.05,0,36.11.04,54.16.43,7.13-5.8,13.87-12.95,13.91-18.37.04-36.75.04-55.12,0-7.15-.06-13.32-6.79-12.94-13.9v-53.17c-.28-5.89,3.86-11.51,9.43-13.28Z"/>
        <path d="M635.11,137.7c2.11-.71,4.36-.63,6.56-.65,17.37.07,34.75-.04,52.12.05,7.12.11,13.33,6.78,12.9,13.89-.02,18.05.04,36.09-.02,54.14-.05,7.15-6.78,13.38-13.91,12.95-18.04-.03-36.09.03-54.13-.03-7.15-.06-13.33-6.79-12.94-13.9v-53.16c-.28-5.9,3.85-11.52,9.42-13.29Z"/>
        <path d="M314.88,138.28c3.84,1.37,7.2,4.01,10.81,5.94.02,4.23.02,8.45,0,12.68-3.65,1.83-6.97,4.54-10.8,5.89-3.51-1.87-6.87-4-10.34-5.93-.04-4.2-.04-8.4,0-12.6,3.44-2,6.81-4.13,10.33-5.98Z"/>
        <path d="M341.91,138.25c3.82,1.47,7.18,4.01,10.78,5.97.02,4.22.02,8.45,0,12.67-3.56,2.04-7.07,4.13-10.66,6.12-3.43-2.16-6.98-4.11-10.48-6.15-.04-4.2-.04-8.4,0-12.6,3.45-2.01,6.84-4.13,10.36-6.01Z"/>
        <path d="M395.9,138.26c3.83,1.44,7.19,4.02,10.79,5.96.01,4.23.02,8.45,0,12.67-3.55,2.04-7.07,4.13-10.65,6.12-3.43-2.16-6.99-4.11-10.49-6.15-.04-4.2-.04-8.4,0-12.6,3.44-2.01,6.83-4.13,10.35-6Z"/>
        <path d="M503.9,138.27c3.83,1.41,7.18,4.01,10.79,5.95.02,4.22.02,8.45,0,12.67-3.55,2.04-7.07,4.13-10.65,6.12-3.43-2.16-6.99-4.11-10.49-6.15-.04-4.2-.04-8.4,0-12.61,3.44-2,6.82-4.12,10.35-5.98Z"/>
        <path d="M314.91,165.26c3.82,1.45,7.18,4.01,10.78,5.96.02,4.22.02,8.45,0,12.67-3.56,2.04-7.07,4.13-10.65,6.12-3.44-2.16-6.99-4.11-10.49-6.15-.04-4.2-.04-8.4,0-12.6,3.45-2.01,6.83-4.13,10.36-6Z"/>
        <path d="M368.89,165.27c3.84,1.4,7.19,4.02,10.8,5.95.01,4.23.02,8.45,0,12.67-3.56,2.04-7.07,4.13-10.66,6.12-3.43-2.16-6.98-4.11-10.48-6.15-.03-4.2-.04-8.4,0-12.61,3.44-2,6.82-4.12,10.34-5.98Z"/>
        <path d="M422.9,165.26c3.83,1.43,7.19,4.02,10.79,5.96.02,4.23.02,8.45,0,12.67-3.56,2.04-7.07,4.13-10.65,6.12-3.44-2.16-6.99-4.11-10.49-6.15-.04-4.2-.04-8.4,0-12.6,3.44-2.01,6.82-4.13,10.35-6Z"/>
        <path d="M449.89,165.27c3.84,1.41,7.19,4.01,10.8,5.95.02,4.23.02,8.45,0,12.68-3.56,2.03-7.08,4.13-10.66,6.11-3.43-2.16-6.98-4.11-10.48-6.15-.04-4.2-.04-8.4,0-12.6,3.44-2.01,6.82-4.13,10.34-5.99Z"/>
        <path d="M476.9,165.27c3.83,1.41,7.18,4.01,10.79,5.95.02,4.22.02,8.45,0,12.67-3.56,2.04-7.08,4.13-10.66,6.12-3.43-2.16-6.98-4.11-10.48-6.15-.04-4.2-.04-8.4,0-12.6,3.44-2.01,6.82-4.13,10.35-5.99Z"/>
        <path d="M503.88,165.28c3.84,1.37,7.2,4.02,10.81,5.94.01,4.23.02,8.45,0,12.67-3.56,2.04-7.08,4.13-10.66,6.12-3.43-2.16-6.98-4.11-10.48-6.15-.04-4.2-.04-8.4,0-12.61,3.44-1.99,6.81-4.12,10.33-5.97Z"/>
        <path d="M530.89,165.28c3.83,1.37,7.19,4.01,10.8,5.94.01,4.23.02,8.45,0,12.67-3.56,2.04-7.08,4.14-10.66,6.12-3.43-2.16-6.98-4.11-10.48-6.15-.04-4.2-.04-8.4,0-12.61,3.44-1.99,6.81-4.12,10.34-5.97Z"/>
        <path d="M314.91,192.25c3.82,1.47,7.18,4.01,10.78,5.97.02,4.23.02,8.45,0,12.67-3.56,2.04-7.08,4.14-10.66,6.12-3.43-2.16-6.98-4.11-10.48-6.15-.03-4.2-.04-8.4,0-12.61,3.45-2,6.84-4.12,10.36-6Z"/>
        <path d="M422.89,192.27c3.84,1.4,7.19,4.02,10.8,5.95.02,4.22.02,8.45,0,12.67-3.55,2.04-7.07,4.13-10.65,6.12-3.43-2.16-6.99-4.11-10.49-6.15-.04-4.2-.04-8.4,0-12.61,3.44-2,6.82-4.12,10.34-5.98Z"/>
        <path d="M530.88,192.28c3.84,1.37,7.2,4.01,10.81,5.94.01,4.22.02,8.45,0,12.67-3.56,2.04-7.08,4.13-10.66,6.12-3.43-2.16-6.98-4.11-10.48-6.15-.04-4.2-.04-8.4,0-12.6,3.44-2,6.81-4.13,10.33-5.98Z"/>
        <path d="M361.05,205.47c7.31-3.85,14.19-8.55,21.62-12.16,7.35,3.75,14.29,8.31,21.57,12.21,0,8.31.06,16.62-.03,24.93-7.22,4.05-14.32,8.3-21.54,12.34-7.3-3.89-14.29-8.32-21.58-12.23-.14-8.36-.06-16.73-.04-25.09Z"/>
        <path d="M314.91,219.25c3.82,1.46,7.18,4.02,10.78,5.97.02,4.22.02,8.45,0,12.67-3.55,2.04-7.07,4.13-10.65,6.12-3.43-2.16-6.99-4.11-10.49-6.15-.03-4.2-.04-8.4,0-12.61,3.45-2,6.83-4.12,10.36-6Z"/>
        <path d="M449.88,219.28c3.84,1.36,7.2,4.02,10.81,5.94.02,4.22.02,8.45,0,12.67-3.55,2.04-7.07,4.13-10.65,6.12-3.43-2.16-6.99-4.11-10.49-6.15-.04-4.2-.04-8.4,0-12.61,3.44-1.99,6.8-4.12,10.33-5.97Z"/>
        <path d="M503.9,219.26c3.83,1.43,7.19,4.02,10.79,5.96.01,4.23.02,8.45,0,12.67-3.56,2.04-7.08,4.14-10.66,6.12-3.43-2.16-6.98-4.11-10.48-6.15-.04-4.2-.04-8.4,0-12.61,3.44-2,6.82-4.12,10.35-5.99Z"/>
        <path d="M530.88,219.29c3.84,1.34,7.19,4.01,10.81,5.93.02,4.22.02,8.45,0,12.67-3.56,2.04-7.08,4.13-10.65,6.12-3.43-2.16-6.99-4.11-10.49-6.15-.04-4.2-.04-8.4,0-12.6,3.44-2,6.8-4.13,10.33-5.97Z"/>
        <path d="M314.9,246.27c3.83,1.41,7.19,4.01,10.79,5.95.02,4.23.02,8.45,0,12.67-3.56,2.04-7.07,4.13-10.66,6.12-3.43-2.16-6.98-4.11-10.48-6.15-.04-4.2-.04-8.4,0-12.6,3.44-2.01,6.82-4.13,10.35-5.99Z"/>
        <path d="M368.89,246.27c3.84,1.41,7.19,4.01,10.8,5.95.02,4.22.02,8.45,0,12.67-3.56,2.04-7.08,4.14-10.66,6.12-3.43-2.16-6.98-4.11-10.48-6.15-.04-4.2-.04-8.4,0-12.6,3.44-2.01,6.82-4.13,10.34-5.99Z"/>
        <path d="M422.9,246.26c3.83,1.44,7.19,4.01,10.79,5.96.02,4.23.02,8.45,0,12.67-3.56,2.04-7.08,4.13-10.66,6.12-3.43-2.16-6.98-4.11-10.48-6.15-.04-4.2-.04-8.4,0-12.6,3.44-2.01,6.83-4.13,10.35-6Z"/>
        <path d="M476.9,246.27c3.83,1.42,7.19,4.01,10.79,5.95.01,4.23.02,8.45,0,12.67-3.56,2.04-7.08,4.14-10.66,6.12-3.43-2.16-6.98-4.11-10.48-6.15-.04-4.2-.04-8.4,0-12.6,3.44-2.01,6.82-4.13,10.35-5.99Z"/>
        <path d="M530.91,246.25c3.82,1.46,7.18,4.02,10.78,5.97.02,4.22.02,8.45,0,12.67-3.56,2.04-7.08,4.14-10.66,6.12-3.43-2.16-6.98-4.11-10.48-6.15-.04-4.2-.04-8.4,0-12.6,3.45-2.01,6.83-4.13,10.36-6.01Z"/>
        <path d="M314.9,273.27c3.83,1.42,7.19,4.01,10.79,5.95.02,4.22.02,8.45,0,12.67-3.56,2.04-7.07,4.13-10.66,6.12-3.43-2.16-6.98-4.11-10.48-6.15-.03-4.2-.04-8.4,0-12.61,3.44-2,6.82-4.12,10.35-5.98Z"/>
        <path d="M476.9,273.27c3.83,1.41,7.18,4.01,10.79,5.95.02,4.23.02,8.45,0,12.67-3.56,2.04-7.07,4.13-10.65,6.12-3.44-2.16-6.99-4.11-10.49-6.15-.04-4.2-.04-8.4,0-12.61,3.44-2,6.82-4.12,10.35-5.98Z"/>
        <path d="M503.91,273.25c3.82,1.47,7.18,4.01,10.78,5.97.02,4.22.02,8.45,0,12.67-3.56,2.04-7.08,4.13-10.65,6.12-3.44-2.16-6.99-4.11-10.49-6.15-.04-4.2-.04-8.4,0-12.6,3.45-2.01,6.84-4.13,10.36-6.01Z"/>
        <path d="M334.05,286.46c7.32-3.84,14.2-8.54,21.62-12.15,7.35,3.75,14.28,8.31,21.57,12.21,0,8.31.06,16.62-.04,24.93-7.21,4.05-14.31,8.3-21.53,12.35-7.3-3.9-14.29-8.33-21.58-12.24-.14-8.36-.06-16.73-.04-25.1Z"/>
        <path d="M98.9,300.27c3.83,1.41,7.19,4.01,10.79,5.95.02,4.23.02,8.45,0,12.67-3.55,2.04-7.07,4.13-10.65,6.12-3.43-2.16-6.99-4.11-10.49-6.15-.03-4.2-.04-8.4,0-12.6,3.44-2.01,6.82-4.13,10.35-5.99Z"/>
        <path d="M206.9,300.26c3.83,1.43,7.19,4.02,10.79,5.96.02,4.23.02,8.45,0,12.67-3.55,2.04-7.07,4.13-10.65,6.12-3.43-2.16-6.99-4.11-10.49-6.15-.03-4.2-.04-8.4,0-12.6,3.44-2.01,6.82-4.13,10.35-6Z"/>
        <path d="M233.92,300.24c3.81,1.5,7.18,4.02,10.77,5.98.02,4.23.02,8.45,0,12.67-3.56,2.04-7.08,4.14-10.66,6.12-3.43-2.16-6.98-4.11-10.48-6.15-.03-4.2-.04-8.41,0-12.61,3.45-2.01,6.85-4.13,10.37-6.01Z"/>
        <path d="M260.89,300.27c3.84,1.4,7.19,4.02,10.8,5.95.02,4.23.02,8.45,0,12.67-3.56,2.04-7.07,4.13-10.66,6.12-3.43-2.16-6.98-4.11-10.48-6.15-.03-4.2-.04-8.4,0-12.6,3.44-2.01,6.82-4.13,10.34-5.99Z"/>
        <path d="M422.89,300.27c3.84,1.39,7.19,4.02,10.8,5.95.02,4.22.02,8.45,0,12.67-3.55,2.04-7.07,4.13-10.65,6.12-3.43-2.16-6.99-4.11-10.49-6.15-.04-4.2-.04-8.41,0-12.61,3.44-2,6.81-4.12,10.34-5.98Z"/>
        <path d="M449.89,300.27c3.84,1.4,7.19,4.02,10.8,5.95.01,4.23.02,8.45,0,12.67-3.56,2.04-7.08,4.14-10.66,6.12-3.43-2.16-6.98-4.11-10.48-6.15-.04-4.2-.04-8.4,0-12.6,3.44-2.01,6.82-4.13,10.34-5.99Z"/>
        <path d="M476.91,300.25c3.82,1.46,7.18,4.02,10.78,5.97.01,4.23.02,8.45,0,12.67-3.55,2.04-7.07,4.13-10.65,6.12-3.44-2.16-6.99-4.11-10.49-6.15-.04-4.2-.04-8.4,0-12.6,3.45-2.01,6.83-4.13,10.36-6.01Z"/>
        <path d="M584.89,300.27c3.84,1.4,7.19,4.02,10.8,5.95.01,4.23.02,8.45,0,12.67-3.56,2.04-7.08,4.13-10.66,6.12-3.43-2.16-6.98-4.11-10.48-6.15-.04-4.2-.04-8.4,0-12.6,3.44-2.01,6.81-4.13,10.34-5.99Z"/>
        <path d="M611.91,300.25c3.82,1.47,7.18,4.01,10.78,5.97.01,4.22.02,8.45,0,12.67-3.56,2.04-7.08,4.13-10.65,6.12-3.44-2.16-6.99-4.11-10.49-6.15-.04-4.2-.04-8.4,0-12.6,3.45-2.02,6.84-4.13,10.36-6.01Z"/>
        <path d="M638.89,300.27c3.84,1.4,7.19,4.01,10.8,5.95.01,4.23.02,8.45,0,12.67-3.56,2.04-7.08,4.13-10.65,6.12-3.44-2.16-6.99-4.11-10.49-6.15-.04-4.2-.04-8.4,0-12.61,3.44-2,6.82-4.12,10.34-5.98Z"/>
        <path d="M665.9,300.26c3.83,1.43,7.18,4.01,10.79,5.96.01,4.22.02,8.45,0,12.67-3.56,2.04-7.08,4.13-10.66,6.12-3.43-2.16-6.98-4.11-10.48-6.15-.04-4.2-.04-8.4,0-12.6,3.44-2.01,6.82-4.13,10.35-6Z"/>
        <path d="M692.89,300.28c3.83,1.38,7.19,4.01,10.8,5.94.01,4.23.02,8.45,0,12.67-3.56,2.04-7.08,4.13-10.66,6.12-3.43-2.16-6.98-4.11-10.48-6.15-.04-4.2-.04-8.41,0-12.61,3.44-2,6.81-4.12,10.34-5.97Z"/>
        <path d="M145.05,313.46c7.31-3.84,14.19-8.54,21.62-12.15,7.35,3.75,14.28,8.31,21.57,12.21,0,8.31.06,16.62-.04,24.93-7.21,4.05-14.31,8.3-21.53,12.34-7.3-3.88-14.29-8.32-21.58-12.23-.13-8.36-.06-16.73-.04-25.1Z"/>
        <path d="M98.88,327.28c3.84,1.37,7.2,4.01,10.81,5.94.02,4.23.02,8.45,0,12.67-3.55,2.04-7.07,4.13-10.65,6.12-3.43-2.16-6.99-4.11-10.49-6.15-.03-4.2-.04-8.4,0-12.6,3.44-2,6.81-4.13,10.33-5.98Z"/>
        <path d="M125.91,327.25c3.82,1.46,7.18,4.02,10.78,5.97.02,4.22.02,8.45,0,12.67-3.55,2.04-7.07,4.13-10.66,6.12-3.43-2.16-6.98-4.11-10.48-6.15-.03-4.2-.04-8.41,0-12.61,3.45-2,6.83-4.12,10.36-6Z"/>
        <path d="M233.88,327.29c3.84,1.34,7.2,4.01,10.81,5.93.02,4.22.02,8.45,0,12.68-3.56,2.03-7.08,4.13-10.66,6.11-3.43-2.16-6.98-4.11-10.48-6.15-.03-4.2-.04-8.4,0-12.6,3.44-2,6.8-4.13,10.33-5.97Z"/>
        <path d="M287.89,327.28c3.84,1.38,7.19,4.01,10.8,5.94.02,4.23.02,8.45,0,12.67-3.55,2.04-7.07,4.13-10.65,6.12-3.43-2.16-6.99-4.11-10.49-6.15-.03-4.2-.04-8.4,0-12.6,3.44-2.01,6.81-4.13,10.34-5.98Z"/>
        <path d="M395.92,327.24c3.81,1.5,7.18,4.01,10.77,5.98.02,4.23.02,8.45,0,12.68-3.65,1.84-6.96,4.51-10.79,5.9-3.51-1.88-6.88-4-10.35-5.94-.04-4.2-.04-8.4,0-12.6,3.45-2.02,6.84-4.13,10.37-6.02Z"/>
        <path d="M449.9,327.27c3.83,1.41,7.18,4.01,10.79,5.95.02,4.22.02,8.45,0,12.67-3.56,2.04-7.08,4.13-10.66,6.12-3.43-2.16-6.98-4.11-10.48-6.15-.04-4.2-.04-8.41,0-12.61,3.44-2,6.82-4.12,10.35-5.98Z"/>
        <path d="M530.91,327.25c3.82,1.46,7.18,4.02,10.78,5.97.01,4.22.02,8.45,0,12.67-3.56,2.04-7.08,4.14-10.66,6.12-3.43-2.16-6.98-4.11-10.48-6.15-.04-4.2-.04-8.4,0-12.6,3.44-2.01,6.83-4.13,10.36-6.01Z"/>
        <path d="M611.88,327.28c3.84,1.36,7.2,4.02,10.81,5.94.01,4.22.02,8.45,0,12.67-3.56,2.04-7.08,4.14-10.66,6.12-3.43-2.16-6.98-4.11-10.48-6.15-.04-4.2-.04-8.4,0-12.6,3.44-2,6.8-4.13,10.33-5.98Z"/>
        <path d="M719.89,327.27c3.83,1.39,7.19,4.02,10.8,5.95.01,4.23.02,8.45,0,12.67-3.56,2.04-7.08,4.13-10.65,6.12-3.44-2.16-6.99-4.11-10.49-6.15-.04-4.2-.04-8.4,0-12.6,3.44-2.01,6.81-4.13,10.34-5.99Z"/>
        <path d="M179.89,354.27c3.84,1.4,7.19,4.01,10.8,5.95.02,4.22.02,8.45,0,12.67-3.55,2.04-7.07,4.13-10.65,6.12-3.43-2.16-6.99-4.11-10.49-6.15-.03-4.2-.04-8.4,0-12.6,3.44-2.01,6.82-4.13,10.34-5.99Z"/>
        <path d="M260.87,354.29c3.85,1.33,7.2,4.02,10.82,5.93.02,4.22.02,8.45,0,12.67-3.55,2.04-7.07,4.13-10.65,6.12-3.43-2.16-6.99-4.11-10.49-6.15-.03-4.2-.04-8.4,0-12.6,3.44-2,6.8-4.13,10.32-5.97Z"/>
        <path d="M287.9,354.26c3.83,1.43,7.19,4.02,10.79,5.96.02,4.22.02,8.45,0,12.67-3.56,2.04-7.07,4.13-10.65,6.12-3.43-2.16-6.99-4.11-10.49-6.15-.04-4.2-.04-8.4,0-12.6,3.44-2.01,6.82-4.13,10.35-6Z"/>
        <path d="M422.91,354.25c3.82,1.48,7.18,4.01,10.78,5.97.02,4.22.02,8.45,0,12.67-3.55,2.04-7.07,4.13-10.65,6.12-3.43-2.16-6.99-4.11-10.49-6.15-.04-4.2-.04-8.4,0-12.6,3.45-2.02,6.84-4.13,10.36-6.01Z"/>
        <path d="M449.89,354.27c3.84,1.4,7.19,4.01,10.8,5.95.02,4.22.02,8.45,0,12.67-3.56,2.04-7.08,4.13-10.66,6.12-3.43-2.16-6.98-4.11-10.48-6.15-.03-4.2-.04-8.41,0-12.61,3.44-2,6.82-4.12,10.34-5.98Z"/>
        <path d="M476.91,354.25c3.82,1.46,7.18,4.02,10.78,5.97.02,4.22.02,8.45,0,12.67-3.56,2.04-7.08,4.13-10.66,6.12-3.43-2.16-6.98-4.11-10.48-6.15-.04-4.2-.04-8.4,0-12.6,3.45-2.01,6.83-4.13,10.36-6.01Z"/>
        <path d="M503.89,354.27c3.84,1.4,7.19,4.02,10.8,5.95.01,4.23.02,8.45,0,12.67-3.56,2.04-7.08,4.13-10.65,6.12-3.44-2.16-6.99-4.11-10.49-6.15-.03-4.2-.04-8.41,0-12.61,3.44-2,6.82-4.12,10.34-5.98Z"/>
        <path d="M557.9,354.26c3.83,1.44,7.19,4.01,10.79,5.96.01,4.22.02,8.45,0,12.67-3.55,2.04-7.07,4.13-10.65,6.12-3.43-2.16-6.99-4.11-10.49-6.15-.04-4.2-.04-8.4,0-12.6,3.44-2.01,6.83-4.13,10.35-6Z"/>
        <path d="M611.9,354.26c3.83,1.43,7.18,4.02,10.79,5.96.01,4.23.02,8.45,0,12.67-3.66,1.83-6.98,4.58-10.81,5.89-3.51-1.86-6.86-3.99-10.33-5.92-.04-4.2-.04-8.41,0-12.61,3.44-2,6.82-4.12,10.35-5.99Z"/>
        <path d="M665.92,354.24c3.81,1.5,7.17,4.02,10.77,5.98.01,4.22.02,8.45,0,12.67-3.56,2.04-7.08,4.13-10.66,6.12-3.43-2.16-6.98-4.11-10.48-6.15-.04-4.2-.04-8.4,0-12.6,3.45-2.02,6.84-4.13,10.37-6.02Z"/>
        <path d="M719.9,354.26c3.83,1.44,7.19,4.01,10.79,5.96.01,4.22.02,8.45,0,12.67-3.56,2.04-7.08,4.14-10.66,6.12-3.43-2.16-6.98-4.11-10.48-6.15-.04-4.2-.04-8.4,0-12.6,3.44-2.01,6.83-4.13,10.35-6Z"/>
        <path d="M746.91,354.25c3.82,1.46,7.18,4.02,10.78,5.97.01,4.22.02,8.45,0,12.67-3.56,2.04-7.08,4.14-10.66,6.12-3.43-2.16-6.98-4.11-10.48-6.15-.04-4.2-.04-8.4,0-12.6,3.44-2.01,6.83-4.13,10.36-6.01Z"/>
        <path d="M125.89,381.28c3.83,1.37,7.19,4.01,10.8,5.94.02,4.22.02,8.45,0,12.67-3.56,2.04-7.07,4.13-10.65,6.12-3.43-2.16-6.99-4.11-10.49-6.15-.03-4.2-.04-8.4,0-12.6,3.44-2,6.81-4.13,10.34-5.98Z"/>
        <path d="M152.91,381.25c3.82,1.47,7.18,4.01,10.78,5.97.02,4.22.02,8.45,0,12.67-3.56,2.04-7.07,4.13-10.66,6.12-3.43-2.16-6.98-4.11-10.48-6.15-.03-4.2-.04-8.4,0-12.6,3.45-2.01,6.84-4.13,10.36-6.01Z"/>
        <path d="M314.89,381.27c3.84,1.4,7.19,4.01,10.8,5.95.02,4.23.02,8.45,0,12.68-3.56,2.03-7.08,4.12-10.66,6.11-3.43-2.16-6.98-4.11-10.48-6.15-.03-4.2-.04-8.41,0-12.61,3.44-2,6.82-4.12,10.34-5.98Z"/>
        <path d="M341.89,381.27c3.84,1.41,7.19,4.01,10.8,5.95.02,4.23.02,8.45,0,12.67-3.56,2.04-7.08,4.13-10.66,6.12-3.43-2.16-6.98-4.11-10.48-6.15-.04-4.2-.04-8.4,0-12.6,3.44-2.01,6.82-4.13,10.34-5.99Z"/>
        <path d="M368.89,381.27c3.84,1.39,7.19,4.02,10.8,5.95.02,4.22.02,8.45,0,12.67-3.56,2.04-7.07,4.13-10.65,6.12-3.44-2.16-6.99-4.11-10.49-6.15-.04-4.2-.04-8.4,0-12.6,3.44-2.01,6.81-4.13,10.34-5.99Z"/>
        <path d="M476.89,381.28c3.83,1.37,7.19,4.01,10.8,5.94.01,4.22.02,8.45,0,12.67-3.56,2.04-7.08,4.13-10.66,6.12-3.43-2.16-6.98-4.11-10.48-6.15-.04-4.2-.04-8.4,0-12.6,3.44-2,6.81-4.13,10.34-5.98Z"/>
        <path d="M530.9,381.27c3.83,1.41,7.18,4.01,10.79,5.95.01,4.22.02,8.45,0,12.67-3.56,2.04-7.08,4.13-10.65,6.12-3.44-2.16-6.99-4.11-10.49-6.15-.04-4.2-.04-8.4,0-12.6,3.44-2.01,6.82-4.13,10.35-5.99Z"/>
        <path d="M611.88,381.29c3.84,1.34,7.19,4.01,10.81,5.93.01,4.22.02,8.45,0,12.67-3.56,2.04-7.08,4.14-10.66,6.12-3.43-2.16-6.98-4.11-10.48-6.15-.04-4.2-.04-8.4,0-12.6,3.44-2,6.8-4.13,10.33-5.97Z"/>
        <path d="M746.9,381.26c3.83,1.44,7.19,4.01,10.79,5.96.01,4.22.02,8.45,0,12.67-3.56,2.04-7.08,4.13-10.66,6.12-3.43-2.16-6.98-4.11-10.48-6.15-.04-4.2-.04-8.41,0-12.61,3.44-2,6.83-4.12,10.35-5.99Z"/>
        <path d="M125.92,408.25c3.81,1.48,7.17,4.01,10.77,5.97.02,4.22.02,8.45,0,12.67-3.56,2.04-7.07,4.14-10.66,6.12-3.43-2.16-6.98-4.11-10.48-6.15-.03-4.2-.04-8.41,0-12.61,3.45-2.01,6.84-4.12,10.37-6Z"/>
        <path d="M206.89,408.27c3.84,1.4,7.19,4.01,10.8,5.95.02,4.22.02,8.45,0,12.67-3.56,2.04-7.07,4.13-10.66,6.12-3.43-2.16-6.98-4.11-10.48-6.15-.03-4.2-.04-8.4,0-12.6,3.44-2.01,6.82-4.13,10.34-5.99Z"/>
        <path d="M260.9,408.26c3.83,1.44,7.19,4.01,10.79,5.96.02,4.23.02,8.45,0,12.68-3.65,1.84-6.97,4.53-10.8,5.9-3.5-1.88-6.87-4.01-10.34-5.94-.04-4.2-.04-8.4,0-12.6,3.45-2.01,6.83-4.13,10.35-6Z"/>
        <path d="M287.9,408.26c3.83,1.43,7.19,4.01,10.79,5.96.02,4.23.02,8.45,0,12.67-3.65,1.84-6.97,4.55-10.8,5.9-3.51-1.87-6.87-4-10.34-5.93-.04-4.2-.04-8.4,0-12.6,3.44-2.01,6.83-4.13,10.35-6Z"/>
        <path d="M314.89,408.27c3.84,1.4,7.19,4.02,10.8,5.95.02,4.22.02,8.45,0,12.67-3.56,2.04-7.07,4.13-10.66,6.12-3.43-2.16-6.98-4.11-10.48-6.15-.03-4.2-.04-8.41,0-12.61,3.44-2,6.82-4.12,10.34-5.98Z"/>
        <path d="M368.9,408.27c3.83,1.41,7.19,4.01,10.79,5.95.02,4.22.02,8.45,0,12.67-3.55,2.04-7.07,4.13-10.65,6.12-3.43-2.16-6.99-4.11-10.49-6.15-.04-4.2-.04-8.41,0-12.61,3.44-2,6.82-4.12,10.35-5.98Z"/>
        <path d="M449.9,408.26c3.83,1.44,7.19,4.01,10.79,5.96.01,4.23.02,8.45,0,12.67-3.56,2.04-7.08,4.13-10.66,6.12-3.43-2.16-6.98-4.11-10.48-6.15-.04-4.2-.04-8.4,0-12.6,3.44-2.01,6.83-4.13,10.35-6Z"/>
        <path d="M476.9,408.26c3.83,1.43,7.19,4.02,10.79,5.96.01,4.22.02,8.45,0,12.67-3.56,2.04-7.08,4.13-10.65,6.12-3.44-2.16-6.99-4.11-10.49-6.15-.04-4.2-.04-8.4,0-12.6,3.44-2.01,6.82-4.13,10.35-6Z"/>
        <path d="M503.88,408.29c3.84,1.34,7.2,4.01,10.81,5.93.01,4.22.02,8.45,0,12.67-3.56,2.04-7.08,4.13-10.66,6.12-3.43-2.16-6.98-4.11-10.48-6.15-.04-4.2-.04-8.4,0-12.6,3.44-2,6.8-4.13,10.33-5.97Z"/>
        <path d="M530.91,408.25c3.82,1.46,7.18,4.02,10.78,5.97.01,4.22.02,8.45,0,12.67-3.56,2.04-7.08,4.13-10.66,6.12-3.43-2.16-6.98-4.11-10.48-6.15-.04-4.2-.04-8.41,0-12.61,3.45-2,6.83-4.12,10.36-6Z"/>
        <path d="M557.88,408.29c3.84,1.34,7.2,4.01,10.81,5.93.01,4.22.02,8.45,0,12.67-3.56,2.04-7.08,4.13-10.65,6.12-3.44-2.16-6.99-4.11-10.49-6.15-.04-4.2-.04-8.4,0-12.6,3.44-2,6.8-4.13,10.33-5.97Z"/>
        <path d="M584.91,408.26c3.82,1.45,7.18,4.01,10.78,5.96.01,4.23.02,8.45,0,12.67-3.56,2.04-7.08,4.13-10.65,6.12-3.44-2.16-6.99-4.11-10.49-6.15-.04-4.2-.04-8.41,0-12.61,3.45-2,6.83-4.12,10.36-5.99Z"/>
        <path d="M638.91,408.25c3.82,1.47,7.18,4.01,10.78,5.97.01,4.22.02,8.45,0,12.67-3.56,2.04-7.08,4.13-10.65,6.12-3.44-2.16-6.99-4.11-10.49-6.15-.04-4.2-.04-8.41,0-12.61,3.45-2.01,6.84-4.12,10.36-6Z"/>
        <path d="M692.89,408.27c3.83,1.39,7.19,4.02,10.8,5.95.01,4.22.02,8.45,0,12.67-3.56,2.04-7.08,4.13-10.65,6.12-3.44-2.16-6.99-4.11-10.49-6.15-.04-4.2-.04-8.4,0-12.6,3.44-2.01,6.81-4.13,10.34-5.99Z"/>
        <path d="M719.9,408.26c3.83,1.43,7.18,4.01,10.79,5.96.01,4.22.02,8.45,0,12.67-3.55,2.04-7.08,4.13-10.65,6.12-3.44-2.16-6.99-4.11-10.49-6.15-.04-4.2-.04-8.41,0-12.61,3.44-2,6.82-4.12,10.35-5.99Z"/>
        <path d="M746.9,408.26c3.83,1.44,7.19,4.01,10.79,5.96.01,4.22.02,8.45,0,12.67-3.56,2.04-7.08,4.13-10.65,6.12-3.44-2.16-6.99-4.11-10.49-6.15-.04-4.2-.04-8.41,0-12.61,3.44-2,6.83-4.12,10.35-5.99Z"/>
        <path d="M98.9,435.26c3.83,1.44,7.19,4.01,10.79,5.96.02,4.22.02,8.45,0,12.67-3.55,2.04-7.07,4.13-10.66,6.12-3.42-2.16-6.98-4.11-10.48-6.15-.03-4.2-.04-8.4,0-12.6,3.45-2.01,6.83-4.13,10.35-6Z"/>
        <path d="M152.89,435.28c3.84,1.38,7.19,4.01,10.8,5.94.02,4.22.02,8.45,0,12.67-3.55,2.04-7.07,4.14-10.66,6.12-3.43-2.16-6.98-4.11-10.48-6.15-.03-4.2-.04-8.41,0-12.6,3.44-2.01,6.81-4.13,10.34-5.98Z"/>
        <path d="M341.88,435.29c3.84,1.33,7.19,4.01,10.81,5.93.02,4.22.02,8.45,0,12.67-3.56,2.04-7.07,4.13-10.65,6.12-3.44-2.16-6.99-4.11-10.49-6.15-.03-4.2-.04-8.41,0-12.61,3.44-1.99,6.8-4.12,10.33-5.96Z"/>
        <path d="M368.9,435.26c3.83,1.44,7.19,4.01,10.79,5.96.02,4.22.02,8.45,0,12.67-3.55,2.04-7.07,4.13-10.65,6.12-3.44-2.16-6.99-4.11-10.49-6.15-.03-4.2-.04-8.4,0-12.6,3.45-2.01,6.83-4.13,10.35-6Z"/>
        <path d="M422.88,435.28c3.84,1.37,7.2,4.01,10.81,5.94.02,4.22.02,8.45,0,12.67-3.55,2.04-7.07,4.13-10.65,6.12-3.43-2.16-6.99-4.11-10.49-6.15-.04-4.2-.04-8.41,0-12.6,3.44-2,6.81-4.13,10.33-5.98Z"/>
        <path d="M449.9,435.27c3.83,1.41,7.18,4.01,10.79,5.95.02,4.22.02,8.45,0,12.67-3.56,2.04-7.08,4.13-10.66,6.12-3.43-2.16-6.98-4.11-10.48-6.15-.04-4.2-.04-8.4,0-12.6,3.44-2.01,6.82-4.13,10.35-5.99Z"/>
        <path d="M530.9,435.26c3.83,1.44,7.19,4.01,10.79,5.96.02,4.22.02,8.45,0,12.67-3.55,2.04-7.07,4.13-10.65,6.12-3.43-2.16-6.99-4.11-10.49-6.15-.04-4.2-.04-8.4,0-12.6,3.44-2.01,6.83-4.13,10.35-6Z"/>
        <path d="M611.9,435.26c3.83,1.43,7.19,4.01,10.79,5.96.01,4.22.02,8.45,0,12.67-3.56,2.04-7.08,4.13-10.65,6.12-3.44-2.16-6.99-4.11-10.49-6.15-.04-4.2-.04-8.41,0-12.61,3.44-2,6.83-4.12,10.35-5.99Z"/>
        <path d="M665.9,435.27c3.83,1.41,7.18,4.01,10.79,5.95.01,4.22.02,8.45,0,12.67-3.56,2.04-7.08,4.13-10.66,6.12-3.43-2.16-6.98-4.11-10.48-6.15-.04-4.2-.04-8.4,0-12.6,3.44-2.01,6.82-4.13,10.35-5.99Z"/>
        <path d="M719.89,435.27c3.84,1.4,7.19,4.01,10.8,5.95.01,4.22.02,8.45,0,12.67-3.56,2.04-7.08,4.14-10.66,6.12-3.43-2.16-6.98-4.11-10.48-6.15-.04-4.2-.04-8.41,0-12.61,3.44-2,6.82-4.12,10.34-5.98Z"/>
        <path d="M98.89,462.28c3.84,1.38,7.19,4.01,10.8,5.94.02,4.22.02,8.45,0,12.67-3.55,2.04-7.07,4.13-10.65,6.12-3.43-2.16-6.99-4.11-10.49-6.15-.03-4.2-.04-8.4,0-12.6,3.44-2.01,6.81-4.13,10.34-5.98Z"/>
        <path d="M233.89,462.27c3.84,1.4,7.19,4.01,10.8,5.95.02,4.22.02,8.45,0,12.67-3.55,2.04-7.07,4.13-10.65,6.12-3.44-2.16-6.99-4.11-10.49-6.15-.03-4.2-.04-8.41,0-12.61,3.44-2,6.82-4.12,10.34-5.98Z"/>
        <path d="M260.9,462.26c3.83,1.43,7.19,4.01,10.79,5.96.02,4.22.02,8.45,0,12.67-3.56,2.04-7.08,4.14-10.66,6.12-3.43-2.16-6.98-4.11-10.48-6.15-.04-4.2-.04-8.4,0-12.61,3.45-2,6.83-4.12,10.35-5.99Z"/>
        <path d="M287.92,462.24c3.81,1.49,7.17,4.02,10.77,5.98.02,4.22.02,8.45,0,12.67-3.55,2.04-7.07,4.13-10.65,6.12-3.43-2.16-6.99-4.11-10.49-6.15-.04-4.2-.04-8.4,0-12.6,3.45-2.02,6.84-4.13,10.37-6.02Z"/>
        <path d="M530.9,462.26c3.83,1.44,7.19,4.01,10.79,5.96.01,4.22.02,8.45,0,12.67-3.56,2.04-7.08,4.13-10.65,6.12-3.44-2.16-6.99-4.11-10.49-6.15-.04-4.2-.04-8.41,0-12.61,3.45-2,6.83-4.12,10.35-5.99Z"/>
        <path d="M557.9,462.26c3.83,1.43,7.19,4.02,10.79,5.96.01,4.22.02,8.45,0,12.67-3.56,2.04-7.08,4.13-10.65,6.12-3.44-2.16-6.99-4.11-10.49-6.15-.04-4.2-.04-8.4,0-12.6,3.44-2.01,6.82-4.13,10.35-6Z"/>
        <path d="M665.89,462.28c3.83,1.37,7.19,4.01,10.8,5.94.01,4.22.02,8.45,0,12.67-3.56,2.04-7.08,4.13-10.66,6.12-3.43-2.16-6.98-4.11-10.48-6.15-.04-4.2-.04-8.4,0-12.6,3.44-2.01,6.81-4.13,10.34-5.98Z"/>
        <path d="M719.89,462.27c3.83,1.39,7.19,4.02,10.8,5.95.01,4.22.02,8.45,0,12.67-3.56,2.04-7.08,4.13-10.65,6.12-3.44-2.16-6.99-4.11-10.49-6.15-.04-4.2-.04-8.41,0-12.61,3.44-2,6.81-4.12,10.34-5.98Z"/>
        <path d="M746.89,462.28c3.83,1.37,7.19,4.01,10.8,5.94.01,4.22.02,8.45,0,12.67-3.56,2.04-7.08,4.13-10.65,6.12-3.44-2.16-6.99-4.11-10.49-6.15-.04-4.2-.04-8.4,0-12.6,3.44-2,6.81-4.13,10.34-5.98Z"/>
        <path d="M469.05,475.47c7.31-3.86,14.19-8.55,21.62-12.16,7.35,3.75,14.29,8.31,21.57,12.21,0,8.31.06,16.62-.04,24.93-7.21,4.05-14.31,8.31-21.53,12.34-7.3-3.89-14.29-8.32-21.58-12.23-.14-8.36-.06-16.73-.04-25.09Z"/>
        <path d="M604.05,475.47c7.27-3.97,14.31-8.35,21.59-12.32,7.24,4.05,14.34,8.36,21.6,12.37,0,8.31.06,16.62-.03,24.93-7.22,4.05-14.32,8.3-21.54,12.35-7.3-3.9-14.29-8.33-21.58-12.24-.14-8.37-.06-16.73-.04-25.09Z"/>
        <path d="M98.89,489.28c3.84,1.38,7.19,4.01,10.8,5.94.02,4.22.02,8.45,0,12.67-3.56,2.04-7.07,4.14-10.66,6.12-3.43-2.17-6.98-4.11-10.48-6.15-.03-4.2-.04-8.4,0-12.6,3.44-2.01,6.81-4.13,10.34-5.98Z"/>
        <path d="M179.89,489.28c3.84,1.38,7.19,4.01,10.8,5.94.02,4.22.02,8.45,0,12.67-3.55,2.04-7.07,4.13-10.65,6.12-3.43-2.16-6.99-4.11-10.49-6.15-.03-4.2-.04-8.4,0-12.6,3.44-2.01,6.81-4.13,10.34-5.98Z"/>
        <path d="M422.88,489.29c3.84,1.33,7.19,4.01,10.81,5.93.01,4.22.02,8.45,0,12.68-3.56,2.02-7.08,4.13-10.66,6.11-3.43-2.16-6.98-4.11-10.48-6.15-.04-4.2-.04-8.41,0-12.6,3.44-2,6.8-4.13,10.33-5.97Z"/>
        <path d="M530.9,489.27c3.83,1.41,7.18,4.01,10.79,5.95.01,4.22.02,8.45,0,12.67-3.56,2.04-7.08,4.13-10.66,6.12-3.43-2.16-6.98-4.11-10.48-6.15-.04-4.2-.04-8.41,0-12.6,3.44-2.01,6.82-4.13,10.35-5.99Z"/>
        <path d="M584.9,489.26c3.83,1.43,7.18,4.01,10.79,5.96.02,4.22.02,8.45,0,12.67-3.56,2.04-7.08,4.13-10.65,6.12-3.43-2.16-6.99-4.11-10.49-6.15-.04-4.2-.04-8.41,0-12.61,3.44-2,6.83-4.12,10.35-5.99Z"/>
        <path d="M746.89,489.27c3.84,1.4,7.19,4.01,10.8,5.95.01,4.22.02,8.45,0,12.67-3.56,2.03-7.08,4.14-10.66,6.12-3.43-2.17-6.99-4.11-10.48-6.15-.04-4.2-.04-8.41,0-12.6,3.44-2.01,6.82-4.13,10.34-5.99Z"/>
        <path d="M307.05,502.46c7.32-3.84,14.2-8.54,21.62-12.15,7.35,3.75,14.29,8.31,21.57,12.21,0,8.31.06,16.62-.04,24.93-7.21,4.05-14.31,8.3-21.53,12.35-7.3-3.9-14.29-8.33-21.58-12.24-.14-8.37-.06-16.73-.04-25.1Z"/>
        <path d="M98.89,516.27c3.84,1.39,7.19,4.02,10.8,5.95.02,4.22.02,8.45,0,12.67-3.55,2.04-7.07,4.13-10.65,6.12-3.43-2.16-6.99-4.11-10.49-6.15-.03-4.2-.04-8.41,0-12.6,3.44-2.01,6.82-4.13,10.34-5.99Z"/>
        <path d="M206.89,516.27c3.84,1.4,7.19,4.01,10.8,5.95.02,4.22.02,8.45,0,12.67-3.55,2.04-7.07,4.13-10.65,6.12-3.44-2.16-6.99-4.11-10.49-6.15-.03-4.21-.04-8.41,0-12.61,3.44-2,6.82-4.12,10.34-5.98Z"/>
        <path d="M233.9,516.26c3.83,1.43,7.19,4.01,10.79,5.96.02,4.22.02,8.45,0,12.67-3.55,2.04-7.07,4.13-10.65,6.12-3.43-2.16-6.99-4.11-10.49-6.15-.03-4.2-.04-8.41,0-12.6,3.45-2.01,6.83-4.13,10.35-6Z"/>
        <path d="M260.91,516.25c3.82,1.46,7.18,4.02,10.78,5.97.02,4.22.02,8.45,0,12.67-3.55,2.04-7.07,4.13-10.65,6.12-3.44-2.16-6.99-4.11-10.49-6.15-.04-4.2-.04-8.4,0-12.6,3.45-2.01,6.83-4.13,10.36-6.01Z"/>
        <path d="M422.89,516.27c3.84,1.4,7.19,4.01,10.8,5.95.02,4.22.02,8.45,0,12.67-3.55,2.04-7.07,4.13-10.65,6.12-3.43-2.16-6.99-4.11-10.49-6.15-.04-4.2-.04-8.41,0-12.61,3.44-2,6.82-4.12,10.34-5.98Z"/>
        <path d="M449.89,516.27c3.84,1.4,7.19,4.02,10.8,5.95.01,4.22.02,8.45,0,12.67-3.55,2.04-7.07,4.13-10.65,6.12-3.43-2.16-6.99-4.11-10.49-6.15-.04-4.2-.04-8.41,0-12.61,3.44-2,6.81-4.12,10.34-5.98Z"/>
        <path d="M557.88,516.28c3.84,1.37,7.2,4.01,10.81,5.94.01,4.22.02,8.45,0,12.67-3.56,2.04-7.08,4.13-10.65,6.12-3.44-2.16-6.99-4.11-10.49-6.15-.04-4.2-.04-8.4,0-12.6,3.44-2,6.81-4.13,10.33-5.98Z"/>
        <path d="M584.91,516.25c3.82,1.47,7.18,4.01,10.78,5.97.01,4.22.02,8.45,0,12.67-3.56,2.04-7.08,4.13-10.65,6.12-3.44-2.16-6.99-4.11-10.49-6.15-.04-4.2-.04-8.4,0-12.6,3.45-2.02,6.84-4.13,10.36-6.01Z"/>
        <path d="M611.89,516.27c3.84,1.4,7.19,4.01,10.8,5.95.01,4.22.02,8.45,0,12.67-3.56,2.04-7.08,4.13-10.66,6.12-3.43-2.16-6.98-4.11-10.48-6.15-.04-4.2-.04-8.41,0-12.6,3.44-2.01,6.82-4.13,10.34-5.99Z"/>
        <path d="M638.89,516.27c3.84,1.4,7.19,4.01,10.8,5.95.01,4.22.02,8.45,0,12.67-3.56,2.03-7.08,4.13-10.66,6.12-3.43-2.16-6.98-4.11-10.48-6.15-.04-4.2-.04-8.41,0-12.61,3.44-2,6.81-4.12,10.34-5.98Z"/>
        <path d="M692.89,516.27c3.84,1.41,7.19,4.01,10.8,5.95.01,4.22.02,8.45,0,12.67-3.56,2.04-7.08,4.13-10.65,6.12-3.44-2.16-6.99-4.11-10.49-6.15-.04-4.2-.04-8.41,0-12.6,3.44-2.01,6.82-4.13,10.34-5.99Z"/>
        <path d="M496.05,529.46c7.31-3.84,14.19-8.54,21.62-12.15,7.35,3.75,14.29,8.31,21.57,12.21,0,8.31.06,16.62-.04,24.93-7.21,4.05-14.31,8.3-21.53,12.35-7.3-3.9-14.29-8.33-21.58-12.24-.14-8.37-.06-16.73-.04-25.1Z"/>
        <path d="M314.91,543.25c3.82,1.47,7.18,4.01,10.78,5.97.02,4.22.02,8.45,0,12.67-3.55,2.04-7.07,4.13-10.65,6.12-3.43-2.16-6.99-4.11-10.49-6.15-.04-4.2-.04-8.41,0-12.6,3.45-2.02,6.84-4.13,10.36-6.01Z"/>
        <path d="M449.89,543.28c3.83,1.37,7.19,4.01,10.8,5.94.02,4.22.02,8.45,0,12.67-3.56,2.04-7.07,4.13-10.65,6.12-3.44-2.16-6.99-4.11-10.49-6.15-.04-4.2-.04-8.4,0-12.6,3.44-2.01,6.81-4.13,10.34-5.98Z"/>
        <path d="M638.91,543.26c3.82,1.45,7.18,4.01,10.78,5.96.01,4.22.02,8.45,0,12.67-3.56,2.04-7.08,4.13-10.66,6.12-3.43-2.16-6.98-4.11-10.48-6.15-.04-4.2-.04-8.41,0-12.6,3.45-2.01,6.83-4.13,10.36-6Z"/>
        <path d="M665.92,543.24c3.81,1.49,7.17,4.02,10.77,5.98.01,4.22.02,8.45,0,12.67-3.56,2.04-7.08,4.13-10.65,6.12-3.44-2.16-6.99-4.11-10.49-6.15-.04-4.2-.04-8.4,0-12.6,3.45-2.02,6.84-4.13,10.37-6.02Z"/>
        <path d="M334.05,556.47c7.28-3.97,14.32-8.36,21.6-12.31,7.23,4.05,14.33,8.35,21.59,12.36,0,8.31.06,16.62-.03,24.93-7.22,4.05-14.32,8.3-21.54,12.34-7.3-3.89-14.29-8.32-21.58-12.23-.14-8.37-.06-16.73-.04-25.09Z"/>
        <path d="M119.1,569.7c2.5-.47,5.04-.63,7.58-.64,35.68.01,71.36.01,107.03,0,8.15-.11,16.28,2.34,23.03,6.89,11.22,7.36,18.25,20.67,17.96,34.09-.04,36.37.03,72.73-.04,109.1-.36,16.55-12.1,32-27.87,36.95-7.09,2.57-14.71,1.91-22.1,1.98-31.66.01-63.33-.01-95,.01-6.44.25-13-.48-18.96-3.07-14.7-5.89-25.02-21.06-25.03-36.9,0-36.71-.06-73.41.03-110.11.39-18.52,15.1-35.34,33.37-38.3ZM122.11,596.69c-5.57,1.78-9.71,7.4-9.42,13.3v107.16c-.39,7.11,5.79,13.84,12.94,13.9,36.04.05,72.09,0,108.13.03,7.13.44,13.87-5.8,13.91-12.96.06-35.01-.02-70.03.04-105.05-.05-2.77.22-5.67-.86-8.28-2.02-5.23-7.42-9-13.08-8.72h-107.16c-1.52.01-3.05.13-4.5.62Z"/>
        <path d="M395.9,570.26c3.83,1.43,7.19,4.02,10.79,5.96.01,4.22.02,8.45,0,12.67-3.56,2.03-7.08,4.14-10.66,6.12-3.43-2.16-6.98-4.11-10.48-6.15-.04-4.2-.04-8.41,0-12.61,3.45-2,6.82-4.12,10.35-5.99Z"/>
        <path d="M422.91,570.25c3.82,1.47,7.18,4.01,10.78,5.97.02,4.22.02,8.45,0,12.67-3.56,2.03-7.07,4.13-10.65,6.12-3.43-2.16-6.99-4.11-10.49-6.15-.04-4.2-.04-8.4,0-12.6,3.45-2.02,6.83-4.13,10.36-6.01Z"/>
        <path d="M449.89,570.28c3.83,1.37,7.19,4.01,10.8,5.94.02,4.22.02,8.45,0,12.67-3.56,2.03-7.08,4.13-10.66,6.12-3.43-2.16-6.98-4.11-10.48-6.15-.04-4.2-.04-8.41,0-12.6,3.44-2.01,6.81-4.13,10.34-5.98Z"/>
        <path d="M476.89,570.28c3.83,1.37,7.19,4.01,10.8,5.94.01,4.22.02,8.45,0,12.67-3.56,2.04-7.08,4.13-10.66,6.12-3.43-2.16-6.98-4.11-10.48-6.15-.04-4.2-.04-8.41,0-12.61,3.44-1.99,6.81-4.13,10.34-5.97Z"/>
        <path d="M530.88,570.28c3.84,1.36,7.2,4.02,10.81,5.94.02,4.22.02,8.45,0,12.67-3.56,2.04-7.07,4.13-10.65,6.12-3.43-2.16-6.99-4.11-10.49-6.15-.04-4.2-.04-8.41,0-12.6,3.44-2,6.8-4.13,10.33-5.98Z"/>
        <path d="M584.89,570.27c3.84,1.4,7.19,4.01,10.8,5.95.01,4.22.02,8.45,0,12.67-3.56,2.03-7.08,4.13-10.66,6.12-3.43-2.16-6.98-4.11-10.48-6.15-.04-4.2-.04-8.41,0-12.6,3.44-2.01,6.82-4.13,10.34-5.99Z"/>
        <path d="M638.89,570.27c3.84,1.4,7.19,4.01,10.8,5.95.01,4.23.02,8.45,0,12.68-3.66,1.83-6.97,4.55-10.8,5.89-3.51-1.87-6.87-4-10.34-5.93-.04-4.2-.04-8.41,0-12.61,3.44-2,6.82-4.13,10.34-5.98Z"/>
        <path d="M692.9,570.27c3.83,1.41,7.18,4.01,10.79,5.95.01,4.22.02,8.45,0,12.67-3.56,2.04-7.08,4.13-10.65,6.12-3.44-2.16-6.99-4.11-10.49-6.15-.04-4.2-.04-8.4,0-12.6,3.44-2.01,6.82-4.13,10.35-5.99Z"/>
        <path d="M719.9,570.27c3.83,1.41,7.18,4.01,10.79,5.95.01,4.22.02,8.45,0,12.67-3.56,2.04-7.08,4.13-10.66,6.12-3.43-2.16-6.98-4.11-10.48-6.15-.04-4.2-.04-8.41,0-12.6,3.44-2.01,6.82-4.13,10.35-5.99Z"/>
        <path d="M746.89,570.28c3.83,1.37,7.19,4.01,10.8,5.94.01,4.22.02,8.45,0,12.67-3.56,2.04-7.08,4.13-10.65,6.12-3.44-2.16-6.99-4.11-10.49-6.15-.04-4.2-.04-8.41,0-12.6,3.44-2.01,6.81-4.13,10.34-5.98Z"/>
        <path d="M314.89,597.28c3.83,1.37,7.19,4.01,10.8,5.94.02,4.22.02,8.45,0,12.67-3.55,2.04-7.07,4.13-10.65,6.12-3.43-2.16-6.99-4.11-10.49-6.15-.04-4.2-.04-8.4,0-12.6,3.44-2.01,6.81-4.13,10.34-5.98Z"/>
        <path d="M395.89,597.27c3.84,1.4,7.19,4.01,10.8,5.95.02,4.22.02,8.45,0,12.67-3.56,2.03-7.08,4.13-10.66,6.12-3.43-2.16-6.98-4.11-10.48-6.15-.04-4.2-.04-8.41,0-12.6,3.44-2.01,6.82-4.13,10.34-5.99Z"/>
        <path d="M476.88,597.28c3.84,1.36,7.2,4.02,10.81,5.94.01,4.22.02,8.45,0,12.67-3.56,2.03-7.08,4.14-10.66,6.12-3.43-2.16-6.98-4.11-10.48-6.15-.04-4.2-.04-8.41,0-12.6,3.44-2,6.81-4.13,10.33-5.98Z"/>
        <path d="M530.9,597.27c3.83,1.41,7.18,4.01,10.79,5.95.01,4.22.02,8.45,0,12.67-3.56,2.03-7.08,4.14-10.66,6.12-3.43-2.16-6.98-4.11-10.48-6.15-.04-4.2-.04-8.41,0-12.6,3.44-2.01,6.82-4.14,10.35-5.99Z"/>
        <path d="M638.9,597.26c3.83,1.43,7.19,4.01,10.79,5.96.01,4.22.02,8.45,0,12.67-3.65,1.85-6.97,4.53-10.8,5.91-3.5-1.88-6.87-4.01-10.34-5.94-.04-4.2-.04-8.41,0-12.6,3.44-2.01,6.82-4.13,10.35-6Z"/>
        <path d="M665.9,597.27c3.83,1.41,7.18,4.01,10.79,5.95.01,4.22.02,8.45,0,12.67-3.56,2.03-7.08,4.13-10.65,6.12-3.44-2.16-6.99-4.11-10.49-6.15-.04-4.2-.04-8.41,0-12.6,3.44-2.01,6.82-4.13,10.35-5.99Z"/>
        <path d="M149.11,623.7c2.11-.72,4.36-.64,6.56-.65,17.37.07,34.74-.04,52.12.05,7.11.11,13.33,6.77,12.9,13.89-.02,18.04.04,36.09-.02,54.14-.05,6.77-6.14,12.87-12.92,12.92-18.04.06-36.09,0-54.13.03-7.12.42-13.79-5.79-13.9-12.91-.08-18.06-.01-36.12-.03-54.18-.28-5.9,3.86-11.52,9.42-13.29Z"/>
        <path d="M314.89,624.28c3.84,1.38,7.19,4.01,10.8,5.94.02,4.22.02,8.45,0,12.67-3.56,2.03-7.07,4.13-10.65,6.12-3.43-2.16-6.99-4.11-10.49-6.15-.04-4.2-.04-8.4,0-12.6,3.44-2.01,6.81-4.13,10.34-5.98Z"/>
        <path d="M368.88,624.28c3.84,1.36,7.2,4.01,10.81,5.94.02,4.22.02,8.45,0,12.67-3.56,2.03-7.08,4.13-10.66,6.12-3.43-2.16-6.98-4.11-10.48-6.15-.03-4.2-.04-8.41,0-12.6,3.44-2,6.81-4.13,10.33-5.98Z"/>
        <path d="M395.89,624.28c3.83,1.38,7.19,4.01,10.8,5.94.02,4.22.02,8.45,0,12.67-3.55,2.04-7.07,4.13-10.65,6.12-3.44-2.16-6.99-4.11-10.49-6.15-.04-4.2-.04-8.41,0-12.6,3.44-2.01,6.81-4.13,10.34-5.98Z"/>
        <path d="M503.89,624.27c3.84,1.39,7.19,4.02,10.8,5.95.01,4.22.02,8.45,0,12.67-3.56,2.03-7.08,4.13-10.65,6.12-3.43-2.16-6.99-4.11-10.49-6.15-.04-4.2-.04-8.4,0-12.6,3.44-2.01,6.81-4.13,10.34-5.99Z"/>
        <path d="M584.88,624.28c3.84,1.36,7.2,4.02,10.81,5.94.01,4.22.02,8.45,0,12.67-3.56,2.03-7.08,4.13-10.66,6.12-3.43-2.16-6.98-4.11-10.48-6.15-.04-4.2-.04-8.41,0-12.6,3.44-2,6.8-4.13,10.33-5.98Z"/>
        <path d="M611.91,624.26c3.82,1.44,7.18,4.01,10.78,5.96.01,4.22.02,8.45,0,12.67-3.55,2.04-7.07,4.12-10.65,6.12-3.43-2.16-6.99-4.11-10.49-6.15-.04-4.2-.04-8.41,0-12.6,3.44-2.01,6.83-4.14,10.36-6Z"/>
        <path d="M638.89,624.27c3.84,1.39,7.19,4.02,10.8,5.95.01,4.22.02,8.45,0,12.67-3.56,2.03-7.08,4.13-10.65,6.12-3.44-2.16-6.99-4.11-10.49-6.15-.04-4.2-.04-8.41,0-12.6,3.44-2.01,6.81-4.14,10.34-5.99Z"/>
        <path d="M746.89,624.28c3.83,1.37,7.19,4.01,10.8,5.94.01,4.22.02,8.45,0,12.67-3.56,2.03-7.08,4.13-10.66,6.12-3.43-2.16-6.98-4.11-10.48-6.15-.04-4.2-.04-8.4,0-12.6,3.44-2.01,6.81-4.13,10.34-5.98Z"/>
        <path d="M523.05,637.46c7.32-3.84,14.2-8.55,21.63-12.15,7.34,3.75,14.28,8.31,21.56,12.21,0,8.31.06,16.62-.03,24.93-7.22,4.05-14.32,8.3-21.54,12.34-7.3-3.89-14.29-8.32-21.58-12.23-.14-8.37-.06-16.73-.04-25.1Z"/>
        <path d="M685.05,637.46c7.32-3.84,14.19-8.55,21.62-12.15,7.35,3.75,14.29,8.31,21.57,12.21,0,8.31.06,16.62-.03,24.93-7.22,4.05-14.32,8.3-21.54,12.34-7.3-3.89-14.29-8.32-21.58-12.23-.14-8.37-.06-16.73-.04-25.1Z"/>
        <path d="M314.89,651.27c3.84,1.41,7.19,4.01,10.8,5.95.02,4.22.02,8.45,0,12.67-3.55,2.04-7.07,4.13-10.65,6.12-3.43-2.16-6.99-4.11-10.49-6.15-.04-4.2-.04-8.41,0-12.61,3.44-2,6.82-4.12,10.34-5.98Z"/>
        <path d="M368.9,651.27c3.83,1.41,7.18,4.01,10.79,5.95.02,4.22.02,8.45,0,12.67-3.56,2.03-7.08,4.13-10.66,6.12-3.43-2.16-6.98-4.11-10.48-6.15-.04-4.2-.04-8.41,0-12.61,3.44-2,6.82-4.12,10.35-5.98Z"/>
        <path d="M422.88,651.29c3.84,1.34,7.2,4.01,10.81,5.93.01,4.22.02,8.45,0,12.67-3.56,2.03-7.08,4.13-10.66,6.12-3.43-2.16-6.98-4.11-10.48-6.15-.04-4.2-.04-8.4,0-12.6,3.44-2,6.8-4.13,10.33-5.97Z"/>
        <path d="M449.9,651.27c3.83,1.41,7.18,4.01,10.79,5.95.02,4.22.02,8.45,0,12.68-3.65,1.84-6.97,4.52-10.8,5.9-3.5-1.88-6.87-4.01-10.34-5.94-.04-4.2-.04-8.41,0-12.6,3.44-2.01,6.82-4.13,10.35-5.99Z"/>
        <path d="M584.89,651.28c3.83,1.38,7.19,4.01,10.8,5.94.01,4.22.02,8.45,0,12.67-3.56,2.03-7.08,4.14-10.66,6.12-3.43-2.16-6.98-4.11-10.48-6.15-.04-4.2-.04-8.41,0-12.61,3.44-2,6.81-4.12,10.34-5.97Z"/>
        <path d="M638.89,651.27c3.84,1.4,7.19,4.01,10.8,5.95.01,4.22.02,8.45,0,12.67-3.55,2.04-7.07,4.13-10.65,6.12-3.43-2.16-6.99-4.11-10.49-6.15-.04-4.2-.04-8.4,0-12.6,3.44-2.01,6.82-4.13,10.34-5.99Z"/>
        <path d="M665.89,651.27c3.83,1.39,7.19,4.02,10.8,5.95.01,4.22.02,8.45,0,12.67-3.65,1.85-6.97,4.53-10.79,5.91-3.51-1.88-6.88-4.01-10.35-5.94-.04-4.2-.04-8.41,0-12.6,3.44-2.01,6.81-4.13,10.34-5.99Z"/>
        <path d="M746.9,651.26c3.83,1.43,7.19,4.01,10.79,5.96.01,4.22.02,8.45,0,12.67-3.56,2.03-7.08,4.13-10.65,6.12-3.44-2.16-6.99-4.11-10.49-6.15-.04-4.2-.04-8.41,0-12.61,3.44-2,6.83-4.13,10.35-5.99Z"/>
        <path d="M314.88,678.28c3.84,1.37,7.2,4.01,10.81,5.94.02,4.22.02,8.45,0,12.67-3.56,2.03-7.08,4.13-10.66,6.12-3.43-2.16-6.98-4.11-10.48-6.15-.04-4.2-.04-8.41,0-12.61,3.44-1.99,6.81-4.13,10.33-5.97Z"/>
        <path d="M449.9,678.26c3.83,1.43,7.19,4.02,10.79,5.96.01,4.22.02,8.45,0,12.67-3.56,2.03-7.08,4.13-10.66,6.12-3.43-2.16-6.98-4.11-10.48-6.15-.04-4.2-.04-8.41,0-12.61,3.44-2,6.82-4.13,10.35-5.99Z"/>
        <path d="M476.88,678.28c3.84,1.36,7.2,4.01,10.81,5.94.01,4.22.02,8.45,0,12.67-3.65,1.85-6.97,4.54-10.8,5.91-3.51-1.88-6.87-4.01-10.34-5.94-.04-4.2-.04-8.41,0-12.61,3.44-1.99,6.81-4.13,10.33-5.97Z"/>
        <path d="M503.9,678.27c3.83,1.41,7.18,4.01,10.79,5.95.01,4.22.02,8.45,0,12.67-3.56,2.03-7.08,4.13-10.66,6.12-3.43-2.16-6.98-4.11-10.48-6.15-.04-4.2-.04-8.41,0-12.6,3.44-2.01,6.82-4.13,10.35-5.99Z"/>
        <path d="M665.91,678.25c3.82,1.47,7.18,4.01,10.78,5.97.01,4.22.02,8.44,0,12.67-3.55,2.04-7.08,4.13-10.65,6.12-3.44-2.16-6.99-4.11-10.49-6.15-.04-4.2-.04-8.41,0-12.61,3.45-2.01,6.84-4.13,10.36-6Z"/>
        <path d="M692.91,678.25c3.82,1.48,7.18,4.01,10.78,5.97.01,4.22.02,8.45,0,12.67-3.56,2.03-7.08,4.13-10.65,6.12-3.44-2.16-6.99-4.11-10.49-6.15-.04-4.2-.04-8.4,0-12.6,3.45-2.02,6.84-4.14,10.36-6.01Z"/>
        <path d="M746.9,678.26c3.83,1.43,7.18,4.01,10.79,5.96.01,4.22.02,8.45,0,12.67-3.56,2.03-7.08,4.13-10.65,6.12-3.44-2.16-6.99-4.11-10.49-6.15-.04-4.2-.04-8.41,0-12.6,3.44-2.01,6.82-4.13,10.35-6Z"/>
        <path d="M334.05,691.46c7.32-3.84,14.2-8.55,21.62-12.15,7.35,3.75,14.28,8.31,21.57,12.21,0,8.31.06,16.62-.04,24.93-7.21,4.05-14.31,8.3-21.53,12.35-7.3-3.9-14.29-8.33-21.58-12.24-.14-8.36-.06-16.73-.04-25.1Z"/>
        <path d="M422.9,705.26c3.83,1.44,7.19,4.01,10.79,5.96.01,4.22.02,8.45,0,12.67-3.56,2.03-7.08,4.14-10.66,6.12-3.43-2.17-6.98-4.11-10.48-6.15-.04-4.2-.04-8.41,0-12.6,3.44-2.01,6.83-4.14,10.35-6Z"/>
        <path d="M449.88,705.28c3.84,1.36,7.2,4.01,10.81,5.94.02,4.22.02,8.45,0,12.67-3.56,2.03-7.08,4.13-10.65,6.12-3.44-2.16-6.99-4.11-10.49-6.15-.04-4.2-.04-8.41,0-12.6,3.44-2,6.81-4.13,10.33-5.98Z"/>
        <path d="M503.89,705.27c3.84,1.4,7.19,4.01,10.8,5.95.01,4.22.02,8.45,0,12.67-3.56,2.03-7.08,4.13-10.66,6.12-3.43-2.17-6.98-4.11-10.48-6.15-.04-4.2-.04-8.41,0-12.6,3.44-2.01,6.82-4.13,10.34-5.99Z"/>
        <path d="M530.91,705.26c3.82,1.44,7.18,4.01,10.78,5.96.02,4.22.02,8.45,0,12.67-3.56,2.03-7.08,4.13-10.65,6.12-3.44-2.16-6.99-4.11-10.49-6.15-.04-4.2-.04-8.41,0-12.61,3.45-2,6.83-4.13,10.36-5.99Z"/>
        <path d="M746.89,705.27c3.84,1.4,7.19,4.01,10.8,5.95.01,4.22.02,8.45,0,12.67-3.56,2.04-7.08,4.13-10.66,6.12-3.43-2.16-6.98-4.11-10.48-6.15-.04-4.2-.04-8.41,0-12.61,3.44-2,6.82-4.13,10.34-5.98Z"/>
        <path d="M577.05,718.47c7.31-3.85,14.2-8.56,21.63-12.16,7.34,3.76,14.28,8.31,21.56,12.21,0,8.31.06,16.62-.04,24.93-7.21,4.05-14.31,8.31-21.53,12.35-7.3-3.9-14.29-8.33-21.58-12.24-.14-8.36-.06-16.73-.04-25.09Z"/>
        <path d="M631.05,718.46c7.31-3.84,14.19-8.54,21.62-12.15,7.35,3.75,14.28,8.31,21.57,12.21,0,8.31.06,16.62-.03,24.93-7.22,4.05-14.32,8.3-21.54,12.34-7.3-3.89-14.3-8.32-21.58-12.23-.13-8.37-.06-16.73-.04-25.1Z"/>
        <path d="M314.9,732.26c3.83,1.43,7.18,4.01,10.79,5.96.02,4.22.02,8.45,0,12.67-3.55,2.03-7.07,4.13-10.65,6.12-3.43-2.16-6.99-4.11-10.49-6.15-.04-4.2-.04-8.41,0-12.61,3.44-2,6.82-4.12,10.35-5.99Z"/>
        <path d="M422.88,732.29c3.84,1.34,7.2,4.01,10.81,5.93.01,4.22.02,8.45,0,12.67-3.56,2.03-7.08,4.13-10.66,6.12-3.43-2.16-6.98-4.11-10.48-6.15-.04-4.2-.04-8.41,0-12.6,3.44-2,6.8-4.14,10.33-5.97Z"/>
        <path d="M476.89,732.28c3.83,1.37,7.19,4.01,10.8,5.94.02,4.22.02,8.45,0,12.67-3.55,2.03-7.07,4.13-10.65,6.12-3.43-2.16-6.99-4.11-10.49-6.15-.04-4.2-.04-8.41,0-12.6,3.44-2.01,6.81-4.14,10.34-5.98Z"/>
        <path d="M557.89,732.28c3.83,1.38,7.19,4.01,10.8,5.94.01,4.22.02,8.45,0,12.67-3.56,2.03-7.08,4.13-10.66,6.12-3.43-2.16-6.98-4.11-10.48-6.15-.04-4.2-.04-8.41,0-12.6,3.44-2.01,6.81-4.14,10.34-5.98Z"/>
        <path d="M692.89,732.27c3.84,1.4,7.19,4.01,10.8,5.95.01,4.22.02,8.45,0,12.67-3.56,2.03-7.08,4.13-10.66,6.12-3.43-2.16-6.98-4.11-10.48-6.15-.04-4.2-.04-8.41,0-12.6,3.44-2.01,6.82-4.13,10.34-5.99Z"/>
        <path d="M719.89,732.27c3.83,1.39,7.19,4.02,10.8,5.95.01,4.22.02,8.45,0,12.67-3.56,2.03-7.08,4.13-10.65,6.12-3.44-2.16-6.99-4.11-10.49-6.15-.04-4.2-.04-8.41,0-12.61,3.44-2,6.81-4.13,10.34-5.98Z"/>
        <path d="M746.9,732.27c3.83,1.41,7.18,4.01,10.79,5.95.01,4.22.02,8.45,0,12.68-3.56,2.02-7.08,4.12-10.65,6.11-3.44-2.16-6.99-4.11-10.49-6.15-.04-4.2-.04-8.41,0-12.6,3.44-2.01,6.82-4.13,10.35-5.99Z"/>
      </g>
    </g>
  </g>
</svg>