<?xml version="1.0" encoding="UTF-8"?>
<svg id="Capa_2" data-name="Capa 2" xmlns="http://www.w3.org/2000/svg" viewBox="0 0 54.12 54.13">
  <g id="Layer_1" data-name="Layer 1">
    <g>
      <path d="M2.68.05c.2-.04.4-.05.61-.05,2.89,0,5.78,0,8.66,0,.63,0,1.25.2,1.76.55.9.59,1.46,1.66,1.44,2.73,0,2.89,0,5.78,0,8.66,0,.91-.43,1.81-1.12,2.41-.58.49-1.33.79-2.09.79H3.21c-.88,0-1.74-.4-2.33-1.03C.31,13.52-.01,12.7,0,11.87c0-2.92,0-5.83,0-8.75C.04,1.64,1.22.29,2.68.05ZM2.92,2.22c-.45.14-.78.59-.76,1.07v8.59c-.03.57.46,1.11,1.04,1.11,2.84,0,5.67,0,8.51,0,.19,0,.39,0,.57-.07.42-.16.73-.6.71-1.05,0-2.89,0-5.78,0-8.67,0-.57-.55-1.07-1.11-1.03H3.28c-.12,0-.24.01-.36.05Z"/>
      <path d="M41.65.05c.2-.04.4-.05.61-.05,2.89,0,5.78,0,8.66,0,.8,0,1.59.33,2.17.87.64.6,1.03,1.46,1.03,2.33v8.75c0,.76-.3,1.51-.79,2.09-.62.71-1.55,1.14-2.49,1.12-2.89,0-5.78,0-8.66,0-.69,0-1.36-.24-1.91-.65-.79-.59-1.29-1.56-1.29-2.55,0-2.83,0-5.67,0-8.5-.01-.47.05-.95.22-1.38.4-1.04,1.36-1.83,2.46-2.01ZM41.89,2.22c-.45.14-.78.59-.76,1.07v8.59c-.03.57.46,1.11,1.04,1.11,2.89,0,5.78,0,8.67,0,.6.04,1.16-.52,1.12-1.12,0-2.89,0-5.78,0-8.67,0-.57-.55-1.07-1.11-1.03h-8.59c-.12,0-.25.01-.36.05Z"/>
      <path d="M29.2.1c.31.12.58.32.86.48,0,.34,0,.68,0,1.02-.29.16-.57.33-.85.49-.28-.17-.56-.33-.84-.49,0-.34,0-.67,0-1.01.28-.16.55-.33.83-.48Z"/>
      <path d="M20.54,2.26c.31.11.58.32.87.48,0,.34,0,.68,0,1.02-.29.16-.57.33-.85.49-.28-.17-.56-.33-.84-.49,0-.34,0-.67,0-1.01.28-.16.55-.33.83-.48Z"/>
      <path d="M22.71,2.26c.31.11.58.32.87.48,0,.34,0,.68,0,1.02-.29.16-.57.33-.85.49-.28-.17-.56-.33-.84-.49,0-.34,0-.67,0-1.01.28-.16.55-.33.83-.48Z"/>
      <path d="M24.87,2.26c.31.11.58.32.87.48,0,.34,0,.68,0,1.02-.29.16-.57.33-.85.49-.28-.17-.56-.33-.84-.49,0-.34,0-.67,0-1.01.28-.16.55-.33.83-.48Z"/>
      <path d="M27.04,2.26c.31.11.58.32.87.48,0,.34,0,.68,0,1.02-.28.16-.57.33-.85.49-.28-.17-.56-.33-.84-.49,0-.34,0-.67,0-1.01.28-.16.55-.33.83-.48Z"/>
      <path d="M29.2,2.26c.31.11.58.32.87.48,0,.34,0,.68,0,1.02-.28.16-.57.33-.85.49-.28-.17-.56-.33-.84-.49,0-.34,0-.67,0-1.01.28-.16.55-.33.83-.48Z"/>
      <path d="M31.37,2.26c.31.12.58.32.86.48,0,.34,0,.68,0,1.02-.29.16-.57.33-.85.49-.28-.17-.56-.33-.84-.49,0-.34,0-.67,0-1.01.28-.16.55-.33.83-.48Z"/>
      <path d="M33.53,2.26c.31.11.58.32.87.48,0,.34,0,.68,0,1.02-.29.16-.57.33-.85.49-.28-.17-.56-.33-.84-.49,0-.34,0-.67,0-1.01.28-.16.55-.33.83-.48Z"/>
      <path d="M5.09,4.38c.17-.06.35-.05.53-.05,1.39,0,2.79,0,4.18,0,.54,0,1.03.49,1.03,1.03,0,1.45,0,2.9,0,4.34.03.57-.47,1.11-1.04,1.12-1.47,0-2.95,0-4.42,0-.57,0-1.07-.54-1.04-1.11v-4.26c-.02-.47.31-.92.76-1.06Z"/>
      <path d="M44.05,4.38c.17-.06.35-.05.53-.05,1.39,0,2.79,0,4.18,0,.57,0,1.07.54,1.03,1.11,0,1.45,0,2.89,0,4.34,0,.57-.54,1.07-1.12,1.04-1.45,0-2.89,0-4.34,0-.57,0-1.07-.54-1.04-1.11v-4.26c-.02-.47.31-.92.76-1.07Z"/>
      <path d="M18.38,4.43c.31.11.58.32.87.48,0,.34,0,.68,0,1.02-.29.15-.56.36-.87.47-.28-.15-.55-.32-.83-.48,0-.34,0-.67,0-1.01.28-.16.55-.33.83-.48Z"/>
      <path d="M20.55,4.43c.31.12.58.32.86.48,0,.34,0,.68,0,1.02-.29.16-.57.33-.85.49-.28-.17-.56-.33-.84-.49,0-.34,0-.67,0-1.01.28-.16.55-.33.83-.48Z"/>
      <path d="M24.87,4.43c.31.12.58.32.87.48,0,.34,0,.68,0,1.02-.28.16-.57.33-.85.49-.28-.17-.56-.33-.84-.49,0-.34,0-.67,0-1.01.28-.16.55-.33.83-.48Z"/>
      <path d="M33.53,4.43c.31.11.58.32.87.48,0,.34,0,.68,0,1.02-.28.16-.57.33-.85.49-.28-.17-.56-.33-.84-.49,0-.34,0-.67,0-1.01.28-.16.55-.33.83-.48Z"/>
      <path d="M18.38,6.59c.31.12.58.32.86.48,0,.34,0,.68,0,1.02-.29.16-.57.33-.85.49-.28-.17-.56-.33-.84-.49,0-.34,0-.67,0-1.01.28-.16.55-.33.83-.48Z"/>
      <path d="M22.71,6.59c.31.11.58.32.87.48,0,.34,0,.68,0,1.02-.29.16-.57.33-.85.49-.28-.17-.56-.33-.84-.49,0-.34,0-.67,0-1.01.28-.16.55-.33.83-.48Z"/>
      <path d="M27.04,6.59c.31.11.58.32.87.48,0,.34,0,.68,0,1.02-.29.16-.57.33-.85.49-.28-.17-.56-.33-.84-.49,0-.34,0-.67,0-1.01.28-.16.55-.33.83-.48Z"/>
      <path d="M29.2,6.59c.31.11.58.32.87.48,0,.34,0,.68,0,1.02-.29.16-.57.33-.85.49-.28-.17-.56-.33-.84-.49,0-.34,0-.67,0-1.01.28-.16.55-.33.83-.48Z"/>
      <path d="M31.37,6.59c.31.11.58.32.87.48,0,.34,0,.68,0,1.02-.29.16-.57.33-.85.49-.28-.17-.56-.33-.84-.49,0-.34,0-.67,0-1.01.28-.16.55-.33.83-.48Z"/>
      <path d="M33.53,6.59c.31.11.58.32.87.48,0,.34,0,.68,0,1.02-.29.16-.57.33-.85.49-.28-.17-.56-.33-.84-.49,0-.34,0-.67,0-1.01.28-.16.55-.33.83-.48Z"/>
      <path d="M35.7,6.59c.31.11.58.32.87.48,0,.34,0,.68,0,1.02-.29.16-.57.33-.85.49-.28-.17-.56-.33-.84-.49,0-.34,0-.67,0-1.01.28-.16.55-.33.83-.48Z"/>
      <path d="M18.38,8.76c.31.12.58.32.86.48,0,.34,0,.68,0,1.02-.29.16-.57.33-.85.49-.28-.17-.56-.33-.84-.49,0-.34,0-.67,0-1.01.28-.16.55-.33.83-.48Z"/>
      <path d="M27.04,8.76c.31.11.58.32.87.48,0,.34,0,.68,0,1.02-.28.16-.57.33-.85.49-.28-.17-.56-.33-.84-.49,0-.34,0-.67,0-1.01.28-.16.55-.33.83-.48Z"/>
      <path d="M35.7,8.76c.31.11.58.32.87.48,0,.34,0,.68,0,1.02-.29.16-.57.33-.85.49-.28-.17-.56-.33-.84-.49,0-.34,0-.67,0-1.01.28-.16.55-.33.83-.48Z"/>
      <path d="M22.08,9.82c.59-.31,1.14-.69,1.73-.98.59.3,1.15.67,1.73.98,0,.67,0,1.33,0,2-.58.32-1.15.67-1.73.99-.59-.31-1.15-.67-1.73-.98-.01-.67,0-1.34,0-2.01Z"/>
      <path d="M18.38,10.92c.31.12.58.32.86.48,0,.34,0,.68,0,1.02-.28.16-.57.33-.85.49-.28-.17-.56-.33-.84-.49,0-.34,0-.67,0-1.01.28-.16.55-.33.83-.48Z"/>
      <path d="M29.2,10.92c.31.11.58.32.87.48,0,.34,0,.68,0,1.02-.28.16-.57.33-.85.49-.28-.17-.56-.33-.84-.49,0-.34,0-.67,0-1.01.28-.16.55-.33.83-.48Z"/>
      <path d="M33.53,10.92c.31.11.58.32.87.48,0,.34,0,.68,0,1.02-.29.16-.57.33-.85.49-.28-.17-.56-.33-.84-.49,0-.34,0-.67,0-1.01.28-.16.55-.33.83-.48Z"/>
      <path d="M35.7,10.92c.31.11.58.32.87.48,0,.34,0,.68,0,1.02-.29.16-.57.33-.85.49-.28-.17-.56-.33-.84-.49,0-.34,0-.67,0-1.01.28-.16.55-.33.83-.48Z"/>
      <path d="M18.38,13.09c.31.11.58.32.87.48,0,.34,0,.68,0,1.02-.29.16-.57.33-.85.49-.28-.17-.56-.33-.84-.49,0-.34,0-.67,0-1.01.28-.16.55-.33.83-.48Z"/>
      <path d="M22.71,13.09c.31.11.58.32.87.48,0,.34,0,.68,0,1.02-.29.16-.57.33-.85.49-.28-.17-.56-.33-.84-.49,0-.34,0-.67,0-1.01.28-.16.55-.33.83-.48Z"/>
      <path d="M27.04,13.09c.31.12.58.32.87.48,0,.34,0,.68,0,1.02-.29.16-.57.33-.85.49-.28-.17-.56-.33-.84-.49,0-.34,0-.67,0-1.01.28-.16.55-.33.83-.48Z"/>
      <path d="M31.37,13.09c.31.11.58.32.87.48,0,.34,0,.68,0,1.02-.29.16-.57.33-.85.49-.28-.17-.56-.33-.84-.49,0-.34,0-.67,0-1.01.28-.16.55-.33.83-.48Z"/>
      <path d="M35.7,13.08c.31.12.58.32.86.48,0,.34,0,.68,0,1.02-.29.16-.57.33-.85.49-.28-.17-.56-.33-.84-.49,0-.34,0-.67,0-1.01.28-.16.55-.33.83-.48Z"/>
      <path d="M18.38,15.25c.31.11.58.32.87.48,0,.34,0,.68,0,1.02-.29.16-.57.33-.85.49-.28-.17-.56-.33-.84-.49,0-.34,0-.67,0-1.01.28-.16.55-.33.83-.48Z"/>
      <path d="M31.37,15.25c.31.11.58.32.87.48,0,.34,0,.68,0,1.02-.29.16-.57.33-.85.49-.28-.17-.56-.33-.84-.49,0-.34,0-.67,0-1.01.28-.16.55-.33.83-.48Z"/>
      <path d="M33.53,15.25c.31.12.58.32.86.48,0,.34,0,.68,0,1.02-.29.16-.57.33-.85.49-.28-.17-.56-.33-.84-.49,0-.34,0-.67,0-1.01.28-.16.55-.33.83-.48Z"/>
      <path d="M19.92,16.31c.59-.31,1.14-.68,1.73-.97.59.3,1.14.67,1.73.98,0,.67,0,1.33,0,2-.58.32-1.15.67-1.73.99-.59-.31-1.15-.67-1.73-.98-.01-.67,0-1.34,0-2.01Z"/>
      <path d="M1.06,17.42c.31.11.58.32.87.48,0,.34,0,.68,0,1.02-.28.16-.57.33-.85.49-.28-.17-.56-.33-.84-.49,0-.34,0-.67,0-1.01.28-.16.55-.33.83-.48Z"/>
      <path d="M9.72,17.42c.31.11.58.32.87.48,0,.34,0,.68,0,1.02-.28.16-.57.33-.85.49-.28-.17-.56-.33-.84-.49,0-.34,0-.67,0-1.01.28-.16.55-.33.83-.48Z"/>
      <path d="M11.89,17.41c.31.12.58.32.86.48,0,.34,0,.68,0,1.02-.29.16-.57.33-.85.49-.28-.17-.56-.33-.84-.49,0-.34,0-.67,0-1.01.28-.16.55-.33.83-.48Z"/>
      <path d="M14.05,17.42c.31.11.58.32.87.48,0,.34,0,.68,0,1.02-.29.16-.57.33-.85.49-.28-.17-.56-.33-.84-.49,0-.34,0-.67,0-1.01.28-.16.55-.33.83-.48Z"/>
      <path d="M27.04,17.42c.31.11.58.32.87.48,0,.34,0,.68,0,1.02-.28.16-.57.33-.85.49-.28-.17-.56-.33-.84-.49,0-.34,0-.67,0-1.01.28-.16.55-.33.83-.48Z"/>
      <path d="M29.2,17.42c.31.11.58.32.87.48,0,.34,0,.68,0,1.02-.29.16-.57.33-.85.49-.28-.17-.56-.33-.84-.49,0-.34,0-.67,0-1.01.28-.16.55-.33.83-.48Z"/>
      <path d="M31.37,17.41c.31.12.58.32.86.48,0,.34,0,.68,0,1.02-.28.16-.57.33-.85.49-.28-.17-.56-.33-.84-.49,0-.34,0-.67,0-1.01.28-.16.55-.33.83-.48Z"/>
      <path d="M40.03,17.42c.31.11.58.32.87.48,0,.34,0,.68,0,1.02-.29.16-.57.33-.85.49-.28-.17-.56-.33-.84-.49,0-.34,0-.67,0-1.01.28-.16.55-.33.83-.48Z"/>
      <path d="M42.19,17.41c.31.12.58.32.86.48,0,.34,0,.68,0,1.02-.29.16-.57.33-.85.49-.28-.17-.56-.33-.84-.49,0-.34,0-.67,0-1.01.28-.16.55-.33.83-.48Z"/>
      <path d="M44.36,17.42c.31.11.58.32.87.48,0,.34,0,.68,0,1.02-.29.16-.57.33-.85.49-.28-.17-.56-.33-.84-.49,0-.34,0-.67,0-1.01.28-.16.55-.33.83-.48Z"/>
      <path d="M46.52,17.42c.31.11.58.32.87.48,0,.34,0,.68,0,1.02-.29.16-.57.33-.85.49-.28-.17-.56-.33-.84-.49,0-.34,0-.67,0-1.01.28-.16.55-.33.83-.48Z"/>
      <path d="M48.69,17.42c.31.11.58.32.87.48,0,.34,0,.68,0,1.02-.29.16-.57.33-.85.49-.28-.17-.56-.33-.84-.49,0-.34,0-.67,0-1.01.28-.16.55-.33.83-.48Z"/>
      <path d="M4.76,18.47c.59-.31,1.14-.68,1.73-.97.59.3,1.14.67,1.73.98,0,.67,0,1.33,0,2-.58.32-1.15.67-1.73.99-.59-.31-1.15-.67-1.73-.98-.01-.67,0-1.34,0-2.01Z"/>
      <path d="M1.06,19.58c.31.11.58.32.87.48,0,.34,0,.68,0,1.02-.28.16-.57.33-.85.49-.28-.17-.56-.33-.84-.49,0-.34,0-.67,0-1.01.28-.16.55-.33.83-.48Z"/>
      <path d="M3.23,19.58c.31.12.58.32.86.48,0,.34,0,.68,0,1.02-.28.16-.57.33-.85.49-.28-.17-.56-.33-.84-.49,0-.34,0-.67,0-1.01.28-.16.55-.33.83-.48Z"/>
      <path d="M11.88,19.58c.31.11.58.32.87.48,0,.34,0,.68,0,1.02-.29.16-.57.33-.85.49-.28-.17-.56-.33-.84-.49,0-.34,0-.67,0-1.01.28-.16.55-.33.83-.48Z"/>
      <path d="M16.21,19.58c.31.11.58.32.87.48,0,.34,0,.68,0,1.02-.28.16-.57.33-.85.49-.28-.17-.56-.33-.84-.49,0-.34,0-.67,0-1.01.28-.16.55-.33.83-.48Z"/>
      <path d="M24.88,19.58c.31.12.58.32.86.48,0,.34,0,.68,0,1.02-.29.15-.56.36-.87.47-.28-.15-.55-.32-.83-.48,0-.34,0-.67,0-1.01.28-.16.55-.33.83-.48Z"/>
      <path d="M29.2,19.58c.31.11.58.32.87.48,0,.34,0,.68,0,1.02-.29.16-.57.33-.85.49-.28-.17-.56-.33-.84-.49,0-.34,0-.67,0-1.01.28-.16.55-.33.83-.48Z"/>
      <path d="M35.7,19.58c.31.12.58.32.86.48,0,.34,0,.68,0,1.02-.29.16-.57.33-.85.49-.28-.17-.56-.33-.84-.49,0-.34,0-.67,0-1.01.28-.16.55-.33.83-.48Z"/>
      <path d="M42.19,19.58c.31.11.58.32.87.48,0,.34,0,.68,0,1.02-.29.16-.57.33-.85.49-.28-.17-.56-.33-.84-.49,0-.34,0-.67,0-1.01.28-.16.55-.33.83-.48Z"/>
      <path d="M50.85,19.58c.31.11.58.32.87.48,0,.34,0,.68,0,1.02-.29.16-.57.33-.85.49-.28-.17-.56-.33-.84-.49,0-.34,0-.67,0-1.01.28-.16.55-.33.83-.48Z"/>
      <path d="M7.55,21.75c.31.11.58.32.87.48,0,.34,0,.68,0,1.02-.28.16-.57.33-.85.49-.28-.17-.56-.33-.84-.49,0-.34,0-.67,0-1.01.28-.16.55-.33.83-.48Z"/>
      <path d="M14.05,21.75c.31.11.58.32.87.48,0,.34,0,.68,0,1.02-.28.16-.57.33-.85.49-.28-.17-.56-.33-.84-.49,0-.34,0-.67,0-1.01.28-.16.55-.33.83-.48Z"/>
      <path d="M16.21,21.75c.31.11.58.32.87.48,0,.34,0,.68,0,1.02-.29.16-.57.33-.85.49-.28-.17-.56-.33-.84-.49,0-.34,0-.67,0-1.01.28-.16.55-.33.83-.48Z"/>
      <path d="M27.04,21.74c.31.12.58.32.86.48,0,.34,0,.68,0,1.02-.28.16-.57.33-.85.49-.28-.17-.56-.33-.84-.49,0-.34,0-.67,0-1.01.28-.16.55-.33.83-.48Z"/>
      <path d="M29.2,21.75c.31.11.58.32.87.48,0,.34,0,.68,0,1.02-.29.16-.57.33-.85.49-.28-.17-.56-.33-.84-.49,0-.34,0-.67,0-1.01.28-.16.55-.33.83-.48Z"/>
      <path d="M31.37,21.74c.31.12.58.32.86.48,0,.34,0,.68,0,1.02-.29.16-.57.33-.85.49-.28-.17-.56-.33-.84-.49,0-.34,0-.67,0-1.01.28-.16.55-.33.83-.48Z"/>
      <path d="M33.53,21.75c.31.11.58.32.87.48,0,.34,0,.68,0,1.02-.29.16-.57.33-.85.49-.28-.17-.56-.33-.84-.49,0-.34,0-.67,0-1.01.28-.16.55-.33.83-.48Z"/>
      <path d="M37.86,21.75c.31.12.58.32.87.48,0,.34,0,.68,0,1.02-.28.16-.57.33-.85.49-.28-.17-.56-.33-.84-.49,0-.34,0-.67,0-1.01.28-.16.55-.33.83-.48Z"/>
      <path d="M42.19,21.75c.31.11.58.32.87.48,0,.34,0,.68,0,1.02-.29.15-.56.37-.87.47-.28-.15-.55-.32-.83-.47,0-.34,0-.67,0-1.01.28-.16.55-.33.83-.48Z"/>
      <path d="M46.52,21.74c.31.12.57.32.86.48,0,.34,0,.68,0,1.02-.29.16-.57.33-.85.49-.28-.17-.56-.33-.84-.49,0-.34,0-.67,0-1.01.28-.16.55-.33.83-.48Z"/>
      <path d="M50.85,21.75c.31.12.58.32.87.48,0,.34,0,.68,0,1.02-.29.16-.57.33-.85.49-.28-.17-.56-.33-.84-.49,0-.34,0-.67,0-1.01.28-.16.55-.33.83-.48Z"/>
      <path d="M53.02,21.74c.31.12.58.32.86.48,0,.34,0,.68,0,1.02-.29.16-.57.33-.85.49-.28-.17-.56-.33-.84-.49,0-.34,0-.67,0-1.01.28-.16.55-.33.83-.48Z"/>
      <path d="M3.22,23.91c.31.11.58.32.87.48,0,.34,0,.68,0,1.02-.29.16-.57.33-.85.49-.28-.17-.56-.33-.84-.49,0-.34,0-.67,0-1.01.28-.16.55-.33.83-.48Z"/>
      <path d="M5.39,23.91c.31.12.58.32.86.48,0,.34,0,.68,0,1.02-.29.16-.57.33-.85.49-.28-.17-.56-.33-.84-.49,0-.34,0-.67,0-1.01.28-.16.55-.33.83-.48Z"/>
      <path d="M18.38,23.91c.31.11.58.32.87.48,0,.34,0,.68,0,1.02-.29.16-.57.33-.85.49-.28-.17-.56-.33-.84-.49,0-.34,0-.67,0-1.01.28-.16.55-.33.83-.48Z"/>
      <path d="M20.54,23.91c.31.11.58.32.87.48,0,.34,0,.68,0,1.02-.29.16-.57.33-.85.49-.28-.17-.56-.33-.84-.49,0-.34,0-.67,0-1.01.28-.16.55-.33.83-.48Z"/>
      <path d="M22.71,23.91c.31.11.58.32.87.48,0,.34,0,.68,0,1.02-.29.16-.57.33-.85.49-.28-.17-.56-.33-.84-.49,0-.34,0-.67,0-1.01.28-.16.55-.33.83-.48Z"/>
      <path d="M31.37,23.91c.31.11.58.32.87.48,0,.34,0,.68,0,1.02-.29.16-.57.33-.85.49-.28-.17-.56-.33-.84-.49,0-.34,0-.67,0-1.01.28-.16.55-.33.83-.48Z"/>
      <path d="M35.7,23.91c.31.11.58.32.87.48,0,.34,0,.68,0,1.02-.29.16-.57.33-.85.49-.28-.17-.56-.33-.84-.49,0-.34,0-.67,0-1.01.28-.16.55-.33.83-.48Z"/>
      <path d="M42.19,23.91c.31.11.58.32.87.48,0,.34,0,.68,0,1.02-.29.16-.57.33-.85.49-.28-.17-.56-.33-.84-.49,0-.34,0-.67,0-1.01.28-.16.55-.33.83-.48Z"/>
      <path d="M53.02,23.91c.31.12.58.32.87.48,0,.34,0,.68,0,1.02-.29.16-.57.33-.85.49-.28-.17-.56-.33-.84-.49,0-.34,0-.67,0-1.01.28-.16.55-.33.83-.48Z"/>
      <path d="M3.23,26.07c.31.12.57.32.86.48,0,.34,0,.68,0,1.02-.29.16-.57.33-.85.49-.28-.17-.56-.33-.84-.49,0-.34,0-.67,0-1.01.28-.16.55-.33.83-.48Z"/>
      <path d="M9.72,26.08c.31.11.58.32.87.48,0,.34,0,.68,0,1.02-.29.16-.57.33-.85.49-.28-.17-.56-.33-.84-.49,0-.34,0-.67,0-1.01.28-.16.55-.33.83-.48Z"/>
      <path d="M14.05,26.08c.31.12.58.32.87.48,0,.34,0,.68,0,1.02-.29.15-.56.36-.87.47-.28-.15-.55-.32-.83-.48,0-.34,0-.67,0-1.01.28-.16.55-.33.83-.48Z"/>
      <path d="M16.21,26.08c.31.11.58.32.87.48,0,.34,0,.68,0,1.02-.29.15-.56.36-.87.47-.28-.15-.55-.32-.83-.48,0-.34,0-.67,0-1.01.28-.16.55-.33.83-.48Z"/>
      <path d="M18.38,26.08c.31.11.58.32.87.48,0,.34,0,.68,0,1.02-.29.16-.57.33-.85.49-.28-.17-.56-.33-.84-.49,0-.34,0-.67,0-1.01.28-.16.55-.33.83-.48Z"/>
      <path d="M22.71,26.08c.31.11.58.32.87.48,0,.34,0,.68,0,1.02-.28.16-.57.33-.85.49-.28-.17-.56-.33-.84-.49,0-.34,0-.67,0-1.01.28-.16.55-.33.83-.48Z"/>
      <path d="M29.2,26.08c.31.12.58.32.87.48,0,.34,0,.68,0,1.02-.29.16-.57.33-.85.49-.28-.17-.56-.33-.84-.49,0-.34,0-.67,0-1.01.28-.16.55-.33.83-.48Z"/>
      <path d="M31.37,26.08c.31.11.58.32.87.48,0,.34,0,.68,0,1.02-.29.16-.57.33-.85.49-.28-.17-.56-.33-.84-.49,0-.34,0-.67,0-1.01.28-.16.55-.33.83-.48Z"/>
      <path d="M33.53,26.08c.31.11.58.32.87.48,0,.34,0,.68,0,1.02-.29.16-.57.33-.85.49-.28-.17-.56-.33-.84-.49,0-.34,0-.67,0-1.01.28-.16.55-.33.83-.48Z"/>
      <path d="M35.7,26.07c.31.12.58.32.86.48,0,.34,0,.68,0,1.02-.29.16-.57.33-.85.49-.28-.17-.56-.33-.84-.49,0-.34,0-.67,0-1.01.28-.16.55-.33.83-.48Z"/>
      <path d="M37.86,26.08c.31.11.58.32.87.48,0,.34,0,.68,0,1.02-.29.16-.57.33-.85.49-.28-.17-.56-.33-.84-.49,0-.34,0-.67,0-1.01.28-.16.55-.33.83-.48Z"/>
      <path d="M40.03,26.08c.31.12.58.32.86.48,0,.34,0,.68,0,1.02-.29.16-.57.33-.85.49-.28-.17-.56-.33-.84-.49,0-.34,0-.67,0-1.01.28-.16.55-.33.83-.48Z"/>
      <path d="M44.36,26.07c.31.12.58.32.86.48,0,.34,0,.68,0,1.02-.29.16-.57.33-.85.49-.28-.17-.56-.33-.84-.49,0-.34,0-.67,0-1.01.28-.16.55-.33.83-.48Z"/>
      <path d="M48.69,26.08c.31.11.58.32.87.48,0,.34,0,.68,0,1.02-.29.16-.57.33-.85.49-.28-.17-.56-.33-.84-.49,0-.34,0-.67,0-1.01.28-.16.55-.33.83-.48Z"/>
      <path d="M50.85,26.08c.31.11.58.32.87.48,0,.34,0,.68,0,1.02-.28.16-.57.33-.85.49-.28-.17-.56-.33-.84-.49,0-.34,0-.67,0-1.01.28-.16.55-.33.83-.48Z"/>
      <path d="M53.02,26.08c.31.12.58.32.87.48,0,.34,0,.68,0,1.02-.29.16-.57.33-.85.49-.28-.17-.56-.33-.84-.49,0-.34,0-.67,0-1.01.28-.16.55-.33.83-.48Z"/>
      <path d="M1.06,28.24c.31.12.58.32.87.48,0,.34,0,.68,0,1.02-.28.16-.57.33-.85.49-.27-.17-.56-.33-.84-.49,0-.34,0-.67,0-1.01.28-.16.55-.33.83-.48Z"/>
      <path d="M5.39,28.24c.31.11.58.32.87.48,0,.34,0,.68,0,1.02-.28.16-.57.33-.85.49-.28-.17-.56-.33-.84-.49,0-.34,0-.67,0-1.01.28-.16.55-.33.83-.48Z"/>
      <path d="M20.54,28.24c.31.11.58.32.87.48,0,.34,0,.68,0,1.02-.29.16-.57.33-.85.49-.28-.17-.56-.33-.84-.49,0-.34,0-.67,0-1.01.28-.16.55-.33.83-.48Z"/>
      <path d="M22.71,28.24c.31.12.58.32.87.48,0,.34,0,.68,0,1.02-.28.16-.57.33-.85.49-.28-.17-.56-.33-.84-.49,0-.34,0-.67,0-1.01.28-.16.55-.33.83-.48Z"/>
      <path d="M27.04,28.24c.31.11.58.32.87.48,0,.34,0,.68,0,1.02-.28.16-.57.33-.85.49-.28-.17-.56-.33-.84-.49,0-.34,0-.67,0-1.01.28-.16.55-.33.83-.48Z"/>
      <path d="M29.2,28.24c.31.11.58.32.87.48,0,.34,0,.68,0,1.02-.29.16-.57.33-.85.49-.28-.17-.56-.33-.84-.49,0-.34,0-.67,0-1.01.28-.16.55-.33.83-.48Z"/>
      <path d="M35.7,28.24c.31.12.58.32.87.48,0,.34,0,.68,0,1.02-.28.16-.57.33-.85.49-.28-.17-.56-.33-.84-.49,0-.34,0-.67,0-1.01.28-.16.55-.33.83-.48Z"/>
      <path d="M42.19,28.24c.31.11.58.32.87.48,0,.34,0,.68,0,1.02-.29.16-.57.33-.85.49-.28-.17-.56-.33-.84-.49,0-.34,0-.67,0-1.01.28-.16.55-.33.83-.48Z"/>
      <path d="M46.52,28.24c.31.11.58.32.87.48,0,.34,0,.68,0,1.02-.29.16-.57.33-.85.49-.28-.17-.56-.33-.84-.49,0-.34,0-.67,0-1.01.28-.16.55-.33.83-.48Z"/>
      <path d="M50.85,28.24c.31.11.58.32.87.48,0,.34,0,.68,0,1.02-.29.16-.57.33-.85.49-.28-.17-.56-.33-.84-.49,0-.34,0-.67,0-1.01.28-.16.55-.33.83-.48Z"/>
      <path d="M1.06,30.41c.31.11.58.32.87.48,0,.34,0,.68,0,1.02-.28.16-.57.33-.85.49-.28-.17-.56-.33-.84-.49,0-.34,0-.67,0-1.01.28-.16.55-.33.83-.48Z"/>
      <path d="M11.88,30.41c.31.11.58.32.87.48,0,.34,0,.68,0,1.02-.28.16-.57.33-.85.49-.28-.17-.56-.33-.84-.49,0-.34,0-.67,0-1.01.28-.16.55-.33.83-.48Z"/>
      <path d="M14.05,30.4c.31.11.58.32.87.48,0,.34,0,.68,0,1.02-.29.16-.57.33-.85.49-.28-.17-.56-.33-.84-.49,0-.34,0-.67,0-1.01.28-.16.55-.33.83-.48Z"/>
      <path d="M16.22,30.4c.31.12.57.32.86.48,0,.34,0,.68,0,1.02-.28.16-.57.33-.85.49-.28-.17-.56-.33-.84-.49,0-.34,0-.67,0-1.01.28-.16.55-.33.83-.48Z"/>
      <path d="M35.7,30.4c.31.12.58.32.87.48,0,.34,0,.68,0,1.02-.29.16-.57.33-.85.49-.28-.17-.56-.33-.84-.49,0-.34,0-.67,0-1.01.28-.16.55-.33.83-.48Z"/>
      <path d="M37.86,30.4c.31.11.58.32.87.48,0,.34,0,.68,0,1.02-.29.16-.57.33-.85.49-.28-.17-.56-.33-.84-.49,0-.34,0-.67,0-1.01.28-.16.55-.33.83-.48Z"/>
      <path d="M46.52,30.41c.31.11.58.32.87.48,0,.34,0,.68,0,1.02-.29.16-.57.33-.85.49-.28-.17-.56-.33-.84-.49,0-.34,0-.67,0-1.01.28-.16.55-.33.83-.48Z"/>
      <path d="M50.85,30.41c.31.11.58.32.87.48,0,.34,0,.68,0,1.02-.29.16-.57.33-.85.49-.28-.17-.56-.33-.84-.49,0-.34,0-.67,0-1.01.28-.16.55-.33.83-.48Z"/>
      <path d="M53.02,30.41c.31.11.58.32.87.48,0,.34,0,.68,0,1.02-.29.16-.57.33-.85.49-.28-.17-.56-.33-.84-.49,0-.34,0-.67,0-1.01.28-.16.55-.33.83-.48Z"/>
      <path d="M30.74,31.46c.59-.31,1.14-.69,1.73-.98.59.3,1.15.67,1.73.98,0,.67,0,1.33,0,2-.58.32-1.15.67-1.73.99-.59-.31-1.15-.67-1.73-.98-.01-.67,0-1.34,0-2.01Z"/>
      <path d="M41.56,31.46c.58-.32,1.15-.67,1.73-.99.58.32,1.15.67,1.73.99,0,.67,0,1.33,0,2-.58.32-1.15.67-1.73.99-.59-.31-1.15-.67-1.73-.98-.01-.67,0-1.34,0-2.01Z"/>
      <path d="M1.06,32.57c.31.11.58.32.87.48,0,.34,0,.68,0,1.02-.29.16-.57.33-.85.49-.28-.17-.56-.33-.84-.49,0-.34,0-.67,0-1.01.28-.16.55-.33.83-.48Z"/>
      <path d="M7.55,32.57c.31.11.58.32.87.48,0,.34,0,.68,0,1.02-.28.16-.57.33-.85.49-.28-.17-.56-.33-.84-.49,0-.34,0-.67,0-1.01.28-.16.55-.33.83-.48Z"/>
      <path d="M27.04,32.57c.31.11.58.32.87.48,0,.34,0,.68,0,1.02-.29.16-.57.33-.85.49-.28-.17-.56-.33-.84-.49,0-.34,0-.67,0-1.01.28-.16.55-.33.83-.48Z"/>
      <path d="M35.7,32.57c.31.11.58.32.87.48,0,.34,0,.68,0,1.02-.29.16-.57.33-.85.49-.28-.17-.56-.33-.84-.49,0-.34,0-.67,0-1.01.28-.16.55-.33.83-.48Z"/>
      <path d="M40.03,32.57c.31.11.58.32.87.48,0,.34,0,.68,0,1.02-.29.16-.57.33-.85.49-.28-.17-.56-.33-.84-.49,0-.34,0-.67,0-1.01.28-.16.55-.33.83-.48Z"/>
      <path d="M53.02,32.57c.31.11.58.32.87.48,0,.34,0,.68,0,1.02-.29.16-.57.33-.85.49-.28-.17-.56-.33-.84-.49,0-.34,0-.67,0-1.01.28-.16.55-.33.83-.48Z"/>
      <path d="M17.75,33.63c.59-.31,1.14-.68,1.73-.97.59.3,1.15.67,1.73.98,0,.67,0,1.33,0,2-.58.32-1.15.67-1.73.99-.59-.31-1.15-.67-1.73-.98-.01-.67,0-1.34,0-2.01Z"/>
      <path d="M1.06,34.74c.31.11.58.32.87.48,0,.34,0,.68,0,1.02-.28.16-.57.33-.85.49-.28-.17-.56-.33-.84-.49,0-.34,0-.67,0-1.01.28-.16.55-.33.83-.48Z"/>
      <path d="M9.72,34.74c.31.11.58.32.87.48,0,.34,0,.68,0,1.02-.28.16-.57.33-.85.49-.28-.17-.56-.33-.84-.49,0-.34,0-.67,0-1.01.28-.16.55-.33.83-.48Z"/>
      <path d="M11.88,34.73c.31.11.58.32.87.48,0,.34,0,.68,0,1.02-.28.16-.57.33-.85.49-.28-.17-.56-.33-.84-.49,0-.34,0-.67,0-1.01.28-.16.55-.33.83-.48Z"/>
      <path d="M14.05,34.73c.31.12.58.32.86.48,0,.34,0,.68,0,1.02-.28.16-.57.33-.85.49-.28-.17-.56-.33-.84-.49,0-.34,0-.67,0-1.01.28-.16.55-.33.83-.48Z"/>
      <path d="M27.04,34.74c.31.11.58.32.87.48,0,.34,0,.68,0,1.02-.28.16-.57.33-.85.49-.28-.17-.56-.33-.84-.49,0-.34,0-.67,0-1.01.28-.16.55-.33.83-.48Z"/>
      <path d="M29.2,34.74c.31.11.58.32.87.48,0,.34,0,.68,0,1.02-.28.16-.57.33-.85.49-.28-.17-.56-.33-.84-.49,0-.34,0-.67,0-1.01.28-.16.55-.33.83-.48Z"/>
      <path d="M37.86,34.74c.31.11.58.32.87.48,0,.34,0,.68,0,1.02-.29.16-.57.33-.85.49-.28-.17-.56-.33-.84-.49,0-.34,0-.67,0-1.01.28-.16.55-.33.83-.48Z"/>
      <path d="M40.03,34.73c.31.12.58.32.86.48,0,.34,0,.68,0,1.02-.29.16-.57.33-.85.49-.28-.17-.56-.33-.84-.49,0-.34,0-.67,0-1.01.28-.16.55-.33.83-.48Z"/>
      <path d="M42.19,34.74c.31.11.58.32.87.48,0,.34,0,.68,0,1.02-.29.16-.57.33-.85.49-.28-.17-.56-.33-.84-.49,0-.34,0-.67,0-1.01.28-.16.55-.33.83-.48Z"/>
      <path d="M44.36,34.74c.31.11.58.32.87.48,0,.34,0,.68,0,1.02-.29.16-.57.33-.85.49-.28-.17-.56-.33-.84-.49,0-.34,0-.67,0-1.01.28-.16.55-.33.83-.48Z"/>
      <path d="M48.69,34.74c.31.11.58.32.87.48,0,.34,0,.68,0,1.02-.29.16-.57.33-.85.49-.28-.17-.56-.33-.84-.49,0-.34,0-.67,0-1.01.28-.16.55-.33.83-.48Z"/>
      <path d="M32.9,35.79c.59-.31,1.14-.68,1.73-.97.59.3,1.15.67,1.73.98,0,.67,0,1.33,0,2-.58.32-1.15.67-1.73.99-.59-.31-1.15-.67-1.73-.98-.01-.67,0-1.34,0-2.01Z"/>
      <path d="M18.38,36.9c.31.12.58.32.86.48,0,.34,0,.68,0,1.02-.28.16-.57.33-.85.49-.28-.17-.56-.33-.84-.49,0-.34,0-.67,0-1.01.28-.16.55-.33.83-.48Z"/>
      <path d="M29.2,36.9c.31.11.58.32.87.48,0,.34,0,.68,0,1.02-.29.16-.57.33-.85.49-.28-.17-.56-.33-.84-.49,0-.34,0-.67,0-1.01.28-.16.55-.33.83-.48Z"/>
      <path d="M44.36,36.9c.31.12.58.32.86.48,0,.34,0,.68,0,1.02-.29.16-.57.33-.85.49-.28-.17-.56-.33-.84-.49,0-.34,0-.67,0-1.01.28-.16.55-.33.83-.48Z"/>
      <path d="M46.52,36.9c.31.12.57.32.86.48,0,.34,0,.68,0,1.02-.29.16-.57.33-.85.49-.28-.17-.56-.33-.84-.49,0-.34,0-.67,0-1.01.28-.16.55-.33.83-.48Z"/>
      <path d="M19.92,37.96c.58-.32,1.15-.67,1.73-.99.58.32,1.15.67,1.73.99,0,.67,0,1.33,0,2-.58.32-1.15.67-1.73.99-.59-.31-1.15-.67-1.73-.98-.01-.67,0-1.34,0-2.01Z"/>
      <path d="M2.68,39.02c.2-.04.4-.05.61-.05,2.86,0,5.72,0,8.58,0,.65,0,1.31.19,1.85.55.9.59,1.46,1.66,1.44,2.73,0,2.92,0,5.83,0,8.75-.03,1.33-.97,2.57-2.23,2.96-.57.21-1.18.15-1.77.16-2.54,0-5.08,0-7.62,0-.52.02-1.04-.04-1.52-.25C.83,53.41,0,52.19,0,50.92c0-2.94,0-5.89,0-8.83.03-1.48,1.21-2.83,2.68-3.07ZM2.92,41.18c-.45.14-.78.59-.76,1.07v8.59c-.03.57.46,1.11,1.04,1.11,2.89,0,5.78,0,8.67,0,.57.04,1.11-.47,1.12-1.04,0-2.81,0-5.62,0-8.42,0-.22.02-.45-.07-.66-.16-.42-.59-.72-1.05-.7H3.28c-.12,0-.24.01-.36.05Z"/>
      <path d="M24.87,39.06c.31.11.58.32.87.48,0,.34,0,.68,0,1.02-.29.16-.57.33-.85.49-.28-.17-.56-.33-.84-.49,0-.34,0-.67,0-1.01.28-.16.55-.33.83-.48Z"/>
      <path d="M27.04,39.06c.31.12.58.32.86.48,0,.34,0,.68,0,1.02-.29.16-.57.33-.85.49-.28-.17-.56-.33-.84-.49,0-.34,0-.67,0-1.01.28-.16.55-.33.83-.48Z"/>
      <path d="M29.2,39.07c.31.11.58.32.87.48,0,.34,0,.68,0,1.02-.29.16-.57.33-.85.49-.28-.17-.56-.33-.84-.49,0-.34,0-.67,0-1.01.28-.16.55-.33.83-.48Z"/>
      <path d="M31.37,39.07c.31.11.58.32.87.48,0,.34,0,.68,0,1.02-.29.16-.57.33-.85.49-.28-.17-.56-.33-.84-.49,0-.34,0-.67,0-1.01.28-.16.55-.33.83-.48Z"/>
      <path d="M35.7,39.07c.31.11.58.32.87.48,0,.34,0,.68,0,1.02-.29.16-.57.33-.85.49-.28-.17-.56-.33-.84-.49,0-.34,0-.67,0-1.01.28-.16.55-.33.83-.48Z"/>
      <path d="M40.03,39.07c.31.11.58.32.87.48,0,.34,0,.68,0,1.02-.29.16-.57.33-.85.49-.28-.17-.56-.33-.84-.49,0-.34,0-.67,0-1.01.28-.16.55-.33.83-.48Z"/>
      <path d="M44.36,39.07c.31.11.58.32.87.48,0,.34,0,.68,0,1.02-.29.15-.56.36-.87.47-.28-.15-.55-.32-.83-.48,0-.34,0-.67,0-1.01.28-.16.55-.33.83-.48Z"/>
      <path d="M48.69,39.07c.31.11.58.32.87.48,0,.34,0,.68,0,1.02-.29.16-.57.33-.85.49-.28-.17-.56-.33-.84-.49,0-.34,0-.67,0-1.01.28-.16.55-.33.83-.48Z"/>
      <path d="M50.85,39.07c.31.11.58.32.87.48,0,.34,0,.68,0,1.02-.29.16-.57.33-.85.49-.28-.17-.56-.33-.84-.49,0-.34,0-.67,0-1.01.28-.16.55-.33.83-.48Z"/>
      <path d="M53.02,39.07c.31.11.58.32.87.48,0,.34,0,.68,0,1.02-.29.16-.57.33-.85.49-.28-.17-.56-.33-.84-.49,0-.34,0-.67,0-1.01.28-.16.55-.33.83-.48Z"/>
      <path d="M18.38,41.23c.31.11.58.32.87.48,0,.34,0,.68,0,1.02-.28.16-.57.33-.85.49-.28-.17-.56-.33-.84-.49,0-.34,0-.67,0-1.01.28-.16.55-.33.83-.48Z"/>
      <path d="M24.87,41.23c.31.11.58.32.87.48,0,.34,0,.68,0,1.02-.29.16-.57.33-.85.49-.28-.17-.56-.33-.84-.49,0-.34,0-.67,0-1.01.28-.16.55-.33.83-.48Z"/>
      <path d="M31.37,41.23c.31.11.58.32.87.48,0,.34,0,.68,0,1.02-.29.16-.57.33-.85.49-.28-.17-.56-.33-.84-.49,0-.34,0-.67,0-1.01.28-.16.55-.33.83-.48Z"/>
      <path d="M35.7,41.23c.31.11.58.32.87.48,0,.34,0,.68,0,1.02-.29.16-.57.33-.85.49-.28-.17-.56-.33-.84-.49,0-.34,0-.67,0-1.01.28-.16.55-.33.83-.48Z"/>
      <path d="M44.36,41.23c.31.11.58.32.87.48,0,.34,0,.68,0,1.02-.29.15-.56.36-.87.47-.28-.15-.55-.32-.83-.48,0-.34,0-.67,0-1.01.28-.16.55-.33.83-.48Z"/>
      <path d="M46.52,41.23c.31.11.58.32.87.48,0,.34,0,.68,0,1.02-.29.16-.57.33-.85.49-.28-.17-.56-.33-.84-.49,0-.34,0-.67,0-1.01.28-.16.55-.33.83-.48Z"/>
      <path d="M5.09,43.35c.17-.06.35-.05.53-.05,1.39,0,2.79,0,4.18,0,.57,0,1.07.54,1.03,1.11,0,1.45,0,2.89,0,4.34,0,.54-.49,1.03-1.04,1.04-1.45,0-2.89,0-4.34,0-.57.03-1.11-.46-1.11-1.04,0-1.45,0-2.9,0-4.34-.02-.47.31-.92.76-1.07Z"/>
      <path d="M18.38,43.4c.31.11.58.32.87.48,0,.34,0,.68,0,1.02-.29.16-.57.33-.85.49-.28-.17-.56-.33-.84-.49,0-.34,0-.67,0-1.01.28-.16.55-.33.83-.48Z"/>
      <path d="M22.71,43.4c.31.11.58.32.87.48,0,.34,0,.68,0,1.02-.29.16-.57.33-.85.49-.28-.17-.56-.33-.84-.49,0-.34,0-.67,0-1.01.28-.16.55-.33.83-.48Z"/>
      <path d="M24.87,43.4c.31.11.58.32.87.48,0,.34,0,.68,0,1.02-.28.16-.57.33-.85.49-.28-.17-.56-.33-.84-.49,0-.34,0-.67,0-1.01.28-.16.55-.33.83-.48Z"/>
      <path d="M33.53,43.4c.31.11.58.32.87.48,0,.34,0,.68,0,1.02-.29.16-.57.33-.85.49-.28-.17-.56-.33-.84-.49,0-.34,0-.67,0-1.01.28-.16.55-.33.83-.48Z"/>
      <path d="M40.03,43.4c.31.11.58.32.87.48,0,.34,0,.68,0,1.02-.29.16-.57.33-.85.49-.28-.17-.56-.33-.84-.49,0-.34,0-.67,0-1.01.28-.16.55-.33.83-.48Z"/>
      <path d="M42.19,43.39c.31.12.58.32.86.48,0,.34,0,.68,0,1.02-.28.16-.57.33-.85.49-.28-.17-.56-.33-.84-.49,0-.34,0-.67,0-1.01.28-.16.55-.33.83-.48Z"/>
      <path d="M44.36,43.4c.31.11.58.32.87.48,0,.34,0,.68,0,1.02-.29.16-.57.33-.85.49-.28-.17-.56-.33-.84-.49,0-.34,0-.67,0-1.01.28-.16.55-.33.83-.48Z"/>
      <path d="M53.02,43.4c.31.11.58.32.87.48,0,.34,0,.68,0,1.02-.29.16-.57.33-.85.49-.28-.17-.56-.33-.84-.49,0-.34,0-.67,0-1.01.28-.16.55-.33.83-.48Z"/>
      <path d="M35.07,44.45c.59-.31,1.14-.69,1.73-.97.59.3,1.14.67,1.73.98,0,.67,0,1.33,0,2-.58.32-1.15.67-1.73.99-.59-.31-1.15-.67-1.73-.98-.01-.67,0-1.34,0-2.01Z"/>
      <path d="M48.06,44.45c.59-.31,1.14-.69,1.73-.97.59.3,1.15.67,1.73.98,0,.67,0,1.33,0,2-.58.32-1.15.67-1.73.99-.59-.31-1.15-.67-1.73-.98-.01-.67,0-1.34,0-2.01Z"/>
      <path d="M18.38,45.56c.31.11.58.32.87.48,0,.34,0,.68,0,1.02-.28.16-.57.33-.85.49-.28-.17-.56-.33-.84-.49,0-.34,0-.67,0-1.01.28-.16.55-.33.83-.48Z"/>
      <path d="M22.71,45.56c.31.11.58.32.87.48,0,.34,0,.68,0,1.02-.29.16-.57.33-.85.49-.28-.17-.56-.33-.84-.49,0-.34,0-.67,0-1.01.28-.16.55-.33.83-.48Z"/>
      <path d="M27.04,45.56c.31.11.58.32.87.48,0,.34,0,.68,0,1.02-.29.16-.57.33-.85.49-.28-.17-.56-.33-.84-.49,0-.34,0-.67,0-1.01.28-.16.55-.33.83-.48Z"/>
      <path d="M29.2,45.56c.31.11.58.32.87.48,0,.34,0,.68,0,1.02-.29.15-.56.36-.87.47-.28-.15-.55-.32-.83-.48,0-.34,0-.67,0-1.01.28-.16.55-.33.83-.48Z"/>
      <path d="M40.03,45.56c.31.11.58.32.87.48,0,.34,0,.68,0,1.02-.29.16-.57.33-.85.49-.28-.17-.56-.33-.84-.49,0-.34,0-.67,0-1.01.28-.16.55-.33.83-.48Z"/>
      <path d="M44.36,45.56c.31.11.58.32.87.48,0,.34,0,.68,0,1.02-.28.16-.57.33-.85.49-.28-.17-.56-.33-.84-.49,0-.34,0-.67,0-1.01.28-.16.55-.33.83-.48Z"/>
      <path d="M46.52,45.56c.31.11.58.32.87.48,0,.34,0,.68,0,1.02-.29.15-.56.36-.87.47-.28-.15-.55-.32-.83-.48,0-.34,0-.67,0-1.01.28-.16.55-.33.83-.48Z"/>
      <path d="M53.02,45.56c.31.11.58.32.87.48,0,.34,0,.68,0,1.02-.29.16-.57.33-.85.49-.28-.17-.56-.33-.84-.49,0-.34,0-.67,0-1.01.28-.16.55-.33.83-.48Z"/>
      <path d="M18.38,47.73c.31.11.58.32.87.48,0,.34,0,.68,0,1.02-.29.16-.57.33-.85.49-.28-.17-.56-.33-.84-.49,0-.34,0-.67,0-1.01.28-.16.55-.33.83-.48Z"/>
      <path d="M29.2,47.72c.31.11.58.32.87.48,0,.34,0,.68,0,1.02-.29.16-.57.33-.85.49-.28-.17-.56-.33-.84-.49,0-.34,0-.67,0-1.01.28-.16.55-.33.83-.48Z"/>
      <path d="M31.37,47.73c.31.11.58.32.87.48,0,.34,0,.68,0,1.02-.29.15-.56.36-.87.47-.28-.15-.55-.32-.83-.48,0-.34,0-.67,0-1.01.28-.16.55-.33.83-.48Z"/>
      <path d="M33.53,47.72c.31.11.58.32.87.48,0,.34,0,.68,0,1.02-.29.16-.57.33-.85.49-.28-.17-.56-.33-.84-.49,0-.34,0-.67,0-1.01.28-.16.55-.33.83-.48Z"/>
      <path d="M46.52,47.72c.31.12.58.32.86.48,0,.34,0,.68,0,1.02-.28.16-.57.33-.85.49-.28-.17-.56-.33-.84-.49,0-.34,0-.67,0-1.01.28-.16.55-.33.83-.48Z"/>
      <path d="M48.69,47.72c.31.12.58.32.86.48,0,.34,0,.68,0,1.02-.29.16-.57.33-.85.49-.28-.17-.56-.33-.84-.49,0-.34,0-.67,0-1.01.28-.16.55-.33.83-.48Z"/>
      <path d="M53.02,47.72c.31.11.58.32.87.48,0,.34,0,.68,0,1.02-.29.16-.57.33-.85.49-.28-.17-.56-.33-.84-.49,0-.34,0-.67,0-1.01.28-.16.55-.33.83-.48Z"/>
      <path d="M19.92,48.78c.59-.31,1.14-.69,1.73-.97.59.3,1.14.67,1.73.98,0,.67,0,1.33,0,2-.58.32-1.15.67-1.73.99-.59-.31-1.15-.67-1.73-.98-.01-.67,0-1.34,0-2.01Z"/>
      <path d="M27.04,49.89c.31.12.58.32.87.48,0,.34,0,.68,0,1.02-.29.16-.57.33-.85.49-.28-.17-.56-.33-.84-.49,0-.34,0-.67,0-1.01.28-.16.55-.33.83-.48Z"/>
      <path d="M29.2,49.89c.31.11.58.32.87.48,0,.34,0,.68,0,1.02-.29.16-.57.33-.85.49-.28-.17-.56-.33-.84-.49,0-.34,0-.67,0-1.01.28-.16.55-.33.83-.48Z"/>
      <path d="M33.53,49.89c.31.11.58.32.87.48,0,.34,0,.68,0,1.02-.29.16-.57.33-.85.49-.28-.17-.56-.33-.84-.49,0-.34,0-.67,0-1.01.28-.16.55-.33.83-.48Z"/>
      <path d="M35.7,49.89c.31.12.58.32.86.48,0,.34,0,.68,0,1.02-.29.16-.57.33-.85.49-.28-.17-.56-.33-.84-.49,0-.34,0-.67,0-1.01.28-.16.55-.33.83-.48Z"/>
      <path d="M53.02,49.89c.31.11.58.32.87.48,0,.34,0,.68,0,1.02-.29.16-.57.33-.85.49-.28-.17-.56-.33-.84-.49,0-.34,0-.67,0-1.01.28-.16.55-.33.83-.48Z"/>
      <path d="M39.4,50.95c.59-.31,1.14-.69,1.73-.98.59.3,1.14.67,1.73.98,0,.67,0,1.33,0,2-.58.32-1.15.67-1.73.99-.59-.31-1.15-.67-1.73-.98-.01-.67,0-1.34,0-2.01Z"/>
      <path d="M43.73,50.95c.59-.31,1.14-.68,1.73-.97.59.3,1.14.67,1.73.98,0,.67,0,1.33,0,2-.58.32-1.15.67-1.73.99-.59-.31-1.15-.67-1.73-.98-.01-.67,0-1.34,0-2.01Z"/>
      <path d="M18.38,52.05c.31.11.58.32.87.48,0,.34,0,.68,0,1.02-.28.16-.57.33-.85.49-.28-.17-.56-.33-.84-.49,0-.34,0-.67,0-1.01.28-.16.55-.33.83-.48Z"/>
      <path d="M27.04,52.06c.31.11.58.32.87.48,0,.34,0,.68,0,1.02-.29.16-.57.33-.85.49-.28-.17-.56-.33-.84-.49,0-.34,0-.67,0-1.01.28-.16.55-.33.83-.48Z"/>
      <path d="M31.37,52.06c.31.11.58.32.87.48,0,.34,0,.68,0,1.02-.28.16-.57.33-.85.49-.28-.17-.56-.33-.84-.49,0-.34,0-.67,0-1.01.28-.16.55-.33.83-.48Z"/>
      <path d="M37.86,52.06c.31.11.58.32.87.48,0,.34,0,.68,0,1.02-.29.16-.57.33-.85.49-.28-.17-.56-.33-.84-.49,0-.34,0-.67,0-1.01.28-.16.55-.33.83-.48Z"/>
      <path d="M48.69,52.05c.31.11.58.32.87.48,0,.34,0,.68,0,1.02-.29.16-.57.33-.85.49-.28-.17-.56-.33-.84-.49,0-.34,0-.67,0-1.01.28-.16.55-.33.83-.48Z"/>
      <path d="M50.85,52.05c.31.11.58.32.87.48,0,.34,0,.68,0,1.02-.29.16-.57.33-.85.49-.28-.17-.56-.33-.84-.49,0-.34,0-.67,0-1.01.28-.16.55-.33.83-.48Z"/>
      <path d="M53.02,52.05c.31.11.58.32.87.48,0,.34,0,.68,0,1.02-.29.16-.57.33-.85.49-.28-.17-.56-.33-.84-.49,0-.34,0-.67,0-1.01.28-.16.55-.33.83-.48Z"/>
    </g>
  </g>
</svg>