<?xml version="1.0" encoding="UTF-8"?>
<svg id="Capa_2" data-name="Capa 2" xmlns="http://www.w3.org/2000/svg" viewBox="0 0 127.87 90.21">
  <defs>
    <style>
      .cls-1 {
        fill: #0e0e0e;
      }
    </style>
  </defs>
  <g id="Layer_1" data-name="Layer 1">
    <g>
      <path class="cls-1" d="M33.54.02C42.66,0,51.78,0,60.9.02c.02,3.03-.01,6.07-.06,9.1-9.08.01-18.16-.02-27.23.02-.05-3.04-.09-6.08-.07-9.12Z"/>
      <path class="cls-1" d="M33.6,11.3c9.08.02,18.16.02,27.24,0,.04,3.09.08,6.19.07,9.29-9.13.05-18.25.04-27.38.01-.01-3.1.03-6.2.07-9.31Z"/>
      <path class="cls-1" d="M33.54,23.1c9.12-.05,18.23-.07,27.35,0,.01,3.01,0,6.02-.02,9.03-9.1,0-18.21-.01-27.32,0,0-3.02,0-6.03,0-9.04Z"/>
      <path class="cls-1" d="M.04,34.46c8.08-.02,16.17.03,24.26-.03,1.19-.05,2.31.21,3.36.78-.16,2.74-.15,5.48-.11,8.22-9.16.32-18.34.04-27.51.16-.01-3.05-.01-6.09,0-9.13Z"/>
      <path class="cls-1" d="M33.54,43.55c-.02-3.04,0-6.07.05-9.11,9.09.04,18.17.04,27.25,0,.05,3.04.07,6.07.05,9.11-9.12.04-18.24.03-27.35,0Z"/>
      <path class="cls-1" d="M100.82,34.46c8.99,0,17.98.02,26.97-.01.02,3.04.05,6.08.04,9.13-9.01-.01-18.02-.02-27.03,0,0-3.04,0-6.08.02-9.12Z"/>
      <path class="cls-1" d="M.03,46.24c9.17.04,18.33-.12,27.49.09-.46,2.81,1.03,6.46-.76,8.78-8.9.17-17.82-.01-26.73.07.01-2.98.01-5.96,0-8.94Z"/>
      <path class="cls-1" d="M33.54,46.24c9.12,0,18.24-.02,27.36,0-.01,2.98-.02,5.95-.01,8.93-9.11,0-18.22-.01-27.34,0,0-2.98,0-5.96,0-8.93Z"/>
      <path class="cls-1" d="M66.9,46.31c9.16-.18,18.33,0,27.49-.1v8.96c-9.16-.02-18.33.05-27.49-.04.02-2.94.01-5.88,0-8.82Z"/>
      <path class="cls-1" d="M100.78,46.23c9.02,0,18.03.02,27.05-.01-.01,2.99-.01,5.98,0,8.97-9.02-.04-18.03-.03-27.04-.01,0-2.98,0-5.97-.01-8.95Z"/>
      <path class="cls-1" d="M.04,57.61c9.18.31,18.48-.68,27.58.52-.11,2.71-.12,5.42-.06,8.13-4.36,1.51-8.89.07-13.34.31-4.72.57-9.45-.3-14.19.01,0-2.99,0-5.98.01-8.97Z"/>
      <path class="cls-1" d="M33.55,57.62c9.11-.04,18.21,0,27.32-.03,0,2.94.02,5.88.04,8.82-3.83,1.08-7.77-.25-11.64.31-5.24.85-10.47-.46-15.73-.17,0-2.98,0-5.96,0-8.93Z"/>
      <path class="cls-1" d="M66.81,58.08c9.12-1.08,18.4-.18,27.59-.48.01,2.96,0,5.93-.01,8.9-9.16.8-18.32.09-27.51-.05.05-2.79.03-5.59-.07-8.37Z"/>
      <path class="cls-1" d="M100.87,67.11c-.07-3.18-.11-6.35-.06-9.52,9,.02,18,.02,27,0,.01,3.02,0,6.04.06,9.06-8.97,1.16-18.04-.61-27,.45Z"/>
      <path class="cls-1" d="M.03,69.22c9.17.06,18.34-.1,27.51.09-.02,2.99-.02,5.98,0,8.98-9.17.26-18.34.07-27.51.11-.01-3.06,0-6.12,0-9.18Z"/>
      <path class="cls-1" d="M33.54,69.23c9.12-.02,18.24-.01,27.35,0v9.15c-9.11.07-18.22.05-27.33,0-.02-3.05-.03-6.11-.02-9.16Z"/>
      <path class="cls-1" d="M66.89,69.31c9.17-.18,18.34-.04,27.51-.08,0,3.05.01,6.1.02,9.15-9.17.03-18.36.16-27.53-.08.02-3,.02-5.99,0-8.99Z"/>
      <path class="cls-1" d="M100.79,69.22c9.01.01,18.02.01,27.04,0,0,3.06-.01,6.12-.01,9.18-9.01.02-18.02.03-27.03-.01v-9.17Z"/>
      <path class="cls-1" d="M.05,80.7c9.17.15,18.36-.32,27.51.27-.48,2.95,1.1,6.75-1.2,9.05-8.62.26-17.26-.13-25.88.19-.73-3.13-.41-6.34-.43-9.51Z"/>
      <path class="cls-1" d="M33.55,80.7c9.11-.01,18.22-.01,27.33,0,.05,3.13,0,6.27-.1,9.41-9.04-.02-18.08-.03-27.12,0-.1-3.14-.15-6.27-.11-9.41Z"/>
      <path class="cls-1" d="M66.87,80.94c9.16-.51,18.35-.11,27.52-.23-.01,3.17.28,6.38-.47,9.49-8.6-.3-17.21.09-25.81-.19-2.46-2.15-.7-6.13-1.24-9.07Z"/>
      <path class="cls-1" d="M100.85,90.1c-.06-3.14-.08-6.28-.05-9.42,9.01.04,18.02.01,27.02.02.04,3.14-.01,6.28-.09,9.42-8.96-.04-17.92-.02-26.88-.02Z"/>
    </g>
  </g>
</svg>