<?xml version="1.0" encoding="UTF-8"?>
<svg id="Capa_2" data-name="Capa 2" xmlns="http://www.w3.org/2000/svg" viewBox="0 0 108.38 108.38">
  <defs>
    <style>
      .cls-1 {
        fill: #4288c6;
      }

      .cls-2 {
        fill: #a1cd38;
      }

      .cls-3 {
        fill: #6d429b;
      }

      .cls-4 {
        fill: #26b34b;
      }

      .cls-5 {
        fill: #fde404;
      }

      .cls-6 {
        fill: #009899;
      }

      .cls-7 {
        fill: #c4047e;
      }

      .cls-8 {
        fill: #f17223;
      }

      .cls-9 {
        fill: #464ea1;
      }

      .cls-10 {
        fill: #e32322;
      }
    </style>
  </defs>
  <g id="Layer_1" data-name="Layer 1">
    <g>
      <g>
        <path class="cls-5" d="M40.97,1.63c8.63-2.18,17.79-2.16,26.42-.02-1.77,6.6-3.52,13.21-5.31,19.8-.26.9-.39,1.84-.77,2.7-4.66-1.15-9.62-1.11-14.28,0-2.07-7.48-4.01-15-6.06-22.48Z"/>
        <path class="cls-5" d="M69,2.12c.45.05.9.18,1.33.33,6.69,2.1,13.01,5.48,18.38,10-4.2,3.44-8.36,6.94-12.58,10.35-.77-.98-1.57-1.92-2.36-2.88-.97-1.21-2.54-1.92-4.09-1.8-1.6.08-3.13,1.01-3.92,2.41-.9,1.51-.89,3.52.06,5.01-.91-.37-1.84-.66-2.77-.95.04-.61.24-1.18.4-1.76,1.86-6.89,3.7-13.79,5.54-20.69Z"/>
      </g>
      <path class="cls-2" d="M38.77,2.23c.2-.04.4-.08.61-.11,1.27,4.83,2.58,9.65,3.85,14.48.7,2.67,1.52,5.31,2.09,8-4.54,1.28-8.72,3.75-12.18,6.95-.19.24-.43-.04-.58-.17-5.25-5.29-10.54-10.53-15.79-15.82-.45-.35.2-.72.44-.97,6.09-5.73,13.54-10.01,21.56-12.37Z"/>
      <path d="M88.71,12.45c1.87-1.48,4.39-2.1,6.73-1.65,2.48.44,4.71,2.07,5.9,4.29,1.73,3.1,1.19,7.27-1.31,9.8-1.74,1.6-3.63,3.03-5.43,4.55-2.57,2.14-5.17,4.23-7.71,6.4.85,1.01,1.69,2.03,2.52,3.05,1.06,1.33,1.29,3.22.67,4.79-.41,1.01-1.18,1.85-2.11,2.42-.83.44-1.77.62-2.71.61-1.56-.08-2.97-1-3.86-2.25-.8-.98-1.61-1.95-2.42-2.93-7.79,6.43-15.59,12.87-23.38,19.3-.93.76-1.82,1.59-2.89,2.16-2.18,1.19-4.67,1.85-7.16,1.83-.72.56-1.4,1.17-2.14,1.7-1.74,1.19-4.3.88-5.72-.67-1.38-1.42-1.62-3.77-.57-5.44.65-1.07,1.78-1.68,2.68-2.51.67-3.02,2.13-5.96,4.5-8,8.25-6.79,16.47-13.62,24.74-20.4-1.02-1.37-2.21-2.61-3.21-4-.95-1.49-.96-3.49-.06-5.01.79-1.4,2.32-2.33,3.92-2.41,1.55-.11,3.12.59,4.09,1.8.78.96,1.59,1.91,2.36,2.88,4.23-3.41,8.38-6.91,12.58-10.35ZM45.98,51.81c-.42.34-.79.73-1.14,1.14-1.13,1.43-2,3.1-2.4,4.89-.11.47-.1.97-.28,1.42-.85.76-1.8,1.42-2.65,2.19-.73.72-.69,2.02.06,2.72.65.71,1.86.76,2.6.15.85-.69,1.7-1.39,2.57-2.07,3.19.28,6.5-.81,8.83-3.01,1.95-1.61,3.9-3.22,5.86-4.83.19-.17.37-.35.53-.56.19,0,.31-.19.47-.28,5.64-4.65,11.27-9.33,16.93-13.96-2.17-2.77-4.47-5.44-6.69-8.17-8.24,6.77-16.45,13.58-24.68,20.36Z"/>
      <path class="cls-4" d="M14.59,17.2c.26-.24.63-.89.98-.43,5.31,5.29,10.59,10.59,15.89,15.88.06.09.17.27.22.36-3.3,3.45-5.77,7.72-7.1,12.31-.81-.1-1.59-.38-2.38-.58-6.7-1.79-13.39-3.61-20.1-5.37.67-2.82,1.8-5.51,2.98-8.15,2.41-5.14,5.64-9.88,9.51-14.03Z"/>
      <g>
        <path class="cls-8" d="M94.6,29.45c1.8-1.53,3.69-2.95,5.43-4.55-.02.07-.06.22-.08.29,2.26,3.54,4.09,7.36,5.47,11.33.33.94.66,1.88.84,2.86-5.4,1.42-10.78,2.89-16.17,4.32.62-1.58.39-3.46-.67-4.79-.83-1.02-1.67-2.04-2.52-3.05,2.54-2.17,5.15-4.26,7.71-6.4Z"/>
        <path class="cls-8" d="M89.56,45.58c5.73-1.53,11.46-3.09,17.2-4.6,2.15,8.63,2.16,17.79,0,26.41-7.5-1.98-14.98-4.03-22.48-6,1.04-4.5,1.1-9.23.15-13.75-.04-.14-.13-.43-.18-.57.33-.14.67-.28,1.03-.35.94,0,1.88-.18,2.71-.61.5-.25,1.04-.41,1.58-.53Z"/>
      </g>
      <path class="cls-6" d="M1.61,67.41c-2.14-8.64-2.16-17.79,0-26.42,7.49,1.98,14.96,4.06,22.47,5.97-1.06,4.74-1.11,9.72.01,14.45-7.51,1.93-14.99,4-22.48,6Z"/>
      <g>
        <path class="cls-1" d="M42.44,57.83c.4-1.79,1.27-3.45,2.4-4.89,5.03.37,10.09.5,15.12.91-.16.2-.33.39-.53.56-1.96,1.61-3.91,3.22-5.86,4.83-2.34,2.2-5.65,3.29-8.83,3.01-.87.67-1.71,1.38-2.57,2.07-.74.61-1.95.56-2.6-.15-.75-.7-.79-2-.06-2.72.84-.77,1.79-1.43,2.65-2.19.18-.45.16-.95.28-1.42Z"/>
        <path class="cls-1" d="M2.68,68.85c7.3-1.92,14.57-3.94,21.88-5.82,1.33,4.54,3.77,8.73,6.97,12.21.27.19-.04.43-.17.58-5.29,5.3-10.58,10.59-15.89,15.87-.22.27-.44-.05-.6-.2-5.94-6.25-10.38-13.94-12.74-22.23-.17-.35.37-.31.55-.4Z"/>
      </g>
      <path class="cls-10" d="M83.8,63.04c2.36.51,4.66,1.23,7,1.82,5.16,1.38,10.31,2.77,15.47,4.13-.51,2.23-1.38,4.37-2.24,6.49-2.56,5.99-6.22,11.52-10.75,16.21-.18.25-.43-.06-.57-.19-5.34-5.35-10.69-10.69-16.03-16.04,3.22-3.57,5.8-7.78,7.13-12.43Z"/>
      <path class="cls-9" d="M21.7,87.87c3.76-3.74,7.48-7.51,11.25-11.23,3.48,3.34,7.78,5.81,12.39,7.18-1.96,7.52-3.98,15.03-6.02,22.52-7.16-2.08-13.92-5.6-19.66-10.37-1.1-.9-2.14-1.86-3.19-2.82,1.68-1.81,3.49-3.51,5.22-5.27Z"/>
      <path class="cls-7" d="M75.4,76.64c5.34,5.25,10.6,10.58,15.91,15.87.21.19.39.41.52.67-6.38,6.15-14.26,10.72-22.78,13.14-1.36-4.89-2.64-9.81-3.96-14.71-.68-2.6-1.44-5.18-2.05-7.79,4.6-1.38,8.91-3.83,12.37-7.17Z"/>
      <path class="cls-3" d="M46.96,84.29c3.95.86,8.05,1.08,12.05.43.8-.12,1.59-.31,2.39-.43,1.96,7.5,4.01,14.98,6,22.47-8.63,2.16-17.79,2.17-26.43,0,1.3-4.87,2.61-9.73,3.91-14.6.67-2.63,1.46-5.23,2.08-7.87Z"/>
    </g>
  </g>
</svg>