<?xml version="1.0" encoding="UTF-8"?>
<svg id="Capa_2" data-name="Capa 2" xmlns="http://www.w3.org/2000/svg" viewBox="0 0 113.02 113.02">
  <defs>
    <style>
      .cls-1 {
        fill: #fff;
      }

      .cls-2 {
        fill: #656497;
      }
    </style>
  </defs>
  <g id="objects">
    <path class="cls-2" d="M56.51,0C25.35,0,0,25.35,0,56.51s25.35,56.51,56.51,56.51,56.51-25.35,56.51-56.51S87.67,0,56.51,0Z"/>
    <path class="cls-1" d="M40.63,82.27c-.26,0-.53-.07-.76-.2-.48-.27-.77-.78-.77-1.33v-48.46c0-.55.29-1.06.77-1.33.48-.28,1.06-.27,1.54,0l41.43,24.23c.47.28.76.78.76,1.32s-.29,1.05-.76,1.32l-41.43,24.23c-.24.14-.51.21-.77.21ZM42.17,34.95v43.11l36.86-21.56-36.86-21.56Z"/>
  </g>
</svg>