<?xml version="1.0" encoding="UTF-8"?>
<svg id="Capa_2" data-name="Capa 2" xmlns="http://www.w3.org/2000/svg" viewBox="0 0 2350 711.94">
  <defs>
    <style>
      .cls-1 {
        fill: #ea4335;
      }

      .cls-2, .cls-3 {
        fill: #fff;
      }

      .cls-4 {
        fill: #fbbc04;
      }

      .cls-5 {
        fill: #4285f4;
      }

      .cls-6 {
        fill: #34a853;
      }

      .cls-3 {
        stroke: #000;
        stroke-miterlimit: 10;
        stroke-width: 2px;
      }
    </style>
  </defs>
  <g id="_Ñëîé_1" data-name="Ñëîé 1">
    <g>
      <rect width="2350" height="711.94" rx="144.41" ry="144.41"/>
      <path class="cls-4" d="M544.52,311.92c34.39,19.59,34.35,69.17-.06,88.71l-91.93,52.18-98.17-97.22,98.5-95.87,91.67,52.21Z"/>
      <path class="cls-6" d="M452.85,259.71l-98.5,95.87-189.9-188.06c8.85-30.28,44.65-46.63,74.22-29.79l214.19,121.98Z"/>
      <path class="cls-1" d="M354.36,355.59l98.17,97.22-213.93,121.44c-30.58,17.36-67.78-.75-74.97-33.01l190.72-185.65Z"/>
      <path class="cls-5" d="M354.36,355.59l-190.72,185.65c-.81-3.62-1.24-7.41-1.24-11.36V182.07c0-5.12.72-9.99,2.06-14.54l189.9,188.06Z"/>
      <path class="cls-2" d="M682.73,246.15l41.24-107.37h15.31l43.95,107.37h-16.19l-12.52-32.52h-44.9l-11.79,32.52h-15.09ZM713.71,202.05h36.4l-11.21-29.74c-3.42-9.03-5.96-16.45-7.62-22.27-1.37,6.88-3.3,13.72-5.79,20.51l-11.79,31.49Z"/>
      <path class="cls-2" d="M814.13,246.15l-41.6-107.37h15.38l27.91,78c2.25,6.25,4.12,12.11,5.64,17.58,1.66-5.86,3.59-11.72,5.79-17.58l29-78h14.5l-42.04,107.37h-14.58Z"/>
      <path class="cls-2" d="M860.56,246.15l41.24-107.37h15.31l43.95,107.37h-16.19l-12.52-32.52h-44.9l-11.79,32.52h-15.09ZM891.54,202.05h36.4l-11.21-29.74c-3.42-9.03-5.96-16.45-7.62-22.27-1.37,6.88-3.3,13.72-5.79,20.51l-11.79,31.49Z"/>
      <path class="cls-2" d="M974.82,246.15v-107.37h14.21v107.37h-14.21Z"/>
      <path class="cls-2" d="M1013.49,246.15v-107.37h14.21v94.7h52.88v12.67h-67.09Z"/>
      <path class="cls-2" d="M1085.71,246.15l41.24-107.37h15.31l43.95,107.37h-16.19l-12.52-32.52h-44.9l-11.79,32.52h-15.09ZM1116.69,202.05h36.4l-11.21-29.74c-3.42-9.03-5.96-16.45-7.62-22.27-1.37,6.88-3.3,13.72-5.79,20.51l-11.79,31.49Z"/>
      <path class="cls-2" d="M1196.96,246.15v-107.37h40.28c8.2,0,14.78,1.09,19.74,3.26,4.96,2.17,8.84,5.52,11.65,10.03,2.81,4.52,4.21,9.24,4.21,14.17,0,4.59-1.25,8.91-3.74,12.96-2.49,4.05-6.25,7.32-11.28,9.81,6.49,1.9,11.49,5.15,14.98,9.74,3.49,4.59,5.24,10.01,5.24,16.26,0,5.03-1.06,9.7-3.19,14.03-2.12,4.32-4.75,7.65-7.87,10-3.12,2.34-7.04,4.11-11.76,5.31-4.71,1.2-10.49,1.79-17.32,1.79h-40.94ZM1211.17,183.89h23.22c6.3,0,10.81-.41,13.55-1.25,3.61-1.07,6.34-2.86,8.17-5.35,1.83-2.49,2.75-5.61,2.75-9.38,0-3.56-.85-6.7-2.56-9.41-1.71-2.71-4.15-4.57-7.32-5.57-3.17-1-8.62-1.5-16.33-1.5h-21.46v32.45ZM1211.17,233.48h26.73c4.59,0,7.81-.17,9.67-.51,3.27-.59,6.01-1.56,8.2-2.93,2.2-1.37,4-3.36,5.42-5.97,1.42-2.61,2.12-5.63,2.12-9.05,0-4-1.03-7.48-3.08-10.44-2.05-2.95-4.9-5.03-8.53-6.23-3.64-1.2-8.87-1.79-15.71-1.79h-24.83v36.91Z"/>
      <path class="cls-2" d="M1297.01,246.15v-107.37h14.21v94.7h52.88v12.67h-67.09Z"/>
      <path class="cls-2" d="M1381.31,246.15v-107.37h77.64v12.67h-63.43v32.89h59.4v12.6h-59.4v36.55h65.92v12.67h-80.13Z"/>
      <path class="cls-2" d="M1518.42,193.85c0-17.82,4.79-31.77,14.36-41.86,9.57-10.08,21.92-15.12,37.06-15.12,9.91,0,18.85,2.37,26.81,7.1,7.96,4.74,14.03,11.34,18.2,19.81,4.18,8.47,6.26,18.08,6.26,28.82s-2.2,20.63-6.59,29.22c-4.39,8.59-10.62,15.1-18.68,19.52-8.06,4.42-16.75,6.63-26.07,6.63-10.11,0-19.14-2.44-27.1-7.32-7.96-4.88-13.99-11.55-18.09-20-4.1-8.45-6.15-17.38-6.15-26.81ZM1533.07,194.07c0,12.94,3.48,23.13,10.44,30.58,6.96,7.45,15.69,11.17,26.18,11.17s19.49-3.76,26.4-11.28c6.91-7.52,10.36-18.19,10.36-32.01,0-8.74-1.48-16.37-4.43-22.89-2.95-6.52-7.28-11.57-12.96-15.16-5.69-3.59-12.07-5.38-19.15-5.38-10.06,0-18.71,3.46-25.96,10.36-7.25,6.91-10.88,18.45-10.88,34.61Z"/>
      <path class="cls-2" d="M1639.27,246.15v-107.37h14.58l56.4,84.3v-84.3h13.62v107.37h-14.58l-56.4-84.38v84.38h-13.62Z"/>
      <path class="cls-3" d="M798.34,437.53v-23.52l84.9-.14v74.38c-13.04,10.39-26.48,18.21-40.33,23.45-13.86,5.24-28.07,7.86-42.66,7.86-19.69,0-37.58-4.21-53.66-12.65-16.09-8.43-28.23-20.62-36.44-36.57-8.2-15.95-12.3-33.77-12.3-53.46s4.08-37.71,12.24-54.62c8.16-16.91,19.89-29.46,35.21-37.67,15.31-8.2,32.95-12.3,52.91-12.3,14.49,0,27.59,2.35,39.31,7.04,11.71,4.7,20.89,11.23,27.55,19.62,6.65,8.39,11.71,19.32,15.18,32.81l-23.93,6.56c-3.01-10.21-6.75-18.23-11.21-24.06-4.47-5.83-10.85-10.5-19.14-14.01-8.29-3.51-17.5-5.26-27.62-5.26-12.12,0-22.61,1.85-31.45,5.54-8.84,3.69-15.97,8.54-21.4,14.56-5.42,6.02-9.64,12.62-12.65,19.82-5.11,12.4-7.66,25.84-7.66,40.33,0,17.87,3.08,32.81,9.23,44.84,6.15,12.03,15.11,20.96,26.87,26.8,11.76,5.83,24.24,8.75,37.46,8.75,11.48,0,22.7-2.21,33.63-6.63,10.94-4.42,19.23-9.14,24.88-14.15v-37.32h-58.93Z"/>
      <path class="cls-3" d="M910.04,443.55c0-26.89,7.47-46.8,22.42-59.75,12.49-10.75,27.71-16.13,45.66-16.13,19.96,0,36.28,6.54,48.95,19.62,12.67,13.08,19,31.15,19,54.21,0,18.69-2.8,33.38-8.41,44.09-5.61,10.71-13.76,19.03-24.47,24.95-10.71,5.92-22.4,8.89-35.07,8.89-20.33,0-36.76-6.52-49.29-19.55-12.53-13.03-18.8-31.81-18.8-56.33ZM935.33,443.55c0,18.59,4.05,32.52,12.17,41.77,8.11,9.25,18.32,13.88,30.62,13.88s22.38-4.65,30.49-13.95c8.11-9.3,12.17-23.47,12.17-42.52,0-17.96-4.08-31.56-12.24-40.81-8.16-9.25-18.3-13.88-30.42-13.88s-22.51,4.6-30.62,13.81c-8.11,9.21-12.17,23.11-12.17,41.7Z"/>
      <path class="cls-3" d="M1065.76,443.55c0-26.89,7.47-46.8,22.42-59.75,12.49-10.75,27.71-16.13,45.66-16.13,19.96,0,36.28,6.54,48.95,19.62,12.67,13.08,19,31.15,19,54.21,0,18.69-2.8,33.38-8.41,44.09-5.61,10.71-13.76,19.03-24.47,24.95-10.71,5.92-22.4,8.89-35.07,8.89-20.33,0-36.76-6.52-49.29-19.55-12.53-13.03-18.8-31.81-18.8-56.33ZM1091.05,443.55c0,18.59,4.05,32.52,12.17,41.77,8.11,9.25,18.32,13.88,30.62,13.88s22.38-4.65,30.49-13.95c8.11-9.3,12.17-23.47,12.17-42.52,0-17.96-4.08-31.56-12.24-40.81-8.16-9.25-18.3-13.88-30.42-13.88s-22.51,4.6-30.62,13.81c-8.11,9.21-12.17,23.11-12.17,41.7Z"/>
      <path class="cls-3" d="M1226.13,528.18l23.93,3.55c1,7.38,3.78,12.76,8.34,16.13,6.11,4.56,14.45,6.84,25.02,6.84,11.39,0,20.19-2.28,26.39-6.84,6.2-4.56,10.39-10.94,12.58-19.14,1.28-5.01,1.87-15.54,1.78-31.58-10.76,12.67-24.15,19-40.2,19-19.96,0-35.41-7.2-46.35-21.6-10.94-14.4-16.41-31.67-16.41-51.82,0-13.85,2.51-26.64,7.52-38.35,5.01-11.71,12.28-20.76,21.81-27.14,9.52-6.38,20.71-9.57,33.56-9.57,17.13,0,31.26,6.93,42.38,20.78v-17.5h22.7v125.51c0,22.6-2.3,38.62-6.9,48.06-4.6,9.43-11.89,16.88-21.88,22.35-9.98,5.47-22.26,8.2-36.85,8.2-17.32,0-31.31-3.9-41.97-11.69-10.66-7.79-15.81-19.53-15.45-35.21ZM1246.5,440.95c0,19.05,3.78,32.95,11.35,41.7,7.56,8.75,17.04,13.12,28.44,13.12s20.78-4.35,28.44-13.06c7.66-8.7,11.48-22.35,11.48-40.95s-3.94-31.17-11.83-40.2c-7.88-9.02-17.39-13.54-28.51-13.54s-20.23,4.44-27.89,13.33c-7.66,8.89-11.48,22.08-11.48,39.58Z"/>
      <path class="cls-3" d="M1385.82,516.15v-200.43h24.61v200.43h-24.61Z"/>
      <path class="cls-3" d="M1547.97,469.39l25.43,3.14c-4.01,14.86-11.44,26.39-22.29,34.59-10.85,8.2-24.7,12.3-41.56,12.3-21.24,0-38.08-6.54-50.52-19.62-12.44-13.08-18.66-31.42-18.66-55.03s6.29-43.38,18.87-56.88c12.58-13.49,28.89-20.23,48.95-20.23s35.27,6.61,47.58,19.82c12.3,13.22,18.46,31.81,18.46,55.78,0,1.46-.05,3.65-.14,6.56h-108.28c.91,15.95,5.42,28.16,13.54,36.64,8.11,8.48,18.23,12.71,30.35,12.71,9.02,0,16.72-2.37,23.11-7.11,6.38-4.74,11.44-12.3,15.18-22.7ZM1467.17,429.6h81.07c-1.09-12.21-4.19-21.37-9.3-27.48-7.84-9.48-18-14.22-30.49-14.22-11.3,0-20.8,3.78-28.51,11.35-7.7,7.57-11.96,17.68-12.78,30.35Z"/>
      <path class="cls-3" d="M1685.23,516.15v-200.43h75.61c13.31,0,23.47.64,30.49,1.91,9.84,1.64,18.09,4.76,24.75,9.37,6.65,4.6,12.01,11.05,16.06,19.35,4.05,8.3,6.08,17.41,6.08,27.34,0,17.04-5.42,31.47-16.27,43.27-10.85,11.8-30.44,17.71-58.79,17.71h-51.41v81.48h-26.52ZM1711.76,411.01h51.82c17.13,0,29.3-3.19,36.5-9.57,7.2-6.38,10.8-15.36,10.8-26.93,0-8.38-2.12-15.56-6.36-21.53-4.24-5.97-9.82-9.91-16.75-11.83-4.47-1.18-12.71-1.78-24.75-1.78h-51.27v71.64Z"/>
      <path class="cls-3" d="M1868.3,516.15v-200.43h24.61v200.43h-24.61Z"/>
      <path class="cls-3" d="M2025.8,498.24c-9.12,7.75-17.89,13.22-26.32,16.41-8.43,3.19-17.48,4.79-27.14,4.79-15.95,0-28.21-3.9-36.78-11.69-8.57-7.79-12.85-17.75-12.85-29.87,0-7.11,1.62-13.6,4.85-19.48,3.23-5.88,7.47-10.6,12.71-14.15,5.24-3.55,11.14-6.24,17.7-8.07,4.83-1.28,12.12-2.51,21.88-3.69,19.87-2.37,34.5-5.2,43.89-8.48.09-3.37.14-5.51.14-6.43,0-10.03-2.32-17.09-6.97-21.19-6.29-5.56-15.63-8.34-28.03-8.34-11.58,0-20.12,2.03-25.63,6.08-5.52,4.06-9.59,11.23-12.24,21.53l-24.06-3.28c2.19-10.3,5.79-18.62,10.8-24.95,5.01-6.33,12.26-11.21,21.74-14.63,9.48-3.42,20.46-5.13,32.95-5.13s22.47,1.46,30.21,4.38c7.75,2.92,13.44,6.59,17.09,11.01,3.64,4.42,6.2,10,7.66,16.75.82,4.19,1.23,11.76,1.23,22.7v32.81c0,22.88.52,37.35,1.57,43.41,1.05,6.06,3.12,11.87,6.22,17.43h-25.7c-2.55-5.1-4.19-11.07-4.92-17.91ZM2023.75,443.28c-8.93,3.65-22.33,6.75-40.2,9.3-10.12,1.46-17.27,3.1-21.46,4.92-4.19,1.82-7.43,4.49-9.71,8-2.28,3.51-3.42,7.41-3.42,11.69,0,6.56,2.48,12.03,7.45,16.41,4.97,4.38,12.24,6.56,21.81,6.56s17.91-2.07,25.29-6.22c7.38-4.15,12.8-9.82,16.27-17.02,2.64-5.56,3.96-13.76,3.96-24.61v-9.02Z"/>
      <path class="cls-3" d="M2085.68,572.06l-2.73-23.11c5.38,1.46,10.07,2.19,14.08,2.19,5.47,0,9.84-.91,13.12-2.73,3.28-1.82,5.97-4.38,8.07-7.66,1.55-2.46,4.05-8.57,7.52-18.32.46-1.37,1.18-3.37,2.19-6.02l-55.1-145.47h26.52l30.21,84.08c3.92,10.66,7.43,21.88,10.53,33.63,2.82-11.3,6.2-22.33,10.12-33.09l31.04-84.63h24.61l-55.23,147.66c-5.93,15.95-10.53,26.93-13.81,32.95-4.38,8.11-9.39,14.06-15.04,17.84-5.65,3.78-12.4,5.67-20.23,5.67-4.74,0-10.03-1-15.86-3.01Z"/>
    </g>
  </g>
</svg>