<?xml version="1.0" encoding="UTF-8"?>
<svg id="Capa_2" data-name="Capa 2" xmlns="http://www.w3.org/2000/svg" viewBox="0 0 107.78 107.8">
  <defs>
    <style>
      .cls-1 {
        fill: #eb3d3f;
      }

      .cls-2 {
        fill: #828f99;
      }

      .cls-3 {
        fill: #85d12c;
      }

      .cls-4 {
        fill: #6d7caf;
      }

      .cls-5 {
        fill: #fba417;
      }

      .cls-6 {
        fill: #1aabd7;
      }
    </style>
  </defs>
  <g id="Layer_1" data-name="Layer 1">
    <g>
      <path class="cls-2" d="M70.94,72.52l28.14-48.02c5.7,8.75,8.7,18.84,8.7,29.3,0,6.49-1.17,12.95-3.39,18.72h-33.46Z"/>
      <path class="cls-5" d="M6.28,28.54C14.32,13.82,28.99,3.23,45.14.57l16.15,27.97H6.28Z"/>
      <path class="cls-1" d="M51.1.04c.92-.03,1.85-.04,2.79-.04,16.24,0,31.37,7.17,41.66,19.7l-16.65,28.54L51.1.04Z"/>
      <path class="cls-6" d="M8.69,83.24C3,74.5,0,64.39,0,53.89c0-6.77,1.29-13.58,3.74-19.75h33.12l-8.26,14.69-.33.52-19.56,33.89Z"/>
      <path class="cls-4" d="M46.02,78.12h55.98c-7.67,15.39-22.21,26.09-39.36,28.88l-16.62-28.88Z"/>
      <path class="cls-3" d="M53.89,107.8c-16.23,0-31.37-7.18-41.67-19.73l16.84-29.17,27.64,48.82c-.98.05-1.91.08-2.81.08Z"/>
    </g>
  </g>
</svg>