<?xml version="1.0" encoding="UTF-8"?>
<svg id="Capa_2" data-name="Capa 2" xmlns="http://www.w3.org/2000/svg" viewBox="0 0 480.71 91.56">
  <g id="Layer_1" data-name="Layer 1">
    <path d="M239.37,49.79V11.29c-3.9,0-13.44.18-26.51,1.82V2.66s13.71-2.09,29.78-1.91l9.53.09v48.94h-12.8Z"/>
    <path d="M41.68,50.04c-27.54,0-41.68-3.58-41.68-3.58V.37h12.76v37.64c6.52.83,15.98,1.56,28.92,1.56,15.33.09,24.97-.92,28.74-1.38V.37h12.85v46.09s-13.59,3.58-41.59,3.58Z"/>
    <path d="M184.63,49.67V12.03c-6.52-.83-15.98-1.56-28.83-1.56-15.24-.09-25.06,1.01-28.83,1.47v37.73h-12.76V3.67s13.59-3.67,41.59-3.67,41.68,3.67,41.68,3.67v46h-12.85Z"/>
    <path d="M325.19,50.04c-26.9,0-41.13-3.58-41.13-3.58V3.95s13.96-3.58,41.13-3.58,41.13,3.58,41.13,3.58v10.47s-15.42-3.49-41.13-3.58c-15.06,0-24.6.92-28.46,1.38l.09,25.98c3.58.46,12.67,1.38,28.19,1.38,26.44,0,41.31-3.67,41.31-3.67v10.56s-14.41,3.58-41.13,3.58Z"/>
    <path d="M439.58,50.13c-27.08-.09-41.13-3.58-41.13-3.58V4.13s13.31-3.58,41.13-3.58,41.13,3.58,41.13,3.58v42.51s-14.32,3.49-41.13,3.49ZM439.49,11.02c-15.06-.09-24.7.92-28.37,1.38v25.98c4.04.46,14.32,1.47,28.55,1.47,12.76,0,21.85-.64,28.18-1.38l.09-25.98v.09c-6.43-.83-15.79-1.56-28.46-1.56Z"/>
    <g>
      <path d="M.12,91.41v-17.02h1.8v17.02H.12Z"/>
      <path d="M14.76,91.41v-17.02h6.93c1.81,0,3.41.36,4.78,1.08,1.37.72,2.44,1.72,3.2,3,.76,1.28,1.14,2.76,1.14,4.43s-.38,3.15-1.14,4.43c-.76,1.28-1.83,2.28-3.2,3-1.37.72-2.96,1.08-4.78,1.08h-6.93ZM16.56,89.86h5.03c1.51,0,2.82-.29,3.93-.89,1.11-.59,1.97-1.41,2.59-2.46.62-1.05.92-2.25.92-3.61s-.31-2.59-.92-3.62c-.62-1.04-1.48-1.85-2.59-2.44-1.11-.59-2.42-.89-3.93-.89h-5.03v13.91Z"/>
      <path d="M42.14,91.41v-17.02h11.67v1.56h-9.87v13.91h10.24v1.56h-12.04ZM43.74,83.54v-1.53h9v1.53h-9Z"/>
      <path d="M65.7,91.41v-17.02h1.48l11.75,14.79h-.78v-14.79h1.78v17.02h-1.48l-11.72-14.78h.78v14.78h-1.8Z"/>
      <path d="M96.08,91.41v-15.47h-5.98v-1.56h13.76v1.56h-5.98v15.47h-1.8Z"/>
      <path d="M114.02,91.41v-17.02h1.8v17.02h-1.8Z"/>
      <path d="M128.66,91.41v-17.02h6.93c1.81,0,3.41.36,4.78,1.08,1.37.72,2.44,1.72,3.2,3,.76,1.28,1.14,2.76,1.14,4.43s-.38,3.15-1.14,4.43c-.76,1.28-1.83,2.28-3.2,3-1.37.72-2.96,1.08-4.78,1.08h-6.93ZM130.46,89.86h5.03c1.51,0,2.82-.29,3.93-.89,1.11-.59,1.97-1.41,2.59-2.46.62-1.05.92-2.25.92-3.61s-.31-2.59-.92-3.62c-.62-1.04-1.48-1.85-2.59-2.44-1.11-.59-2.42-.89-3.93-.89h-5.03v13.91Z"/>
      <path d="M153.08,91.41l7.78-17.02h1.78l7.78,17.02h-1.9l-7.15-15.98h.73l-7.15,15.98h-1.87ZM156.14,86.87l.54-1.46h9.9l.54,1.46h-10.97Z"/>
      <path d="M180.53,91.41v-17.02h6.93c1.81,0,3.41.36,4.78,1.08,1.37.72,2.44,1.72,3.2,3,.76,1.28,1.14,2.76,1.14,4.43s-.38,3.15-1.14,4.43c-.76,1.28-1.83,2.28-3.2,3-1.37.72-2.96,1.08-4.78,1.08h-6.93ZM182.33,89.86h5.03c1.51,0,2.82-.29,3.93-.89,1.11-.59,1.97-1.41,2.59-2.46.62-1.05.92-2.25.92-3.61s-.31-2.59-.92-3.62c-.62-1.04-1.48-1.85-2.59-2.44-1.11-.59-2.42-.89-3.93-.89h-5.03v13.91Z"/>
      <path d="M221.58,91.41v-17.02h6.93c1.81,0,3.41.36,4.78,1.08,1.37.72,2.44,1.72,3.2,3,.76,1.28,1.14,2.76,1.14,4.43s-.38,3.15-1.14,4.43c-.76,1.28-1.83,2.28-3.2,3-1.37.72-2.96,1.08-4.78,1.08h-6.93ZM223.38,89.86h5.03c1.51,0,2.82-.29,3.93-.89,1.11-.59,1.97-1.41,2.59-2.46.62-1.05.92-2.25.92-3.61s-.31-2.59-.92-3.62c-.62-1.04-1.48-1.85-2.59-2.44-1.11-.59-2.42-.89-3.93-.89h-5.03v13.91Z"/>
      <path d="M248.96,91.41v-17.02h11.67v1.56h-9.87v13.91h10.24v1.56h-12.04ZM250.57,83.54v-1.53h9v1.53h-9Z"/>
      <path d="M286.19,91.41v-17.02h6.37c1.44,0,2.68.23,3.72.69,1.04.46,1.84,1.13,2.4,1.99s.84,1.92.84,3.15-.28,2.23-.84,3.1-1.36,1.54-2.4,2.01c-1.04.47-2.28.7-3.72.7h-5.37l.8-.85v6.22h-1.8ZM287.99,85.34l-.8-.88h5.33c1.7,0,3-.37,3.88-1.11.88-.74,1.33-1.78,1.33-3.12s-.44-2.42-1.33-3.16c-.88-.75-2.18-1.12-3.88-1.12h-5.33l.8-.85v10.24Z"/>
      <path d="M310.7,91.41v-17.02h6.37c2.16,0,3.85.52,5.09,1.54,1.24,1.03,1.86,2.46,1.86,4.29,0,1.2-.28,2.23-.84,3.1s-1.36,1.53-2.4,1.99-2.28.69-3.72.69h-5.37l.8-.83v6.22h-1.8ZM312.5,85.34l-.8-.85h5.33c1.7,0,3-.37,3.88-1.12.88-.75,1.33-1.79,1.33-3.14s-.44-2.42-1.33-3.16c-.88-.75-2.18-1.12-3.88-1.12h-5.33l.8-.85v10.24ZM322.33,91.41l-4.38-6.18h1.94l4.4,6.18h-1.97Z"/>
      <path d="M335.58,91.41v-17.02h11.67v1.56h-9.87v13.91h10.24v1.56h-12.04ZM337.18,83.54v-1.53h9v1.53h-9Z"/>
      <path d="M366.49,91.56c-1.28,0-2.46-.21-3.55-.64s-2.03-1.03-2.82-1.81c-.79-.78-1.42-1.69-1.86-2.75-.45-1.05-.67-2.2-.67-3.45s.22-2.4.67-3.45c.45-1.05,1.07-1.97,1.87-2.75.8-.78,1.75-1.38,2.83-1.81s2.27-.65,3.55-.65,2.39.21,3.48.62c1.09.41,2,1.03,2.75,1.86l-1.14,1.14c-.7-.71-1.47-1.23-2.31-1.54s-1.75-.47-2.72-.47-1.97.17-2.84.52c-.88.35-1.64.84-2.29,1.48-.65.64-1.15,1.39-1.52,2.24-.36.85-.55,1.79-.55,2.81s.18,1.96.55,2.81.87,1.6,1.52,2.24c.65.64,1.41,1.13,2.29,1.48s1.82.52,2.84.52,1.88-.16,2.72-.49c.84-.32,1.61-.84,2.31-1.56l1.14,1.14c-.75.83-1.66,1.45-2.75,1.87-1.09.42-2.25.63-3.5.63Z"/>
      <path d="M383.63,91.41v-17.02h1.8v17.02h-1.8Z"/>
      <path d="M402.96,91.56c-1.26,0-2.48-.21-3.63-.62-1.16-.41-2.05-.94-2.69-1.59l.71-1.39c.6.58,1.41,1.07,2.42,1.47,1.01.4,2.08.6,3.2.6s1.94-.13,2.61-.4,1.17-.63,1.48-1.08.47-.96.47-1.51c0-.66-.19-1.2-.57-1.61-.38-.4-.88-.72-1.5-.96-.62-.23-1.3-.44-2.04-.62s-1.49-.37-2.24-.57c-.75-.2-1.43-.48-2.05-.82-.63-.34-1.13-.79-1.51-1.35s-.57-1.29-.57-2.2c0-.84.22-1.62.67-2.32.45-.71,1.13-1.27,2.05-1.7s2.11-.65,3.55-.65c.96,0,1.9.13,2.84.4s1.75.64,2.43,1.11l-.61,1.44c-.73-.49-1.5-.84-2.32-1.07s-1.61-.34-2.37-.34c-1.02,0-1.86.14-2.53.41-.67.28-1.16.64-1.47,1.11-.32.46-.48.98-.48,1.57,0,.67.19,1.2.57,1.61.38.4.88.72,1.51.95.62.23,1.31.43,2.05.61.75.18,1.49.37,2.23.58.74.21,1.42.48,2.04.81.62.33,1.13.78,1.51,1.33s.57,1.27.57,2.16c0,.83-.23,1.59-.68,2.3-.46.71-1.15,1.27-2.08,1.7-.93.43-2.13.64-3.59.64Z"/>
      <path d="M420.52,91.41v-17.02h1.8v17.02h-1.8Z"/>
      <path d="M442.6,91.56c-1.28,0-2.47-.21-3.56-.64s-2.04-1.04-2.84-1.82c-.8-.79-1.43-1.7-1.87-2.75-.45-1.05-.67-2.19-.67-3.44s.22-2.4.67-3.44c.45-1.04,1.07-1.96,1.87-2.75.8-.79,1.75-1.39,2.83-1.82s2.28-.65,3.57-.65,2.46.22,3.55.65c1.08.43,2.03,1.03,2.83,1.81.8.78,1.43,1.69,1.87,2.75.45,1.05.67,2.21.67,3.45s-.22,2.4-.67,3.45c-.45,1.05-1.07,1.97-1.87,2.75-.8.78-1.75,1.38-2.83,1.81-1.09.43-2.27.64-3.55.64ZM442.6,89.96c1.02,0,1.97-.17,2.83-.52s1.62-.84,2.26-1.48,1.14-1.39,1.5-2.24.54-1.79.54-2.81-.18-1.96-.54-2.81c-.36-.85-.86-1.6-1.5-2.24-.64-.64-1.4-1.13-2.26-1.48-.87-.35-1.81-.52-2.83-.52s-1.97.17-2.84.52c-.88.35-1.64.84-2.29,1.48-.65.64-1.15,1.39-1.51,2.24-.36.85-.54,1.79-.54,2.81s.18,1.94.54,2.8c.36.86.86,1.61,1.51,2.25.65.64,1.41,1.13,2.29,1.48s1.82.52,2.84.52ZM441.02,73.01l3.33-3.02h2.31l-3.94,3.02h-1.7Z"/>
      <path d="M462.86,91.41v-17.02h1.48l11.75,14.79h-.78v-14.79h1.78v17.02h-1.48l-11.72-14.78h.78v14.78h-1.8Z"/>
    </g>
  </g>
</svg>