<?xml version="1.0" encoding="UTF-8"?>
<svg id="Capa_2" data-name="Capa 2" xmlns="http://www.w3.org/2000/svg" viewBox="0 0 430.45 81.99">
  <defs>
    <style>
      .cls-1 {
        fill: #113259;
      }
    </style>
  </defs>
  <g id="Layer_1" data-name="Layer 1">
    <g>
      <path class="cls-1" d="M214.34,44.59V10.11c-3.5,0-12.03.16-23.74,1.63V2.39s12.28-1.87,26.67-1.71l8.54.08v43.83h-11.47Z"/>
      <path class="cls-1" d="M37.32,44.8c-24.66,0-37.32-3.21-37.32-3.21V.33h11.43v33.71c5.84.74,14.31,1.4,25.9,1.4,13.73.08,22.36-.82,25.73-1.23V.33h11.51v41.27s-12.17,3.21-37.24,3.21Z"/>
      <path class="cls-1" d="M165.32,44.48V10.77c-5.84-.74-14.31-1.4-25.81-1.4-13.65-.08-22.44.9-25.81,1.32v33.79h-11.43V3.29s12.17-3.29,37.24-3.29,37.32,3.29,37.32,3.29v41.19h-11.51Z"/>
      <path class="cls-1" d="M291.19,44.8c-24.09,0-36.83-3.21-36.83-3.21V3.53s12.5-3.21,36.83-3.21,36.83,3.21,36.83,3.21v9.37s-13.81-3.12-36.83-3.21c-13.48,0-22.03.82-25.49,1.23l.08,23.27c3.21.41,11.35,1.23,25.24,1.23,23.68,0,36.99-3.29,36.99-3.29v9.45s-12.91,3.21-36.83,3.21Z"/>
      <path class="cls-1" d="M393.62,44.89c-24.25-.08-36.83-3.21-36.83-3.21V3.7s11.92-3.21,36.83-3.21,36.83,3.21,36.83,3.21v38.06s-12.82,3.12-36.83,3.12ZM393.54,9.86c-13.48-.08-22.11.82-25.4,1.23v23.27c3.62.41,12.83,1.32,25.57,1.32,11.43,0,19.57-.58,25.24-1.23l.08-23.27v.08c-5.75-.74-14.14-1.4-25.49-1.4Z"/>
      <g>
        <path class="cls-1" d="M.11,81.86v-15.24h1.61v15.24H.11Z"/>
        <path class="cls-1" d="M13.21,81.86v-15.24h6.21c1.62,0,3.05.32,4.28.97,1.23.65,2.18,1.54,2.86,2.69.68,1.15,1.02,2.47,1.02,3.96s-.34,2.82-1.02,3.96c-.68,1.15-1.64,2.04-2.86,2.69-1.23.65-2.65.97-4.28.97h-6.21ZM14.83,80.46h4.51c1.35,0,2.52-.26,3.52-.79.99-.53,1.77-1.26,2.32-2.2.55-.94.83-2.01.83-3.23s-.28-2.32-.83-3.24c-.55-.93-1.32-1.66-2.32-2.19-.99-.53-2.17-.79-3.52-.79h-4.51v12.45Z"/>
        <path class="cls-1" d="M37.73,81.86v-15.24h10.45v1.39h-8.84v12.45h9.17v1.39h-10.78ZM39.17,74.8v-1.37h8.06v1.37h-8.06Z"/>
        <path class="cls-1" d="M58.83,81.86v-15.24h1.33l10.52,13.24h-.7v-13.24h1.59v15.24h-1.33l-10.5-13.24h.7v13.24h-1.61Z"/>
        <path class="cls-1" d="M86.03,81.86v-13.85h-5.36v-1.39h12.33v1.39h-5.36v13.85h-1.61Z"/>
        <path class="cls-1" d="M102.1,81.86v-15.24h1.61v15.24h-1.61Z"/>
        <path class="cls-1" d="M115.21,81.86v-15.24h6.21c1.62,0,3.05.32,4.28.97,1.23.65,2.18,1.54,2.86,2.69.68,1.15,1.02,2.47,1.02,3.96s-.34,2.82-1.02,3.96c-.68,1.15-1.64,2.04-2.86,2.69-1.23.65-2.65.97-4.28.97h-6.21ZM116.82,80.46h4.51c1.35,0,2.52-.26,3.52-.79.99-.53,1.77-1.26,2.32-2.2.55-.94.83-2.01.83-3.23s-.28-2.32-.83-3.24c-.55-.93-1.32-1.66-2.32-2.19-.99-.53-2.17-.79-3.52-.79h-4.51v12.45Z"/>
        <path class="cls-1" d="M137.07,81.86l6.97-15.24h1.59l6.97,15.24h-1.7l-6.4-14.31h.65l-6.4,14.31h-1.68ZM139.81,77.78l.48-1.31h8.86l.48,1.31h-9.82Z"/>
        <path class="cls-1" d="M161.65,81.86v-15.24h6.21c1.62,0,3.05.32,4.28.97,1.23.65,2.18,1.54,2.86,2.69.68,1.15,1.02,2.47,1.02,3.96s-.34,2.82-1.02,3.96c-.68,1.15-1.64,2.04-2.86,2.69-1.23.65-2.65.97-4.28.97h-6.21ZM163.27,80.46h4.51c1.35,0,2.52-.26,3.52-.79.99-.53,1.77-1.26,2.32-2.2.55-.94.83-2.01.83-3.23s-.28-2.32-.83-3.24c-.55-.93-1.32-1.66-2.32-2.19-.99-.53-2.17-.79-3.52-.79h-4.51v12.45Z"/>
        <path class="cls-1" d="M198.41,81.86v-15.24h6.21c1.62,0,3.05.32,4.28.97,1.23.65,2.18,1.54,2.86,2.69.68,1.15,1.02,2.47,1.02,3.96s-.34,2.82-1.02,3.96c-.68,1.15-1.64,2.04-2.86,2.69-1.23.65-2.65.97-4.28.97h-6.21ZM200.02,80.46h4.51c1.35,0,2.52-.26,3.52-.79.99-.53,1.77-1.26,2.32-2.2.55-.94.83-2.01.83-3.23s-.28-2.32-.83-3.24c-.55-.93-1.32-1.66-2.32-2.19-.99-.53-2.17-.79-3.52-.79h-4.51v12.45Z"/>
        <path class="cls-1" d="M222.93,81.86v-15.24h10.45v1.39h-8.84v12.45h9.17v1.39h-10.78ZM224.37,74.8v-1.37h8.06v1.37h-8.06Z"/>
        <path class="cls-1" d="M256.27,81.86v-15.24h5.71c1.29,0,2.4.21,3.33.62.93.41,1.64,1.01,2.14,1.78s.75,1.72.75,2.82-.25,2-.75,2.78-1.22,1.37-2.14,1.8c-.93.42-2.04.63-3.33.63h-4.81l.72-.76v5.57h-1.61ZM257.88,76.41l-.72-.78h4.77c1.52,0,2.68-.33,3.47-.99.79-.66,1.19-1.59,1.19-2.8s-.39-2.16-1.19-2.83c-.79-.67-1.95-1-3.47-1h-4.77l.72-.76v9.17Z"/>
        <path class="cls-1" d="M278.22,81.86v-15.24h5.71c1.93,0,3.45.46,4.56,1.38,1.11.92,1.67,2.2,1.67,3.84,0,1.07-.25,2-.75,2.78s-1.22,1.37-2.14,1.78c-.93.41-2.04.62-3.33.62h-4.81l.72-.74v5.57h-1.61ZM279.83,76.41l-.72-.76h4.77c1.52,0,2.68-.33,3.47-1,.79-.67,1.19-1.6,1.19-2.81s-.39-2.16-1.19-2.83c-.79-.67-1.95-1-3.47-1h-4.77l.72-.76v9.17ZM288.62,81.86l-3.92-5.53h1.74l3.94,5.53h-1.76Z"/>
        <path class="cls-1" d="M300.49,81.86v-15.24h10.45v1.39h-8.84v12.45h9.17v1.39h-10.78ZM301.93,74.8v-1.37h8.06v1.37h-8.06Z"/>
        <path class="cls-1" d="M328.17,81.99c-1.15,0-2.21-.19-3.18-.58s-1.81-.93-2.53-1.62c-.71-.7-1.27-1.52-1.67-2.46-.4-.94-.6-1.97-.6-3.09s.2-2.15.6-3.09c.4-.94.96-1.76,1.68-2.46.72-.7,1.56-1.24,2.54-1.62s2.03-.58,3.18-.58,2.14.19,3.11.56c.97.37,1.79.93,2.46,1.67l-1.02,1.02c-.62-.64-1.31-1.1-2.07-1.38s-1.57-.42-2.44-.42-1.76.16-2.55.47c-.78.31-1.47.75-2.05,1.33-.58.57-1.03,1.24-1.36,2-.33.76-.49,1.6-.49,2.52s.16,1.75.49,2.52.78,1.43,1.36,2c.58.57,1.26,1.02,2.05,1.33s1.63.47,2.55.47,1.68-.14,2.44-.44c.75-.29,1.44-.75,2.07-1.39l1.02,1.02c-.67.74-1.49,1.3-2.46,1.68-.97.38-2.02.57-3.14.57Z"/>
        <path class="cls-1" d="M343.52,81.86v-15.24h1.61v15.24h-1.61Z"/>
        <path class="cls-1" d="M360.83,81.99c-1.13,0-2.22-.18-3.25-.55-1.04-.37-1.84-.85-2.41-1.43l.63-1.24c.54.52,1.26.96,2.17,1.32.91.36,1.86.53,2.86.53s1.74-.12,2.34-.36,1.05-.56,1.33-.97.42-.86.42-1.35c0-.59-.17-1.07-.51-1.44-.34-.36-.79-.65-1.34-.86-.55-.21-1.16-.39-1.83-.55s-1.34-.33-2-.51c-.67-.18-1.28-.43-1.84-.73-.56-.3-1.01-.71-1.35-1.21s-.51-1.16-.51-1.97c0-.75.2-1.45.6-2.08.4-.63,1.01-1.14,1.84-1.52s1.89-.58,3.18-.58c.86,0,1.71.12,2.55.36s1.57.57,2.18.99l-.54,1.29c-.65-.44-1.35-.75-2.08-.96s-1.44-.3-2.12-.3c-.91,0-1.67.12-2.26.37-.6.25-1.04.58-1.32.99-.28.41-.43.88-.43,1.4,0,.6.17,1.08.51,1.44.34.36.79.65,1.35.85.56.2,1.17.39,1.84.54.67.16,1.33.33,1.99.52.66.19,1.27.43,1.83.73.56.3,1.01.69,1.35,1.19s.51,1.14.51,1.94c0,.74-.2,1.43-.61,2.06-.41.63-1.03,1.14-1.86,1.52-.84.38-1.91.58-3.21.58Z"/>
        <path class="cls-1" d="M376.55,81.86v-15.24h1.61v15.24h-1.61Z"/>
        <path class="cls-1" d="M396.32,81.99c-1.15,0-2.21-.19-3.19-.58s-1.83-.93-2.55-1.63c-.72-.7-1.28-1.52-1.68-2.46-.4-.94-.6-1.96-.6-3.08s.2-2.14.6-3.08c.4-.94.96-1.76,1.68-2.46.72-.7,1.56-1.25,2.54-1.63s2.04-.58,3.2-.58,2.21.19,3.18.58c.97.38,1.82.93,2.54,1.62.72.7,1.28,1.52,1.68,2.46.4.94.6,1.97.6,3.09s-.2,2.15-.6,3.09c-.4.94-.96,1.76-1.68,2.46-.72.7-1.56,1.24-2.54,1.62-.97.38-2.03.58-3.18.58ZM396.32,80.55c.91,0,1.76-.16,2.54-.47s1.45-.75,2.03-1.33,1.02-1.24,1.34-2,.48-1.6.48-2.52-.16-1.75-.48-2.52c-.32-.76-.77-1.43-1.34-2-.57-.57-1.25-1.02-2.03-1.33-.78-.31-1.62-.47-2.54-.47s-1.76.16-2.55.47c-.78.31-1.47.75-2.05,1.33-.58.57-1.03,1.24-1.35,2-.32.76-.48,1.6-.48,2.52s.16,1.73.48,2.5c.32.77.77,1.44,1.35,2.01.58.57,1.26,1.02,2.05,1.33s1.63.47,2.55.47ZM394.91,65.37l2.98-2.7h2.07l-3.53,2.7h-1.52Z"/>
        <path class="cls-1" d="M414.46,81.86v-15.24h1.33l10.52,13.24h-.7v-13.24h1.59v15.24h-1.33l-10.5-13.24h.7v13.24h-1.61Z"/>
      </g>
    </g>
  </g>
</svg>